<svg xmlns="http://www.w3.org/2000/svg" id="banner" viewBox="0 0 612 242.3">
  <g id="tool">
    <path fill="none" stroke="#C82D38" stroke-width=".99" stroke-miterlimit="10" d="M422.1 167.2v-1.4l4.1 7.1 4.4-18.2 4.4 13.1 8.9.1v4.1l2.2.9 2 6.8 6.2-25 5.6 18.7 3.3-6.2H482"/>
    <path fill="#CFE7CA" d="M266.5 97.4c-1.8-5.2-3.6-7.9-7.1-12.1-3-3.5-8-7.8-11-11.4-.7-.8-1.4-1.7-1.8-2.7-.7-2.1.3-4.7 2.2-6 1.8-1.4 3.8-1.8 6-1.4 2.2.4 4.8 1.4 6.8 2.5s5.4 2.2 7.6 2.6c3.4.6 6.3.2 9.4-1.5l1.3-1.1c.3-.2.5-.4.7-.7l.4-.8c5.6-.9 13.6-7 13.6-7v-.7s13.8-9.4 15.2-12.1c1.4-2.7-3.7-2.8-3.7-2.8-.3-.5-1.8-.5-1.8-.5s-2-1.5-2.1.4 1.3 1.7 1.3 1.7l2.4.2.1-.4 2.1.2c5.2-.1-14 12.5-14 12.5l-.5-.3s-9.7 6.4-13.7 6.3-1-4.8-1-4.8l-.3-.4c6.8-13.1 12-12.8 12-12.8l.3-.1.2.4 2.3-.4s1.5.1 1.2-1.9c-.3-1.9-2.2-.2-2.2-.2s-1.5.2-1.7.7c0 0-8.4 2.5-13.1 13.9l-.8.3s-3.5 5.3 1.3 7.5l-1.1 1.1-.4.3c-2.5 2-8.7.5-11.6-.7-3.2-1.3-1.7-.9-5.6-2.2-5.9-1.9-7.5-1.8-12.3.9-1.1.6-2.7 3.3-2.8 4.6-.3 3.6 1.3 6.4 4 8.9 5.7 5.2 9.8 9.4 14.5 18 1.3 2.4.6 5.8.2 8.5-.3 2.7 5.3-1.3 3.5-6.5z"/>
    <path fill="#E6E7E8" d="M294.7 57.9l.1-.6s13.6-9.5 15.1-12.2c1.6-2.9-3.7-3.2-3.7-3.2-.3-.3-.3 2.1-.3 2.1l2-.1c3.7.4-13.9 11.9-13.9 11.9l-.6-.1 1.3 2.2z"/>
    <path fill="#E6E7E8" d="M294.9 57.9c.4-1.8 4.8-3.9 6.2-4.9 2.8-2.1 6.4-4.3 8.5-7.1 1.3-1.7.7-3-1.3-3.7-2.2-.7-2.5-.4-2.5 1.9 0 .1.1.2.2.2.9 0 2.2-.4 2.2.7 0 .4-1.2 1.3-1.5 1.6-1.7 1.6-3.6 3-5.5 4.4-1.6 1.2-3.3 2.3-5 3.5-.8.5-1.6 1.5-2.6 1.3-.1 0-.2.1-.2.2l1.2 2.1c.1.2.4 0 .3-.2-.2-.4-.9-1.2-.9-1.6 0-1.6-.4.6.2-.2.1-.2.7-.4.8-.5 2.1-1.1 4.1-2.8 6.1-4.2 1-.7 8.6-5.5 7.5-7.2-.2-.3-.5-.2-.8-.3-.3-.1-1.4.3-1.7 0-.4-.4.3-1.7.5-1.7.4-.2 2.3.5 2.5.7.9.8.7 2.2.1 3-.7 1.1-2.2 2.1-3.2 2.9-2.8 2.3-5.7 4.4-8.6 6.5-1 .7-2.7 1.4-3 2.7.2 0 .5.1.5-.1z"/>
    <g fill="#E6E7E8">
      <path d="M279.1 57.2l.4-1.1c7.3-12.1 11.3-11.7 11.3-11.7l.2-.3s-.1-2-.3-1.4c0 0-7.6.8-13 13.2l-.7.9 2.1.4z"/>
      <path d="M279.3 57.3c1.1-3.2 3.7-6.4 5.9-8.8 1.2-1.3 2.7-2.8 4.4-3.5 1.3-.5 2.1-.4 1.4-2.3 0-.1-.2-.2-.3-.1-.3.2-1.1.3-1.4.4-1.3.4-2.4 1.1-3.5 1.9-1.6 1.1-2.9 2.5-4.1 4-1.9 2.4-2.9 5.5-4.8 7.8-.1.1-.1.2.1.3.7.1 1.5.2 2.2.4.2 0 .3-.3.1-.3-.4-.1-1.9-.3-1.9-.3-.1-.1 1.7-3.1 1.9-3.4 1.5-2.8 3.4-5.5 5.9-7.5 1.4-1.1 2.9-2.1 4.6-2.6.9-.3.9-.4 1.1.1.5 1.3-2.3 1.8-3.1 2.5-3.5 2.6-7.2 7.3-8.6 11.4-.3.1 0 .2.1 0z"/>
    </g>
  </g>
  <g fill="#FEF7E9">
    <path d="M179.8 55.1h16.6v7.2l-4.3-.2v15.3h-7.9V62.1l-4.3.2v-7.2z"/>
    <path d="M198.1 53.4h7.4V60l-.3 4.3h.1c1.4-1.7 2.8-3 4.9-3 3.8 0 5.2 3 5.2 6.4v9.6h-7.3v-8.1c0-.8-.1-1.9-1.2-1.9-1.2 0-1.4.9-1.4 1.9v8.1h-7.4V53.4z"/>
    <path d="M225.1 70.8c0 1.3.2 2.7 1.8 2.7.8 0 1.4-.6 1.5-1.3h7.2c-1 3.8-5.1 5.5-8.6 5.5-4.8 0-9.2-2.5-9.2-8 0-5.2 3.9-8.5 8.8-8.5 5.4 0 9.7 3.6 9.4 9.5h-10.9zm3.5-3.3c0-1.1-.7-2-1.8-2s-1.7.9-1.7 2h3.5z"/>
  </g>
  <g fill="#CFE7CA">
    <path d="M183.6 78.8h17.6l6.5 25.4h.4c.3-2.1.6-4.4 1.2-6.4l5.3-19H232l7.7 48.3h-16.5l-2.3-26.4h-.3c-.3 1.6-.6 3.3-1.1 4.8l-6.8 21.6h-10l-6.1-20.4c-.5-2-.9-4-1.1-6h-.6c-.1 1.9-.2 3.9-.4 5.8l-2 20.6H176l7.6-48.3z"/>
    <path d="M284 110.5c0 11.3-9.7 17.4-20.1 17.4s-20.1-6.1-20.1-17.4c0-11.9 9.2-18.2 20.1-18.2s20.1 6.3 20.1 18.2zm-24.6-.3c0 2.7 2 4.7 4.5 4.7s4.5-2 4.5-4.7c0-2.8-1.8-5-4.5-5s-4.5 2.3-4.5 5z"/>
    <path d="M313.2 122h-.4c-2.7 3.5-6.5 5.8-10.8 5.8-9 0-13.7-9.3-13.7-17.5 0-8.5 4.4-18.1 13.8-18.1 3.7 0 7.7 2.2 10 5.3h.6l-.7-8.1V75.1h16V127h-15.1l.3-5zm-9.1-12c0 2.6 1.4 4.9 4.1 4.9 2.5 0 4.2-2.7 4.2-5 0-2.4-1.7-4.7-4.2-4.7-2.6 0-4.1 2.3-4.1 4.8z"/>
    <path d="M349.1 112.9c0 2.8.4 5.8 3.8 5.8 1.7 0 2.9-1.2 3.2-2.8h15.7c-2.1 8.2-11 12-18.7 12-10.4 0-20-5.5-20-17.2 0-11.3 8.5-18.3 19-18.3 11.8 0 21.1 7.8 20.3 20.6h-23.3zm7.6-7.1c0-2.3-1.6-4.4-3.9-4.4-2.4 0-3.6 2-3.6 4.4h7.5z"/>
    <path d="M405 109.1c-1.7-1-2.9-1.9-4.9-1.9-4.2 0-6.3 2.6-6.3 6.8v13.1h-16.1v-34h16.1l-.4 4.5h.4c2.9-4.5 5.8-5.4 11.2-5.3v16.8z"/>
    <path d="M424.2 98.5h.4c3.1-3.7 5.5-6.2 10.7-6.2 8.2 0 11.5 6.3 11.5 13.8V127h-16.1v-16.6c0-2 0-4.8-2.7-4.8s-2.7 2.8-2.7 4.8V127h-16.1V93h15.7l-.7 5.5z"/>
  </g>
  <g fill="#C82D38">
    <path d="M223.7 129.3h16.4l15.3 26.8h.5c-.7-4-1.4-8.2-1.4-12.3v-14.5h16.3v48.3h-16.3l-15-25.4h-.5c.6 3.3 1.1 6.5 1.1 9.7v15.7h-16.3v-48.3z"/>
    <path d="M293.5 143.5V161c0 2 .1 4.1 2.7 4.1s2.7-2.1 2.7-4.1v-17.5h16v19.2c0 10.8-9.1 15.6-18.7 15.6s-18.7-4.8-18.7-15.6v-19.2h16z"/>
    <path d="M348.4 159.5c-1.7-1-2.9-1.9-4.9-1.9-4.2 0-6.3 2.6-6.3 6.8v13.1H321v-34h16.1l-.4 4.5h.4c2.9-4.5 5.8-5.4 11.2-5.3v16.8z"/>
    <path d="M353.5 164.3l1 .6c2.2 1.4 5.5 3.1 8.2 3.1 1.1 0 2.4-.6 2.4-1.9 0-1.9-1.9-1.9-3.2-2.1-5.4-.8-10.4-3-10.4-9.4 0-8.5 8.4-11.9 15.5-11.9 4.1 0 9.2.8 12.9 2.9L376 155c-2.1-1.5-4.8-2.8-7.4-2.8-1 0-2.3.3-2.3 1.5 0 1.7 1.7 1.8 4 2.2 5.7 1 10.4 3 10.4 9.9 0 8.8-8.5 12.5-16 12.5-5.2 0-10.4-1.7-15.2-3.8l4-10.2z"/>
    <path d="M400.2 163.3c0 2.8.4 5.8 3.8 5.8 1.7 0 2.9-1.2 3.2-2.8h15.7c-2.1 8.2-11 12-18.7 12-10.4 0-20-5.5-20-17.2 0-11.3 8.5-18.3 19-18.3 11.8 0 21.1 7.8 20.3 20.6h-23.3zm7.5-7c0-2.3-1.6-4.4-3.9-4.4-2.4 0-3.6 2-3.6 4.4h7.5z"/>
  </g>
  <g id="guy">
    <path fill="#F7D2A0" stroke="#F7D2A0" stroke-width=".56" stroke-miterlimit="10" d="M56.5 107.6l-2.6 7.5 16.3 16s26.3.3 30.7-15v-3.8l-1.7-5.8-42.7 1.1z"/>
    <path fill="#F7D2A0" stroke="#F7D2A0" stroke-width=".56" stroke-miterlimit="10" d="M114.7 59.6c1.2 58.3-28 58.1-33.8 57.5-.8-.1-1.6-.2-2.4-.2-48.1-2.3-35.3-64.4-35.3-64.4L54 39.2l57.9 9.2 2.8 11.2z"/>
    <path fill="#7E431D" d="M114.7 59.6V46.5c0-14.6-27.3-13.7-27.3-13.7-11.6-9.5-22.2-6.6-28.3-3.4l-1.2.6c-7.7 3-13.3 10-14.3 18.4-.3 2.4-.4 4-.4 4l7.5-5s9.4 3.8 15.8-.3c0 0 20.8 12.2 43.7 9.8l4.5 2.7z"/>
    <path fill="none" stroke="#000" stroke-width=".28" stroke-miterlimit="10" d="M81.3 53.4L70.2 85.2l14.2 3.4 16.1 22.2"/>
    <ellipse cx="60.2" cy="63.8" fill="#FFF" stroke="#000" stroke-width=".56" stroke-miterlimit="10" rx="4.4" ry="4.2"/>
    <ellipse cx="99.4" cy="67.2" fill="#FFF" stroke="#000" stroke-width=".56" stroke-miterlimit="10" rx="4.4" ry="4.2"/>
    <path fill="#E12946" stroke="#000" stroke-width=".56" stroke-miterlimit="10" d="M73.8 94.2s-1.7 12.9 13 5.7c0 0-8.3.3-13-5.7z"/>
    <path fill="#FEF7E9" d="M104.8 189.7H48.3s-1.1-46.4-.3-57.1c.8-10.7-9.6 1.7-9.6 1.7l-6.3-5.1c1.1-6.2 23.7-19.8 23.7-19.8s21.3 43 44.7 1.4c0 0 20.4 13.6 21.5 19.8l-6.3 5.1s-10.5-7.4-9.7 3.4c.8 10.7-1 50.6-1 50.6h-.2z"/>
    <path fill="#F7D2A0" d="M38.4 134.2S23.1 162.5 48.7 157c0 0 8-1.7 1.7 2.4 0 0 13-2.4 3 2.5 0 0 12.7 2.6-.1 3.6 0 0 9.9 3.3-1.5 3.3 0 0 6.5 4.3-5.9.7-12.4-3.7-28.9-16-13.8-40.2l6.3 4.9z"/>
    <path fill="#F7D2A0" d="M115.6 135.9s15.3 28.3-10.3 22.8c0 0-8-1.7-1.7 2.4 0 0-13-2.4-3 2.5 0 0-12.7 2.6.1 3.6 0 0-9.9 3.3 1.5 3.3 0 0-6.5 4.3 5.9.7s28.9-16 13.8-40.2l-6.3 4.9z"/>
    <path fill="#E12946" stroke="#E12946" stroke-width=".56" stroke-miterlimit="10" d="M91.4 130h-4.6v4.6h4.7l-.1 4.4h5.3v-4.5h4.5l.1-4.5h-4.6v-4.8h-5.3z"/>
    <path fill="#6D6E71" d="M72 170.9c8.6-8.6-.3-26.7-.3-26.7-49.2-20.1-29.3-86.6-29.3-86.6S27.5 130.8 77 138.8c0 0 37.9 5.6 37.6-69.8 0 0 9.7 69.6-34.4 75.5 0 0-.7 36.7-13.2 33.7l5-7.3"/>
    <ellipse cx="65.5" cy="172.2" fill="#414042" stroke="#414042" stroke-width=".56" stroke-miterlimit="10" rx="6.5" ry="5.9"/>
    <ellipse cx="65.5" cy="172.2" stroke="#000" stroke-width=".56" stroke-miterlimit="10" rx="3.2" ry="3.4"/>
    <path stroke="#000" stroke-width=".56" stroke-miterlimit="10" d="M56 189.7l3 24.7s-4.6 7.6 10.2 8.1c.9 0 1.8-.2 2.4-.8 1.2-1.1 1.5-3.2-6.1-5.9l1.4-26H56z"/>
    <path stroke="#000" stroke-width=".56" stroke-miterlimit="10" d="M83.8 189.7l3 24.7s-4.7 7.2 10.2 8.1c.9.1 1.8-.2 2.4-.8 1.2-1.1 1.5-3.2-6.1-5.9l1.4-26H83.8z"/>
  </g>
  <g id="girl">
    <path fill="#F7D2A0" stroke="#F7D2A0" stroke-width=".61" stroke-miterlimit="10" d="M542.1 105.5l5.5 20.8 5.3 3.5 9-12.1-4.2-13.8z"/>
    <path stroke="#000" stroke-width=".53" stroke-miterlimit="10" d="M551.4 183l-2.4 27.1s3.8 7.9-8.3 8.8c-.7.1-1.4-.2-2-.9-.9-1.2-1.2-3.5 5-6.5l-1.1-28.6h8.8z"/>
    <path stroke="#000" stroke-width=".55" stroke-miterlimit="10" d="M564.9 183l-2.6 27.1s4.2 7.9-9.1 8.8c-.8.1-1.6-.2-2.2-.9-1-1.2-1.3-3.5 5.5-6.5l-1.2-28.6h9.6z"/>
    <path fill="#FEF7E9" d="M530.9 105.5s-19.8 28.2 5.6 56.1l.4-17.9s-7.4-13.3.2-9.6l-1.2 49h32.9l1-54.3s6.4 3.7-.2 12l-.4 19.7s25.8-30.4 4.3-54.3h-10.4s-11.7.2-11.9 19.9c.1-.1-1.9-21.3-20.3-20.6z"/>
    <ellipse cx="550.5" cy="138.6" fill="#E12946" stroke="#000" stroke-width=".55" stroke-miterlimit="10" rx="2.4" ry="2.4"/>
    <ellipse cx="550.5" cy="147" fill="#E12946" stroke="#000" stroke-width=".55" stroke-miterlimit="10" rx="2.4" ry="2.4"/>
    <ellipse cx="550.5" cy="155.7" fill="#E12946" stroke="#000" stroke-width=".55" stroke-miterlimit="10" rx="2.4" ry="2.4"/>
    <ellipse cx="550.5" cy="164.6" fill="#E12946" stroke="#000" stroke-width=".55" stroke-miterlimit="10" rx="2.4" ry="2.4"/>
    <path fill="#7E431D" d="M530.4 105.1h-24.1s.5-32.5 8.6-51.9c8.1-19.3 54.5-12.3 61.6-1.1 7.1 11.2 13.5 49 13.5 49l-25 5.3-34.6-1.3z"/>
    <path fill="#F7D2A0" stroke="#F7D2A0" stroke-width=".61" stroke-miterlimit="10" d="M577.5 54.9c5.1 54-20.2 55.8-25.3 55.6h-2.1c-41.9 1.2-35.1-57.3-35.1-57.3l8.4-13 50.8 4.5 3.3 10.2z"/>
    <ellipse cx="532.6" cy="60.4" fill="#FFF" stroke="#000" stroke-width=".61" stroke-miterlimit="10" rx="4.4" ry="4.6"/>
    <ellipse cx="561" cy="62.2" fill="#FFF" stroke="#000" stroke-width=".61" stroke-miterlimit="10" rx="4.4" ry="4.6"/>
    <path fill="none" stroke="#000" stroke-width=".25" stroke-miterlimit="10" d="M528.2 53.7l8.7-1.6"/>
    <path fill="none" stroke="#000" stroke-width=".25" stroke-miterlimit="10" d="M557.4 53l9 3"/>
    <path fill="#FEF7E9" d="M514.9 53.2l-10.2-21.4s49.4-39.3 92.2 2.1l-20.4 18.2s-29.1-22-61.6 1.1z"/>
    <path fill="#E12946" stroke="#000" stroke-width=".61" stroke-miterlimit="10" d="M544.2 28.1h-5.9l.1 5.7 5.8.1v5.5h6.5v-5.7h5.7l.1-5.6h-5.8l.1-6h-6.6z"/>
    <path fill="none" stroke="#000" stroke-width=".25" stroke-miterlimit="10" d="M550.7 42.9l-11.1 39.6 7.8.9 8 27.5"/>
    <path fill="none" stroke="#E12946" stroke-width=".25" stroke-miterlimit="10" d="M536 93.1s3 6 12.3 3.1"/>
  </g>
</svg>
