<svg xmlns="http://www.w3.org/2000/svg" id="bluenurses" viewBox="0 0 380.6 184.1">
  <g id="nurses">
    <path fill="#A5D9C9" stroke="#A5D9C9" stroke-width=".19" stroke-miterlimit="10" d="M24.1 72l17.1-.4s-.4-11-1.4-20.9c0-.3-.2-1.4 0-1.7.5-.7 1.9-7.3 5.8 3.8.3.9 1.4 1.2 2.3 1.3 1.3.2 2.9-.4 2.6-3.9-.1-.8-.3-1.5-.5-2.3-1.3-3.8-4-18.1-16.3-17.8 0 0-.1 3.6-3.1 8.5-3.3-4.7-4.3-8.1-4.3-8.1-12.5.6-13.9 14.7-15 18.5-.2.8-.4 1.5-.4 2.3-.1 3.4 1.5 3.9 2.8 3.7.9-.2 2.1-.5 2.3-1.4 1.5-7.4 3.3-6.9 4.5-5.6.7.7 1.2 2.2 1.3 3.2l.1 1.2L24.1 72z"/>
    <path stroke="#000" stroke-width=".1" stroke-miterlimit="10" d="M41.2 71.6l.4 15c0 1.4-.5 2.7-1.4 3.6-.8.8-2 1.2-3.3-.1-.9-.9-1.4-2.1-1.5-3.4l-.8-15 6.6-.1z"/>
    <path stroke="#000" stroke-width=".1" stroke-miterlimit="10" d="M30.8 71.9l-.1 15c0 1.3-.5 2.6-1.3 3.5-1.3 1.3-2.4 1-3.3.2-1-.8-1.5-2.2-1.6-3.6l-.4-15 6.7-.1z"/>
    <path fill="#F7D2A0" stroke="#F7D2A0" stroke-width=".19" stroke-miterlimit="10" d="M36.8 22.2c.1 4.2-3.1 7.7-7.2 7.8s-7.5-3.2-7.6-7.4c-.1-4.2 3.1-7.7 7.2-7.8s7.5 3.2 7.6 7.4z"/>
    <path fill="#7E431D" d="M36.4 19.8v-3.5c-.4-3.5-6-2.6-6-2.6-2.6-2-4.7-1-5.9-.1-.1.1-.2.1-.2.2-1.5.9-2.4 2.8-2.4 4.8 0 .6.4 1.5.4 1.5l1-1.9s2 .7 3.2-.5c0 0 4.6 2.4 9.2 1.2l.7.9z"/>
    <path fill="#6D6E71" stroke="#000" stroke-width=".09" stroke-miterlimit="10" d="M31.4 48.9c1-1.8-1.2-4.4-1.2-4.4-8.9-1-3.9-14-3.9-14s-3.9 13.9 4.5 12.9c0 0 6.4-.9 3-13.1 0 0 4.7 10.9-2.3 13.9 0 0 1.5 6-.7 6.1l.6-1.4"/>
    <path fill="#414042" stroke="#414042" stroke-width=".09" stroke-miterlimit="10" d="M32.9 49.5c.1.5-.2 1.1-.8 1.3-.6.2-1.2-.1-1.3-.7-.1-.5.2-1.1.8-1.3.6-.1 1.1.2 1.3.7z"/>
    <path stroke="#000" stroke-width=".09" stroke-miterlimit="10" d="M32.3 49.7c.1.3-.1.6-.4.7-.3.1-.6-.1-.7-.4s.1-.6.4-.7.7.1.7.4z"/>
    <path fill="#A5D9C9" stroke="#A5D9C9" stroke-width=".19" stroke-miterlimit="10" d="M69.5 72.8l17.1-.4s-.4-11-1.4-20.9c0-.3-.2-1.4 0-1.7.5-.7 1.9-7.3 5.8 3.8.3.9 1.4 1.2 2.3 1.3 1.3.2 2.9-.4 2.6-3.9-.1-.8-.3-1.5-.5-2.3C94.1 45 91.3 30.6 79 31c0 0-.1 3.6-3.1 8.5-3.3-4.7-4.3-8.1-4.3-8.1-12.4.6-13.8 14.7-14.9 18.5-.2.8-.4 1.5-.4 2.3-.1 3.4 1.5 3.9 2.8 3.7.9-.2 2.1-.5 2.3-1.4 1.5-7.4 3.3-6.9 4.5-5.6.7.7 1.2 2.2 1.3 3.2l.1 1.2 2.2 19.5z"/>
    <path stroke="#000" stroke-width=".1" stroke-miterlimit="10" d="M86.6 72.4l.4 15c0 1.4-.5 2.7-1.4 3.6-.8.8-2 1.2-3.3-.1-.9-.9-1.4-2.1-1.5-3.4l-.8-15 6.6-.1z"/>
    <path stroke="#000" stroke-width=".1" stroke-miterlimit="10" d="M76.1 72.7l-.1 15c0 1.3-.5 2.6-1.3 3.5-1.3 1.3-2.4 1-3.3.2-1-.8-1.5-2.2-1.6-3.6l-.4-15 6.7-.1z"/>
    <path fill="#F7D2A0" stroke="#F7D2A0" stroke-width=".19" stroke-miterlimit="10" d="M82.2 23c.1 4.2-3.1 7.7-7.2 7.8s-7.5-3.2-7.6-7.4c-.1-4.2 3.1-7.7 7.2-7.8 4.1-.2 7.5 3.2 7.6 7.4z"/>
    <path fill="#7E431D" d="M81.8 20.6v-3.5c-.4-3.5-6-2.6-6-2.6-2.6-2-4.7-1-5.9-.1-.1.1-.2.1-.2.2-1.5.9-2.4 2.8-2.4 4.8 0 .6.4 1.5.4 1.5l1-1.9s2 .7 3.2-.5c0 0 4.6 2.4 9.2 1.2l.7.9z"/>
    <path fill="#6D6E71" stroke="#000" stroke-width=".09" stroke-miterlimit="10" d="M76.7 49.7c1-1.8-1.2-4.4-1.2-4.4-8.9-1-3.9-14-3.9-14s-3.9 13.9 4.5 12.9c0 0 6.4-.9 3-13.1 0 0 4.7 10.9-2.3 13.9 0 0 1.5 6-.7 6.1l.6-1.4"/>
    <path fill="#414042" stroke="#414042" stroke-width=".09" stroke-miterlimit="10" d="M78.3 50.3c.1.5-.2 1.1-.8 1.3-.6.2-1.2-.1-1.3-.7-.1-.5.2-1.1.8-1.3s1.1.2 1.3.7z"/>
    <path stroke="#000" stroke-width=".09" stroke-miterlimit="10" d="M77.7 50.5c.1.3-.1.6-.4.7-.3.1-.6-.1-.7-.4s.1-.6.4-.7c.3-.1.6.1.7.4z"/>
    <path fill="#A5D9C9" stroke="#A5D9C9" stroke-width=".19" stroke-miterlimit="10" d="M115.9 70.5l17.1-.4s-.4-11-1.4-20.9c0-.3-.2-1.4 0-1.7.5-.7 1.9-7.3 5.8 3.8.3.9 1.4 1.2 2.3 1.3 1.3.2 2.9-.4 2.6-3.9-.1-.8-.3-1.5-.5-2.3-1.3-3.8-4-18.1-16.3-17.8 0 0-.1 3.6-3.1 8.5-3.3-4.7-4.3-8.1-4.3-8.1-12.4.6-13.8 14.7-14.9 18.5-.2.8-.4 1.5-.4 2.3-.1 3.4 1.5 3.9 2.8 3.7.9-.2 2.1-.5 2.3-1.4 1.5-7.4 3.3-6.9 4.5-5.6.7.7 1.2 2.2 1.3 3.2l.1 1.2 2.1 19.6z"/>
    <path stroke="#000" stroke-width=".1" stroke-miterlimit="10" d="M133 70.1l.4 15c0 1.4-.5 2.7-1.4 3.6-.8.8-2 1.2-3.3-.1-.9-.9-1.4-2.1-1.5-3.4l-.8-15 6.6-.1z"/>
    <path stroke="#000" stroke-width=".1" stroke-miterlimit="10" d="M122.6 70.4l-.1 15c0 1.3-.5 2.6-1.3 3.5-1.3 1.3-2.4 1-3.3.2-1-.8-1.5-2.2-1.6-3.6l-.4-15 6.7-.1z"/>
    <path fill="#F7D2A0" stroke="#F7D2A0" stroke-width=".19" stroke-miterlimit="10" d="M128.6 20.7c.1 4.2-3.1 7.7-7.2 7.8s-7.5-3.2-7.6-7.4 3.1-7.7 7.2-7.8c4.1-.2 7.5 3.2 7.6 7.4z"/>
    <path fill="#7E431D" d="M128.2 18.3v-3.5c-.4-3.5-6-2.6-6-2.6-2.6-2-4.7-1-5.9-.1-.1.1-.2.1-.2.2-1.5.9-2.4 2.8-2.4 4.8 0 .6.4 1.5.4 1.5l1-1.9s2 .7 3.2-.5c0 0 4.6 2.4 9.2 1.2l.7.9z"/>
    <path fill="#6D6E71" stroke="#000" stroke-width=".09" stroke-miterlimit="10" d="M123.2 47.4c1-1.8-1.2-4.4-1.2-4.4-8.9-1-3.9-14-3.9-14s-3.9 13.9 4.5 12.9c0 0 6.4-.9 3-13.1 0 0 4.7 10.9-2.3 13.9 0 0 1.5 6-.7 6.1l.6-1.4"/>
    <path fill="#414042" stroke="#414042" stroke-width=".09" stroke-miterlimit="10" d="M124.7 48c.1.5-.2 1.1-.8 1.3-.6.2-1.2-.1-1.3-.7s.2-1.1.8-1.3c.5-.1 1.1.2 1.3.7z"/>
    <path stroke="#000" stroke-width=".09" stroke-miterlimit="10" d="M124.1 48.2c.1.3-.1.6-.4.7-.3.1-.6-.1-.7-.4s.1-.6.4-.7c.4-.1.7.1.7.4z"/>
    <path fill="#A5D9C9" stroke="#A5D9C9" stroke-width=".19" stroke-miterlimit="10" d="M160.1 70.9l17.1-.4s-.4-11-1.4-20.9c0-.3-.2-1.4 0-1.7.5-.7 1.9-7.3 5.8 3.8.3.9 1.4 1.2 2.3 1.3 1.3.2 2.9-.4 2.6-3.9-.1-.8-.3-1.5-.5-2.3-1.3-3.8-4-18.1-16.3-17.8 0 0-.1 3.6-3.1 8.5-3.3-4.7-4.3-8.1-4.3-8.1-12.4.6-13.8 14.7-14.9 18.5-.2.8-.4 1.5-.4 2.3-.1 3.4 1.5 3.9 2.8 3.7.9-.2 2.1-.5 2.3-1.4 1.5-7.4 3.3-6.9 4.5-5.6.7.7 1.2 2.2 1.3 3.2l.1 1.2 2.1 19.6z"/>
    <path stroke="#000" stroke-width=".1" stroke-miterlimit="10" d="M177.2 70.5l.4 15c0 1.4-.5 2.7-1.4 3.6-.8.8-2 1.2-3.3-.1-.9-.9-1.4-2.1-1.5-3.4l-.8-15 6.6-.1z"/>
    <path stroke="#000" stroke-width=".1" stroke-miterlimit="10" d="M166.7 70.7l-.1 15c0 1.3-.5 2.6-1.3 3.5-1.3 1.3-2.4 1-3.3.2-1-.8-1.5-2.2-1.6-3.6l-.4-15 6.7-.1z"/>
    <path fill="#F7D2A0" stroke="#F7D2A0" stroke-width=".19" stroke-miterlimit="10" d="M172.8 21.1c.1 4.2-3.1 7.7-7.2 7.8-4.1.1-7.5-3.2-7.6-7.4s3.1-7.7 7.2-7.8c4.1-.2 7.5 3.1 7.6 7.4z"/>
    <path fill="#7E431D" d="M172.4 18.7v-3.5c-.4-3.5-6-2.6-6-2.6-2.6-2-4.7-1-5.9-.1-.1.1-.2.1-.2.2-1.5.9-2.4 2.8-2.4 4.8 0 .6.4 1.5.4 1.5l1-1.9s2 .7 3.2-.5c0 0 4.6 2.4 9.2 1.2l.7.9z"/>
    <path fill="#6D6E71" stroke="#000" stroke-width=".09" stroke-miterlimit="10" d="M167.3 47.7c1-1.8-1.2-4.4-1.2-4.4-8.9-1-3.9-14-3.9-14s-3.9 13.9 4.5 12.9c0 0 6.4-.9 3-13.1 0 0 4.7 10.9-2.3 13.9 0 0 1.5 6-.7 6.1l.6-1.4"/>
    <path fill="#414042" stroke="#414042" stroke-width=".09" stroke-miterlimit="10" d="M168.9 48.4c.1.5-.2 1.1-.8 1.3s-1.2-.1-1.3-.7c-.1-.5.2-1.1.8-1.3s1.1.2 1.3.7z"/>
    <path stroke="#000" stroke-width=".09" stroke-miterlimit="10" d="M168.3 48.6c.1.3-.1.6-.4.7s-.6-.1-.7-.4c-.1-.3.1-.6.4-.7s.7.1.7.4z"/>
    <path fill="#A5D9C9" stroke="#A5D9C9" stroke-width=".19" stroke-miterlimit="10" d="M205.9 71.9l17.1-.4s-.4-11-1.4-20.9c0-.3-.2-1.4 0-1.7.5-.7 1.9-7.3 5.8 3.8.3.9 1.4 1.2 2.3 1.3 1.3.2 2.9-.4 2.6-3.9-.1-.8-.3-1.5-.5-2.3-1.3-3.8-4-18.1-16.3-17.8 0 0-.1 3.6-3.1 8.5-3.3-4.7-4.3-8.1-4.3-8.1-12.4.6-13.8 14.7-14.9 18.5-.2.8-.4 1.5-.4 2.3-.1 3.4 1.5 3.9 2.8 3.7.9-.2 2.1-.5 2.3-1.4 1.5-7.4 3.3-6.9 4.5-5.6.7.7 1.2 2.2 1.3 3.2l.1 1.2 2.1 19.6z"/>
    <path stroke="#000" stroke-width=".1" stroke-miterlimit="10" d="M223 71.5l.4 15c0 1.4-.5 2.7-1.4 3.6-.8.8-2 1.2-3.3-.1-.9-.9-1.4-2.1-1.5-3.4l-.8-15 6.6-.1z"/>
    <path stroke="#000" stroke-width=".1" stroke-miterlimit="10" d="M212.5 71.7l-.1 15c0 1.3-.5 2.6-1.3 3.5-1.3 1.3-2.4 1-3.3.2-1-.8-1.5-2.2-1.6-3.6l-.4-15 6.7-.1z"/>
    <path fill="#F7D2A0" stroke="#F7D2A0" stroke-width=".19" stroke-miterlimit="10" d="M218.6 22.1c.1 4.2-3.1 7.7-7.2 7.8-4.1.1-7.5-3.2-7.6-7.4-.1-4.2 3.1-7.7 7.2-7.8 4.1-.2 7.5 3.1 7.6 7.4z"/>
    <path fill="#7E431D" d="M218.2 19.7v-3.5c-.4-3.5-6-2.6-6-2.6-2.6-2-4.7-1-5.9-.1-.1.1-.2.1-.2.2-1.5.9-2.4 2.8-2.4 4.8 0 .6.4 1.5.4 1.5l1-1.9s2 .7 3.2-.5c0 0 4.6 2.4 9.2 1.2l.7.9z"/>
    <path fill="#6D6E71" stroke="#000" stroke-width=".09" stroke-miterlimit="10" d="M213.1 48.7c1-1.8-1.2-4.4-1.2-4.4-8.9-1-3.9-14-3.9-14s-3.9 13.9 4.5 12.9c0 0 6.4-.9 3-13.1 0 0 4.7 10.9-2.3 13.9 0 0 1.5 6-.7 6.1l.6-1.4"/>
    <path fill="#414042" stroke="#414042" stroke-width=".09" stroke-miterlimit="10" d="M214.7 49.4c.1.5-.2 1.1-.8 1.3-.6.2-1.2-.1-1.3-.7s.2-1.1.8-1.3 1.1.2 1.3.7z"/>
    <path stroke="#000" stroke-width=".09" stroke-miterlimit="10" d="M214.1 49.6c.1.3-.1.6-.4.7s-.6-.1-.7-.4c-.1-.3.1-.6.4-.7.3-.1.6.1.7.4z"/>
    <path fill="#A5D9C9" stroke="#A5D9C9" stroke-width=".19" stroke-miterlimit="10" d="M251.2 72.7l17.1-.4s-.4-11-1.4-20.9c0-.3-.2-1.4 0-1.7.5-.7 1.9-7.3 5.8 3.8.3.9 1.4 1.2 2.3 1.3 1.3.2 2.9-.4 2.6-3.9-.1-.8-.3-1.5-.5-2.3-1.3-3.8-4-18.1-16.3-17.8 0 0-.1 3.6-3.1 8.5-3.3-4.7-4.3-8.1-4.3-8.1-12.4.6-13.8 14.7-14.9 18.5-.2.8-.4 1.5-.4 2.3-.1 3.4 1.5 3.9 2.8 3.7.9-.2 2.1-.5 2.3-1.4 1.5-7.4 3.3-6.9 4.5-5.6.7.7 1.2 2.2 1.3 3.2l.1 1.2 2.1 19.6z"/>
    <path stroke="#000" stroke-width=".1" stroke-miterlimit="10" d="M268.4 72.3l.4 15c0 1.4-.5 2.7-1.4 3.6-.8.8-2 1.2-3.3-.1-.9-.9-1.4-2.1-1.5-3.4l-.8-15 6.6-.1z"/>
    <path stroke="#000" stroke-width=".1" stroke-miterlimit="10" d="M257.9 72.6l-.1 15c0 1.3-.5 2.6-1.3 3.5-1.3 1.3-2.4 1-3.3.2-1-.8-1.5-2.2-1.6-3.6l-.4-15 6.7-.1z"/>
    <path fill="#F7D2A0" stroke="#F7D2A0" stroke-width=".19" stroke-miterlimit="10" d="M264 22.9c.1 4.2-3.1 7.7-7.2 7.8-4.1.1-7.5-3.2-7.6-7.4-.1-4.2 3.1-7.7 7.2-7.8s7.5 3.2 7.6 7.4z"/>
    <path fill="#7E431D" d="M263.6 20.5V17c-.4-3.5-6-2.6-6-2.6-2.6-2-4.7-1-5.9-.1-.1.1-.2.1-.2.2-1.5.9-2.4 2.8-2.4 4.8 0 .6.4 1.5.4 1.5l1-1.9s2 .7 3.2-.5c0 0 4.6 2.4 9.2 1.2l.7.9z"/>
    <path fill="#6D6E71" stroke="#000" stroke-width=".09" stroke-miterlimit="10" d="M258.5 49.6c1-1.8-1.2-4.4-1.2-4.4-8.9-1-3.9-14-3.9-14s-3.9 13.9 4.5 12.9c0 0 6.4-.9 3-13.1 0 0 4.7 10.9-2.3 13.9 0 0 1.5 6-.7 6.1l.6-1.4"/>
    <path fill="#414042" stroke="#414042" stroke-width=".09" stroke-miterlimit="10" d="M260 50.2c.1.5-.2 1.1-.8 1.3-.6.2-1.2-.1-1.3-.7s.2-1.1.8-1.3 1.2.2 1.3.7z"/>
    <path stroke="#000" stroke-width=".09" stroke-miterlimit="10" d="M259.5 50.4c.1.3-.1.6-.4.7-.3.1-.6-.1-.7-.4-.1-.3.1-.6.4-.7.3-.1.6.1.7.4z"/>
    <path fill="#A5D9C9" stroke="#A5D9C9" stroke-width=".19" stroke-miterlimit="10" d="M297.7 70.4l17.1-.4s-.4-11-1.4-20.9c0-.3-.2-1.4 0-1.7.5-.7 1.9-7.3 5.8 3.8.3.9 1.4 1.2 2.3 1.3 1.3.2 2.9-.4 2.6-3.9-.1-.8-.3-1.5-.5-2.3-1.3-3.8-4-18.1-16.3-17.8 0 0-.1 3.6-3.1 8.5-3.3-4.7-4.3-8.1-4.3-8.1-12.4.6-13.8 14.7-14.9 18.5-.2.8-.4 1.5-.4 2.3-.1 3.4 1.5 3.9 2.8 3.7.9-.2 2.1-.5 2.3-1.4 1.5-7.4 3.3-6.9 4.5-5.6.7.7 1.2 2.2 1.3 3.2l.1 1.2 2.1 19.6z"/>
    <path stroke="#000" stroke-width=".1" stroke-miterlimit="10" d="M314.8 70l.4 15c0 1.4-.5 2.7-1.4 3.6-.8.8-2 1.2-3.3-.1-.9-.9-1.4-2.1-1.5-3.4l-.8-15 6.6-.1z"/>
    <path stroke="#000" stroke-width=".1" stroke-miterlimit="10" d="M304.3 70.3l-.1 15c0 1.3-.5 2.6-1.3 3.5-1.3 1.3-2.4 1-3.3.2-1-.8-1.5-2.2-1.6-3.6l-.4-15 6.7-.1z"/>
    <path fill="#F7D2A0" stroke="#F7D2A0" stroke-width=".19" stroke-miterlimit="10" d="M310.4 20.6c.1 4.2-3.1 7.7-7.2 7.8-4.1.1-7.5-3.2-7.6-7.4-.1-4.2 3.1-7.7 7.2-7.8s7.5 3.2 7.6 7.4z"/>
    <path fill="#7E431D" d="M310 18.2v-3.5c-.4-3.5-6-2.6-6-2.6-2.6-2-4.7-1-5.9-.1-.1.1-.2.1-.2.2-1.5.9-2.4 2.8-2.4 4.8 0 .6.4 1.5.4 1.5l1-1.9s2 .7 3.2-.5c0 0 4.6 2.4 9.2 1.2l.7.9z"/>
    <path fill="#6D6E71" stroke="#000" stroke-width=".09" stroke-miterlimit="10" d="M304.9 47.3c1-1.8-1.2-4.4-1.2-4.4-8.9-1-3.9-14-3.9-14s-3.9 13.9 4.5 12.9c0 0 6.4-.9 3-13.1 0 0 4.7 10.9-2.3 13.9 0 0 1.5 6-.7 6.1l.6-1.4"/>
    <path fill="#414042" stroke="#414042" stroke-width=".09" stroke-miterlimit="10" d="M306.5 47.9c.1.5-.2 1.1-.8 1.3-.6.2-1.2-.1-1.3-.7-.1-.5.2-1.1.8-1.3.5-.1 1.1.2 1.3.7z"/>
    <path stroke="#000" stroke-width=".09" stroke-miterlimit="10" d="M305.9 48.1c.1.3-.1.6-.4.7-.3.1-.6-.1-.7-.4-.1-.3.1-.6.4-.7.3-.1.6.1.7.4z"/>
    <path fill="#A5D9C9" stroke="#A5D9C9" stroke-width=".19" stroke-miterlimit="10" d="M341.9 70.8l17.1-.4s-.4-11-1.4-20.9c0-.3-.2-1.4 0-1.7.5-.7 1.9-7.3 5.8 3.8.3.9 1.4 1.2 2.3 1.3 1.3.2 2.9-.4 2.6-3.9-.1-.8-.3-1.5-.5-2.3-1.3-3.8-4-18.1-16.3-17.8 0 0-.1 3.6-3.1 8.5-3.3-4.7-4.3-8.1-4.3-8.1-12.4.6-13.8 14.7-14.9 18.5-.2.8-.4 1.5-.4 2.3-.1 3.4 1.5 3.9 2.8 3.7.9-.2 2.1-.5 2.3-1.4 1.5-7.4 3.3-6.9 4.5-5.6.7.7 1.2 2.2 1.3 3.2l.1 1.2 2.1 19.6z"/>
    <path stroke="#000" stroke-width=".1" stroke-miterlimit="10" d="M359 70.3l.4 15c0 1.4-.5 2.7-1.4 3.6-.8.8-2 1.2-3.3-.1-.9-.9-1.4-2.1-1.5-3.4l-.8-15 6.6-.1z"/>
    <path stroke="#000" stroke-width=".1" stroke-miterlimit="10" d="M348.5 70.6l-.1 15c0 1.3-.5 2.6-1.3 3.5-1.3 1.3-2.4 1-3.3.2-1-.8-1.5-2.2-1.6-3.6l-.4-15 6.7-.1z"/>
    <path fill="#F7D2A0" stroke="#F7D2A0" stroke-width=".19" stroke-miterlimit="10" d="M354.6 20.9c.1 4.2-3.1 7.7-7.2 7.8-4.1.1-7.5-3.2-7.6-7.4-.1-4.2 3.1-7.7 7.2-7.8s7.5 3.2 7.6 7.4z"/>
    <path fill="#7E431D" d="M354.2 18.6v-3.5c-.4-3.5-6-2.6-6-2.6-2.6-2-4.7-1-5.9-.1-.1.1-.2.1-.2.2-1.5.9-2.4 2.8-2.4 4.8 0 .6.4 1.5.4 1.5l1-1.9s2 .7 3.2-.5c0 0 4.6 2.4 9.2 1.2l.7.9z"/>
    <path fill="#6D6E71" stroke="#000" stroke-width=".09" stroke-miterlimit="10" d="M349.1 47.6c1-1.8-1.2-4.4-1.2-4.4-8.9-1-3.9-14-3.9-14s-3.9 13.9 4.5 12.9c0 0 6.4-.9 3-13.1 0 0 4.7 10.9-2.3 13.9 0 0 1.5 6-.7 6.1l.6-1.4"/>
    <path fill="#414042" stroke="#414042" stroke-width=".09" stroke-miterlimit="10" d="M350.7 48.3c.1.5-.2 1.1-.8 1.3-.6.2-1.2-.1-1.3-.7s.2-1.1.8-1.3 1.1.2 1.3.7z"/>
    <path stroke="#000" stroke-width=".09" stroke-miterlimit="10" d="M350.1 48.4c.1.3-.1.6-.4.7-.3.1-.6-.1-.7-.4-.1-.3.1-.6.4-.7.3 0 .6.1.7.4z"/>
  </g>
  <g id="money">
    <path fill="#50B848" stroke="#50B848" stroke-width=".08" stroke-miterlimit="10" d="M206 148.4s-6 1.3-8.9 7.5c-2.9 6.1 1.2 12.1 1.2 12.1s7.5 8.6 16.9 4c0 0 3.7-4.8 3-8.8-.4-2.3-.3-5.6-.2-7.3.1-1.4-.2-2.8-1-3.9-.8-1.2-2.1-2.3-4.4-2.3 0 0-1.4.1-2.8-1 0 0-1.6.7-3.8-.3z"/>
    <path fill="#629444" stroke="#629444" stroke-width=".08" stroke-miterlimit="10" d="M205.1 138.6l3.4 1.6s2.2-.5.5-2.3c-1.8-1.9-3.9.7-3.9.7z"/>
    <path fill="#629444" stroke="#629444" stroke-width=".08" stroke-miterlimit="10" d="M207.4 139.7l3.4 1.6s2.8-.5 1.1-2.4c-1.8-1.8-4.5.8-4.5.8z"/>
    <path fill="#50B848" stroke="#50B848" stroke-width=".08" stroke-miterlimit="10" d="M205.6 148.6c1.6-1.7-.7-9.9-.7-9.9l6.1 2.6s-2.1 4.2-1.2 7.5"/>
    <path d="M213 163.5c.1 1.3-.3 2.3-1.2 3.1-.8.8-1.8 1.2-3.1 1.3l.1 1.3-.9.1-.1-1.4c-.3 0-.8-.1-1.5-.4-.7-.2-1.1-.3-1.2-.3-.3 0-.6.3-.6.8h-.6l-.9-5h.7c1 2.4 2.4 3.7 4.2 3.8l-.3-6c-1.4-.7-2.3-1.3-2.8-1.7-.9-.8-1.4-1.8-1.5-2.8v-.1c-.1-1.1.3-2.1 1-2.9.7-.8 1.6-1.2 2.8-1.3l-.1-1.4.9-.1.1 1.5 1.1.3c.5.1.9.2 1.1.2.4 0 .7-.3.8-.8h.6l.7 5h-.6c-.9-2.3-2.2-3.6-3.7-3.7l.3 5.2c1.6.9 2.7 1.6 3.2 2 .9 1 1.4 2.1 1.5 3.3zm-6-10.4c-.5.1-1 .4-1.3.8-.4.4-.5.9-.5 1.4 0 .8.7 1.6 2 2.4l-.2-4.6zm3.7 11.2c-.1-1-.8-2-2.3-2.8l.3 5.5c.7-.1 1.2-.4 1.5-.9.4-.6.5-1.2.5-1.8z"/>
    <path fill="#50B848" stroke="#50B848" stroke-width=".08" stroke-miterlimit="10" d="M206 148.4l-.1.9 3 .2 1.2-.4-.3-.4"/>
    <path fill="#50B848" stroke="#50B848" stroke-width=".07" stroke-miterlimit="10" d="M221.2 151.3s-5.1 1.1-7.6 6.4c-2.5 5.2 1 10.3 1 10.3s6.4 7.3 14.4 3.4c0 0 3.1-4.1 2.6-7.5-.3-2-.2-4.8-.1-6.2.1-1.2-.2-2.4-.9-3.4s-1.8-2-3.7-2c0 0-1.2.1-2.4-.9 0 .1-1.4.7-3.3-.1z"/>
    <path fill="#629444" stroke="#629444" stroke-width=".07" stroke-miterlimit="10" d="M220.4 142.9l2.9 1.3s1.9-.4.4-2-3.3.7-3.3.7z"/>
    <path fill="#629444" stroke="#629444" stroke-width=".07" stroke-miterlimit="10" d="M222.5 143.8l2.9 1.3s2.4-.4.9-2-3.8.7-3.8.7z"/>
    <path fill="#50B848" stroke="#50B848" stroke-width=".07" stroke-miterlimit="10" d="M221 151.4c1.4-1.5-.6-8.5-.6-8.5l5.2 2.2s-1.8 3.6-1.1 6.4"/>
    <path d="M227.3 164.2c.1 1.1-.3 2-1.1 2.7-.7.6-1.6 1-2.6 1.1l.1 1.1h-.8l-.1-1.2c-.3 0-.7-.1-1.3-.3-.6-.2-.9-.3-1-.3-.3 0-.5.2-.5.7h-.5l-.8-4.3h.6c.8 2 2 3.1 3.6 3.2l-.3-5.2c-1.2-.6-2-1.1-2.4-1.5-.8-.7-1.2-1.5-1.3-2.4v-.1c-.1-1 .2-1.8.9-2.5.6-.7 1.4-1.1 2.4-1.1l-.1-1.2h.8l.1 1.3 1 .3c.4.1.7.2 1 .2.3 0 .6-.2.7-.7h.5l.6 4.3h-.5c-.8-2-1.9-3.1-3.2-3.2l.2 4.5c1.4.8 2.3 1.3 2.7 1.7.7.9 1.2 1.8 1.3 2.9zm-5.2-8.9c-.4.1-.8.3-1.1.6-.3.4-.5.8-.4 1.2 0 .7.6 1.4 1.8 2.1l-.3-3.9zm3.2 9.5c0-.9-.7-1.7-2-2.4l.2 4.7c.6-.1 1-.4 1.3-.8.4-.4.5-.9.5-1.5z"/>
    <path fill="#50B848" stroke="#50B848" stroke-width=".07" stroke-miterlimit="10" d="M221.2 151.3v.7l2.6.2 1-.3-.3-.4"/>
    <path fill="#50B848" stroke="#50B848" stroke-width=".05" stroke-miterlimit="10" d="M235 154.9s-4 .9-6 5 .8 8.1.8 8.1 5.1 5.8 11.4 2.7c0 0 2.5-3.2 2-5.9-.2-1.6-.2-3.8-.1-4.9 0-.9-.2-1.9-.7-2.6-.5-.8-1.4-1.5-2.9-1.6 0 0-.9.1-1.9-.7 0 0-1.1.6-2.6-.1z"/>
    <path fill="#629444" stroke="#629444" stroke-width=".05" stroke-miterlimit="10" d="M234.3 148.3l2.3 1.1s1.5-.3.3-1.6-2.6.5-2.6.5z"/>
    <path fill="#629444" stroke="#629444" stroke-width=".05" stroke-miterlimit="10" d="M235.9 149l2.3 1.1s1.9-.4.7-1.6c-1.1-1.3-3 .5-3 .5z"/>
    <path fill="#50B848" stroke="#50B848" stroke-width=".05" stroke-miterlimit="10" d="M234.8 155c1.1-1.2-.5-6.7-.5-6.7l4.1 1.7s-1.4 2.9-.8 5"/>
    <path d="M239.7 165.1c0 .8-.2 1.5-.8 2.1-.5.5-1.2.8-2.1.9v.9h-.6v-.9c-.2 0-.6-.1-1-.2-.5-.1-.7-.2-.8-.2-.2 0-.4.2-.4.5h-.4l-.6-3.3h.5c.7 1.6 1.6 2.5 2.8 2.6l-.2-4.1c-.9-.5-1.5-.9-1.9-1.2-.6-.5-1-1.2-1-1.9v-.1c0-.8.2-1.4.7-2 .5-.5 1.1-.8 1.9-.9v-.9h.6l.1 1s.3.1.8.2c.3.1.6.1.8.1.3 0 .5-.2.6-.5h.4l.5 3.4h-.4c-.6-1.6-1.5-2.4-2.5-2.5l.2 3.5c1.1.6 1.8 1.1 2.1 1.3.3.6.7 1.4.7 2.2zm-4-7c-.3.1-.6.2-.9.5-.2.3-.4.6-.3 1 0 .5.5 1.1 1.4 1.6l-.2-3.1zm2.5 7.5c0-.7-.6-1.3-1.6-1.9l.2 3.7c.4-.1.8-.3 1-.6.3-.4.4-.8.4-1.2z"/>
    <path fill="#50B848" stroke="#50B848" stroke-width=".05" stroke-miterlimit="10" d="M235 154.9l-.1.6 2.1.1.8-.2-.2-.4"/>
  </g>
  <g fill="#C82D38">
    <path d="M305.3 160.9l6.8-14.7-.1-.1c-1 1-1.9 1.4-3.4 1.4-5.3 0-5.9-6-5.9-10.2 0-5.4.4-12 7.3-12 6.9 0 7.4 6.4 7.4 11.9 0 7.7-1.9 12.6-5.1 19.4l-2 4.2h-5zm7.5-24.5c0-2 0-6.8-2.8-6.8-2.7 0-2.7 5.1-2.7 7.1s0 6.7 2.7 6.7c2.9 0 2.8-5 2.8-7z"/>
    <path d="M330.9 133.7c0 3.3-.4 8.3-4.8 8.3s-4.8-5-4.8-8.3c0-3.4.4-8.3 4.8-8.3s4.8 4.9 4.8 8.3zm10.8-7.9l-16.9 35.1H322l16.9-35.1h2.8zm-13.8 7.9c0-1.2.2-5.5-1.8-5.5s-1.8 4.4-1.8 5.5c0 1.2-.2 5.5 1.8 5.5 2 .1 1.8-4.3 1.8-5.5zm14.5 19.3c0 3.3-.4 8.3-4.8 8.3-4.5 0-4.8-5-4.8-8.3 0-3.4.4-8.3 4.8-8.3 4.5 0 4.8 4.9 4.8 8.3zm-6.6-.1c0 1.2-.2 5.6 1.8 5.6s1.8-4.4 1.8-5.6c0-1.2.2-5.5-1.8-5.5-2 .1-1.8 4.4-1.8 5.5z"/>
  </g>
  <g id="males">
    <path fill="#C82D38" d="M35 122.1v-1.7h.2c1.5 0 1.9-.6 1.9-2.1 0-.7 0-2.3-1.1-2.3-.9 0-1.1 1.1-1.1 1.8v.4h-1.7v-.1c0-2.1.3-3.8 2.8-3.8 2.3 0 2.8 1.6 2.8 3.6 0 1.3-.1 2.9-1.5 3.3 1.5.4 1.7 1.9 1.7 3.2 0 2.3-.7 4.1-3.1 4.1-2.1 0-2.9-1.2-2.9-3.3v-.2h1.7v.4c0 .8.3 1.6 1.1 1.6 1.3 0 1.3-1.7 1.3-2.6 0-1.2-.2-2.4-1.6-2.3H35z"/>
    <path fill="#C82D38" d="M42.5 122.1v-1.7h.2c1.5 0 1.9-.6 1.9-2.1 0-.7 0-2.3-1.1-2.3-.9 0-1.1 1.1-1.1 1.8v.4h-1.7v-.1c0-2.1.3-3.8 2.8-3.8 2.3 0 2.8 1.6 2.8 3.6 0 1.3-.1 2.9-1.5 3.3 1.5.4 1.7 1.9 1.7 3.2 0 2.3-.7 4.1-3.1 4.1-2.1 0-2.9-1.2-2.9-3.3v-.2h1.7v.4c0 .8.3 1.6 1.1 1.6 1.3 0 1.3-1.7 1.3-2.6 0-1.2-.2-2.4-1.6-2.3h-.5z"/>
    <path fill="#C82D38" d="M54 121.5c0 2.2.2 7.2-3.1 7.2-3.3 0-3.1-5-3.1-7.2s-.2-7.2 3.1-7.2c3.3.1 3.1 5 3.1 7.2zm-3.1-5.5c-1.3 0-1.3 2.6-1.3 5.5s.1 5.5 1.3 5.5c1.3 0 1.3-2.6 1.3-5.5s-.1-5.5-1.3-5.5z"/>
    <path fill="#C82D38" d="M57.5 127l-1.8 4.9-.9-.3 1.2-5.1 1.5.5z"/>
    <path fill="#C82D38" d="M65.2 121.5c0 2.2.2 7.2-3.1 7.2-3.3 0-3.1-5-3.1-7.2s-.2-7.2 3.1-7.2c3.2.1 3.1 5 3.1 7.2zm-3.1-5.5c-1.3 0-1.3 2.6-1.3 5.5s.1 5.5 1.3 5.5c1.3 0 1.3-2.6 1.3-5.5s-.1-5.5-1.3-5.5z"/>
    <path fill="#C82D38" d="M72.6 121.5c0 2.2.2 7.2-3.1 7.2-3.3 0-3.1-5-3.1-7.2s-.2-7.2 3.1-7.2c3.3.1 3.1 5 3.1 7.2zm-3.1-5.5c-1.3 0-1.3 2.6-1.3 5.5s.1 5.5 1.3 5.5c1.3 0 1.3-2.6 1.3-5.5.1-2.9 0-5.5-1.3-5.5z"/>
    <path fill="#C82D38" d="M80.1 121.5c0 2.2.2 7.2-3.1 7.2-3.3 0-3.1-5-3.1-7.2s-.2-7.2 3.1-7.2c3.2.1 3.1 5 3.1 7.2zM77 116c-1.3 0-1.3 2.6-1.3 5.5s.1 5.5 1.3 5.5c1.3 0 1.3-2.6 1.3-5.5s-.1-5.5-1.3-5.5z"/>
    <path d="M86.9 120.3c.4-.8 1-1.3 1.8-1.3s1.5.5 1.6 1.3c.4-.8 1-1.3 1.9-1.3 1.6 0 2 1 2 2.3v7.3h-1.7V122c0-.7-.1-1.4-.9-1.4-1.2 0-1.1 1.2-1.1 2v6h-1.7v-6.4c0-.7 0-1.6-1-1.6-1.1 0-1 1.2-1 2v6h-1.7v-9.4h1.7v1.1z"/>
    <path d="M99.5 127.3c-.4.8-.7 1.4-1.7 1.4-2.1 0-2.2-3.4-2.2-5s.1-4.7 2.2-4.7c.8 0 1.3.5 1.6 1.2v-1h1.7v9.4h-1.7v-1.3zm0-3.5c0-.7.1-3.3-1.1-3.3-1.3 0-1.1 2.5-1.1 3.3 0 .8-.1 3.3 1.1 3.3 1.2 0 1.1-2.5 1.1-3.3z"/>
    <path d="M104.5 128.5h-1.7v-15.4h1.7v15.4z"/>
    <path d="M107.5 124.2c0 .8 0 2.9 1.1 2.9.9 0 1.1-1 1.1-1.7h1.6c0 1.7-.7 3.3-2.7 3.3-2.6 0-2.8-2.8-2.8-4.8 0-1.9.2-4.9 2.7-4.9s2.8 3 2.8 4.9v.3h-3.8zm2-1.3c0-.7 0-2.4-1-2.4-1.1 0-1 1.7-1 2.4h2z"/>
    <path d="M116 121.1c-.3-.3-.9-.5-1.3-.5-.6 0-1.2.4-1.2 1 0 1.6 2.9 1.7 2.9 4.3 0 1.7-1 2.8-2.6 2.8-.6 0-1-.1-1.5-.4v-1.7c.4.4.8.6 1.4.6.7 0 1.1-.5 1.1-1.2 0-1.7-2.9-1.8-2.9-4.4 0-1.5 1-2.6 2.4-2.6.6 0 1.1.1 1.5.4v1.7z"/>
  </g>
  <g id="age">
    <path d="M169.2 114.5l1.9 10.1.1-.6.5-3.4 1.2-6.2h1.6l1.3 14H174l-.3-5.2-.1-2.6v-1.8l-.3 2-1.4 7.7h-1.3l-1.8-9.7-.5 9.7h-1.7l1.1-14h1.5z"/>
    <path d="M178.6 124.2c0 .8 0 2.9 1.1 2.9.9 0 1.1-1 1.1-1.7h1.6c0 1.7-.7 3.3-2.7 3.3-2.6 0-2.8-2.8-2.8-4.8 0-1.9.2-4.9 2.7-4.9s2.8 3 2.8 4.9v.3h-3.8zm2-1.3c0-.7 0-2.4-1-2.4-1.1 0-1 1.7-1 2.4h2z"/>
    <path d="M187.2 127.3c-.4.8-.8 1.4-1.7 1.4-2.1 0-2.2-3.4-2.2-5s.1-4.7 2.2-4.7c.9 0 1.3.5 1.6 1.2v-7.1h1.7v15.4h-1.7v-1.2zm.1-3.5c0-.7.1-3.3-1.1-3.3-1.3 0-1.1 2.5-1.1 3.3 0 .8-.1 3.3 1.1 3.3 1.2 0 1.1-2.5 1.1-3.3z"/>
    <path d="M190.2 116.3c0-.6.5-1.2 1.1-1.2.6 0 1.1.5 1.1 1.2s-.5 1.2-1.1 1.2c-.6 0-1.1-.5-1.1-1.2zm2 12.2h-1.7v-9.4h1.7v9.4z"/>
    <path d="M197.4 127.3c-.4.8-.7 1.4-1.7 1.4-2.1 0-2.2-3.4-2.2-5s.1-4.7 2.2-4.7c.8 0 1.3.5 1.6 1.2v-1h1.7v9.4h-1.7v-1.3zm.1-3.5c0-.7.1-3.3-1.1-3.3-1.3 0-1.1 2.5-1.1 3.3 0 .8-.1 3.3 1.1 3.3 1.1 0 1.1-2.5 1.1-3.3z"/>
    <path d="M202.4 120.2c.4-.8 1-1.2 1.9-1.2 1.8 0 1.9 1.7 1.9 3.1v6.5h-1.7v-6.5c0-.7-.1-1.5-1-1.5-1.1 0-1 1.3-1 2.1v5.9h-1.7v-9.4h1.7v1z"/>
    <path d="M215 127.3c-.4.8-.7 1.4-1.7 1.4-2.1 0-2.2-3.4-2.2-5s.1-4.7 2.2-4.7c.8 0 1.3.5 1.6 1.2v-1h1.7v9.4H215v-1.3zm.1-3.5c0-.7.1-3.3-1.1-3.3-1.3 0-1.1 2.5-1.1 3.3 0 .8-.1 3.3 1.1 3.3 1.2 0 1.1-2.5 1.1-3.3z"/>
    <path d="M223.7 128.6c0 3.3-1 3.9-2.8 3.9-1.6 0-2.7-1-2.7-2.7v-.3h1.6c0 .7.2 1.4 1.1 1.4 1.1 0 1-1.1 1-2v-1.6c-.2.8-.8 1.3-1.6 1.3-2.2 0-2.2-3.2-2.2-4.8 0-1.5 0-4.9 2.2-4.9.9 0 1.3.5 1.7 1.3v-1.1h1.7v9.5zm-2.8-8c-1.2 0-1.1 2.6-1.1 3.2 0 .7-.1 3.3 1.1 3.3 1.2 0 1.1-2.5 1.1-3.2 0-.8 0-3.3-1.1-3.3z"/>
    <path d="M226.7 124.2c0 .8 0 2.9 1.1 2.9.9 0 1.1-1 1.1-1.7h1.6c0 1.7-.7 3.3-2.7 3.3-2.6 0-2.8-2.8-2.8-4.8 0-1.9.2-4.9 2.7-4.9s2.8 3 2.8 4.9v.3h-3.8zm2-1.3c0-.7 0-2.4-1-2.4-1.1 0-1 1.7-1 2.4h2z"/>
    <path d="M231.8 120.1c0-.6.5-1.1 1.1-1.1s1.1.5 1.1 1.1c0 .6-.5 1.1-1.1 1.1s-1.1-.4-1.1-1.1zm0 7.5c0-.6.5-1.1 1.1-1.1s1.1.5 1.1 1.1c0 .6-.5 1.1-1.1 1.1s-1.1-.5-1.1-1.1z"/>
    <path fill="#C82D38" d="M241.2 122.1v-1.7h.2c1.5 0 1.9-.6 1.9-2.1 0-.7 0-2.3-1.1-2.3-.9 0-1.1 1.1-1.1 1.8v.4h-1.7v-.1c0-2.1.3-3.8 2.8-3.8 2.3 0 2.8 1.6 2.8 3.6 0 1.3-.1 2.9-1.5 3.3 1.5.4 1.7 1.9 1.7 3.2 0 2.3-.7 4.1-3.1 4.1-2.1 0-2.9-1.2-2.9-3.3v-.2h1.7v.4c0 .8.3 1.6 1.1 1.6 1.3 0 1.3-1.7 1.3-2.6 0-1.2-.2-2.4-1.6-2.3h-.5z"/>
    <path fill="#C82D38" d="M250.5 114.5v14h-1.8v-12.4h-1.3v-1.6h3.1z"/>
  </g>
  <g id="earnings">
    <path d="M33.8 151.7l1.9 10.1.1-.6.5-3.4 1.2-6.2h1.6l1.3 14h-1.8l-.3-5.2-.1-2.6V156l-.3 2-1.4 7.7h-1.3l-1.8-9.7-.5 9.7h-1.7l1.1-14h1.5z"/>
    <path d="M43.2 161.4c0 .8 0 2.9 1.1 2.9.9 0 1.1-1 1.1-1.7H47c0 1.7-.7 3.3-2.7 3.3-2.6 0-2.8-2.8-2.8-4.8 0-1.9.2-4.9 2.7-4.9s2.8 3 2.8 4.9v.3h-3.8zm2-1.2c0-.7 0-2.4-1-2.4-1.1 0-1 1.7-1 2.4h2z"/>
    <path d="M51.8 164.5c-.4.8-.8 1.4-1.7 1.4-2.1 0-2.2-3.4-2.2-5s.1-4.7 2.2-4.7c.9 0 1.3.5 1.6 1.2v-7.1h1.7v15.4h-1.7v-1.2zm.1-3.5c0-.7.1-3.3-1.1-3.3-1.3 0-1.1 2.5-1.1 3.3 0 .8-.1 3.3 1.1 3.3 1.2 0 1.1-2.5 1.1-3.3z"/>
    <path d="M54.8 153.5c0-.6.5-1.2 1.1-1.2.6 0 1.1.5 1.1 1.2s-.5 1.2-1.1 1.2c-.6 0-1.1-.5-1.1-1.2zm2 12.3h-1.7v-9.4h1.7v9.4z"/>
    <path d="M62 164.5c-.4.8-.7 1.4-1.7 1.4-2.1 0-2.2-3.4-2.2-5s.1-4.7 2.2-4.7c.8 0 1.3.5 1.6 1.2v-1h1.7v9.4H62v-1.3zm.1-3.5c0-.7.1-3.3-1.1-3.3-1.3 0-1.1 2.5-1.1 3.3 0 .8-.1 3.3 1.1 3.3 1.1 0 1.1-2.5 1.1-3.3z"/>
    <path d="M67 157.4c.4-.8 1-1.2 1.9-1.2 1.8 0 1.9 1.7 1.9 3.1v6.5H69v-6.5c0-.7-.1-1.5-1-1.5-1.1 0-1 1.3-1 2.1v5.9h-1.7v-9.4H67v1z"/>
    <path d="M77.5 161.4c0 .8 0 2.9 1.1 2.9.9 0 1.1-1 1.1-1.7h1.6c0 1.7-.7 3.3-2.7 3.3-2.6 0-2.8-2.8-2.8-4.8 0-1.9.2-4.9 2.7-4.9s2.8 3 2.8 4.9v.3h-3.8zm2-1.2c0-.7 0-2.4-1-2.4-1.1 0-1 1.7-1 2.4h2z"/>
    <path d="M86.2 164.5c-.4.8-.7 1.4-1.7 1.4-2.1 0-2.2-3.4-2.2-5s.1-4.7 2.2-4.7c.8 0 1.3.5 1.6 1.2v-1h1.7v9.4h-1.7v-1.3zm0-3.5c0-.7.1-3.3-1.1-3.3-1.3 0-1.1 2.5-1.1 3.3 0 .8-.1 3.3 1.1 3.3 1.2 0 1.1-2.5 1.1-3.3z"/>
    <path d="M91.2 157.5c.4-.8 1-1.3 2-1.3v1.7h-.3c-1.3 0-1.7.7-1.7 1.9v5.9h-1.7v-9.4h1.7v1.2z"/>
    <path d="M96 157.4c.4-.8 1-1.2 1.9-1.2 1.8 0 1.9 1.7 1.9 3.1v6.5h-1.7v-6.5c0-.7-.1-1.5-1-1.5-1.1 0-1 1.3-1 2.1v5.9h-1.7v-9.4H96v1z"/>
    <path d="M101.1 153.5c0-.6.5-1.2 1.1-1.2.6 0 1.1.5 1.1 1.2s-.5 1.2-1.1 1.2c-.6 0-1.1-.5-1.1-1.2zm2 12.3h-1.7v-9.4h1.7v9.4z"/>
    <path d="M106.3 157.4c.4-.8 1-1.2 1.9-1.2 1.8 0 1.9 1.7 1.9 3.1v6.5h-1.7v-6.5c0-.7-.1-1.5-1-1.5-1.1 0-1 1.3-1 2.1v5.9h-1.7v-9.4h1.7v1z"/>
    <path d="M117 165.8c0 3.3-1 3.9-2.8 3.9-1.6 0-2.7-1-2.7-2.7v-.3h1.6c0 .7.2 1.4 1.1 1.4 1.1 0 1-1.1 1-2v-1.6c-.2.8-.8 1.3-1.6 1.3-2.2 0-2.2-3.2-2.2-4.8 0-1.5 0-4.9 2.2-4.9.9 0 1.3.5 1.7 1.3v-1.1h1.7v9.5zm-2.8-8c-1.2 0-1.1 2.6-1.1 3.2 0 .7-.1 3.3 1.1 3.3 1.2 0 1.1-2.5 1.1-3.2 0-.8 0-3.3-1.1-3.3z"/>
    <path d="M122 158.3c-.3-.3-.9-.5-1.3-.5-.6 0-1.2.4-1.2 1 0 1.6 2.9 1.7 2.9 4.3 0 1.7-1 2.8-2.6 2.8-.6 0-1-.1-1.5-.4v-1.7c.4.4.8.6 1.4.6.7 0 1.1-.5 1.1-1.2 0-1.7-2.9-1.8-2.9-4.4 0-1.5 1-2.6 2.4-2.6.6 0 1.1.1 1.5.4v1.7z"/>
    <path d="M123.6 157.3c0-.6.5-1.1 1.1-1.1s1.1.5 1.1 1.1c0 .6-.5 1.1-1.1 1.1s-1.1-.4-1.1-1.1zm0 7.5c0-.6.5-1.1 1.1-1.1s1.1.5 1.1 1.1c0 .6-.5 1.1-1.1 1.1s-1.1-.5-1.1-1.1z"/>
    <path fill="#44A13F" stroke="#50B848" stroke-width=".08" stroke-miterlimit="10" d="M134.3 150.5v1.2c1.3.1 2.3.8 2.6 2.1l-1.4.9c-.1-.8-.8-1.4-1.6-1.4-1.1 0-1.5.8-1.5 1.8 0 1.5 1 2 2.2 2.8 1.7 1.1 2.5 1.7 2.5 3.9 0 2-.6 3.7-2.8 3.9v1.2h-.8v-1.2c-1.4-.1-2.2-.8-2.7-2.1l1.5-.7c.2.8.7 1.3 1.5 1.3 1.2 0 1.5-1 1.5-2.1 0-1.6-.7-1.9-1.9-2.6-1.8-1.2-2.8-2-2.8-4.3 0-1.8.9-3.3 2.8-3.5v-1.2h.9z"/>
    <path fill="#44A13F" stroke="#50B848" stroke-width=".08" stroke-miterlimit="10" d="M143.2 151.7l-2.7 6c.4-.4.8-.6 1.4-.6 2.3 0 2.4 2.7 2.4 4.4 0 2.2-.3 4.4-2.9 4.4-2.7 0-3-2.6-3-4.7 0-3.8 1.2-6.1 2.8-9.4h2zm-1.8 7.1c-.3 0-1.1-.1-1.1 2.7 0 .8 0 2.7 1.1 2.7 1 0 1.1-1.9 1.1-2.7 0-.8 0-2.7-1.1-2.7z"/>
    <path fill="#44A13F" stroke="#50B848" stroke-width=".08" stroke-miterlimit="10" d="M152 158.7c0 2.2.2 7.2-3.1 7.2-3.3 0-3.1-5-3.1-7.2s-.2-7.2 3.1-7.2c3.2.1 3.1 5 3.1 7.2zm-3.1-5.5c-1.3 0-1.3 2.6-1.3 5.5s.1 5.5 1.3 5.5c1.3 0 1.3-2.6 1.3-5.5s-.1-5.5-1.3-5.5z"/>
    <path fill="#44A13F" stroke="#50B848" stroke-width=".08" stroke-miterlimit="10" d="M155.4 164.2l-1.8 4.9-.9-.3 1.2-5.1 1.5.5z"/>
    <path fill="#44A13F" stroke="#50B848" stroke-width=".08" stroke-miterlimit="10" d="M163.1 151.7l-4.2 14h-2l3.8-12.4H157v-1.6h6.1z"/>
    <path fill="#44A13F" stroke="#50B848" stroke-width=".08" stroke-miterlimit="10" d="M170.6 158.7c0 2.2.2 7.2-3.1 7.2-3.3 0-3.1-5-3.1-7.2s-.2-7.2 3.1-7.2c3.2.1 3.1 5 3.1 7.2zm-3.1-5.5c-1.3 0-1.3 2.6-1.3 5.5s.1 5.5 1.3 5.5c1.3 0 1.3-2.6 1.3-5.5s-.1-5.5-1.3-5.5z"/>
    <path fill="#44A13F" stroke="#50B848" stroke-width=".08" stroke-miterlimit="10" d="M178 158.7c0 2.2.2 7.2-3.1 7.2-3.3 0-3.1-5-3.1-7.2s-.2-7.2 3.1-7.2c3.3.1 3.1 5 3.1 7.2zm-3.1-5.5c-1.3 0-1.3 2.6-1.3 5.5s.1 5.5 1.3 5.5c1.3 0 1.3-2.6 1.3-5.5.1-2.9 0-5.5-1.3-5.5z"/>
  </g>
</svg>
