<svg xmlns="http://www.w3.org/2000/svg" id="bottom" viewBox="0 0 612 147.8">
  <g id="ambulance">
    <path fill="#FEF7E9" d="M202.7 71.4v17.2s11.1 9.5 0 12.4v13l10.2 1.6s16.7-18.8 29.7 0h46.8V38.7h-18s-3.4-18.1-9.6 0c0 0-30.4-2.2-37.5 30.5l-21.6 2.2z"/>
    <path fill="#E12946" d="M272.8 38.7s-4.3-23.1-12.3 0h12.3z"/>
    <path fill="#CFE7CA" stroke="#CFE7CA" stroke-width="1.88" stroke-miterlimit="10" d="M234.2 69.6l14.3-16c.9-1 2.2-1.6 3.6-1.6h25.2c1.8 0 3.3 1.5 3.3 3.3v19.9c0 1.4-1.1 2.6-2.6 2.6l-40 .7c-4.5 0-6.9-5.5-3.8-8.9z"/>
    <path fill="#0E8085" stroke="#0E8085" stroke-width=".54" stroke-miterlimit="10" d="M246.1 98.7h43.4v5.4h-43.4z"/>
    <path fill="#FEF7E9" d="M297.5 27.9v87.7h40.9s14.2-19.4 28.6 0h36.3V27.9H297.5z"/>
    <path fill="#0E8085" stroke="#0E8085" stroke-width=".54" stroke-miterlimit="10" d="M297.5 98.7h95.1v5.4h-95.1z"/>
    <ellipse cx="228.5" cy="122.5" fill="#6D6E71" stroke="#6D6E71" stroke-width=".54" stroke-miterlimit="10" rx="12" ry="11.8"/>
    <ellipse cx="353.1" cy="122.8" fill="#6D6E71" stroke="#6D6E71" stroke-width=".54" stroke-miterlimit="10" rx="12" ry="11.8"/>
    <path fill="#E12946" d="M343.6 55.5h-17.9l.1 17.6 17.9.1-.1 17h20.2V72.8h17.4l.3-17.3h-17.7l.1-18.3h-20.3z"/>
    <path fill="none" stroke="#E12946" stroke-width=".64" stroke-miterlimit="10" d="M243.1 62.3s2.4-.8 2.1 2.6l2.1.5 2.2 4.8 2.6-10.6 2.6 7.6 5.2.1v2.4l1.3.5 1.1 4 3.6-14.6 3.3 10.9 1.9-3.6h6.3"/>
  </g>
  <g id="percentage2">
    <ellipse cx="134" cy="102.6" fill="#8FBF9F" stroke="#000" stroke-width="1.04" stroke-miterlimit="10" rx="34.4" ry="32.6"/>
    <g fill="#C82D38">
      <path d="M120.1 97.9c0 1.5-.9 2.6-2.3 3v.1c1.6.4 2.8 1.8 2.8 3.5 0 3.7-4.3 4.8-7.2 4.8s-7.2-1.1-7.2-4.8c0-1.8 1.2-3.1 2.8-3.5-1.4-.4-2.3-1.6-2.3-3 0-3.5 3.9-4.8 6.7-4.8s6.7 1.3 6.7 4.7zm-8.2 6.1c0 .9.7 1.6 1.5 1.6s1.5-.7 1.5-1.6c0-.9-.8-1.5-1.5-1.5s-1.5.7-1.5 1.5zm.4-5.6c0 .6.6 1.1 1.2 1.1s1.2-.5 1.2-1.1c0-.7-.5-1.2-1.2-1.2s-1.2.5-1.2 1.2z"/>
      <path d="M137 93.4l-5 4.4v.1c.5-.1 1-.2 1.6-.2 2.8 0 4.7 2.6 4.7 5.3 0 4.2-3.5 6.4-7.4 6.4-3.9 0-7.6-2.4-7.6-6.7 0-2.3 1.1-4.1 2.7-5.7l3.5-3.6h7.5zm-6.2 11.5c1.1 0 2-.8 2-1.9 0-1.1-.9-2-2-2s-1.9.9-1.9 2 .8 1.9 1.9 1.9z"/>
      <path d="M150 97.5c0 3-2.4 4.4-5 4.4s-5-1.4-5-4.4c0-3 2.2-4.3 5-4.3s5 1.3 5 4.3zm-6 0c0 .6.3 1.1 1 1.1s1-.5 1-1.1c0-.6-.3-1.2-1-1.2s-1 .6-1 1.2zm11.5-4.5h2.9l-10.7 16.2h-2.9L155.5 93zm7.4 12c0 3-2.4 4.4-5 4.4s-5-1.4-5-4.4c0-3 2.2-4.3 5-4.3s5 1.4 5 4.3zm-6 0c0 .6.3 1.1 1 1.1s1-.5 1-1.1c0-.6-.3-1.2-1-1.2s-1 .7-1 1.2z"/>
    </g>
    <ellipse cx="49.5" cy="91.1" stroke="#000" stroke-width=".52" stroke-miterlimit="10" rx="37.9" ry="39.1"/>
    <ellipse cx="49.5" cy="91.1" fill="#8FBF9F" stroke="#000" stroke-width="1.04" stroke-miterlimit="10" rx="30" ry="30.9"/>
    <path fill="none" stroke="#000" stroke-width="1.04" stroke-miterlimit="10" d="M27.1 59.6L10.4 45V21.1H134V70"/>
    <path fill="#FEF7E9" stroke="#FEF7E9" stroke-width=".12" stroke-miterlimit="10" d="M39.3 105.6s3.3-7.1 4.6-13.1c.1-.3 0-.5-.2-.7-.4-.4-1.3-.6-3.5 2.1-.4.5-.9.8-1.5.8-.8.1-1.6-.2-1.6-2.1 0-.6.1-1.2.3-1.7.8-2.4 3.1-9.9 9.6-11.4 0 0 .6 2.2 2.6 5.2 2-3 2.1-5.3 2.1-5.3 6.5 1.6 9.2 9.2 10 11.5.2.6.3 1.1.3 1.7 0 1.9-.9 2.2-1.6 2.1-.6-.1-1.1-.4-1.5-.8-2.2-2.6-3.1-2.5-3.5-2.1-.2.2-.2.5-.2.7 1.2 5.9 6.3 13.1 6.3 13.1h-5.7v8.4c0 .8-.3 1.5-.9 2-.5.4-1.2.6-2.1-.1-.5-.5-.8-1.2-.9-1.9l-.3-8.4h-2.4l-.3 8.4c0 .7-.3 1.4-.9 1.9-.8.7-1.5.5-2.1.1-.6-.5-.9-1.2-.9-2v-8.4h-5.7"/>
    <path stroke="#000" stroke-width=".06" stroke-miterlimit="10" d="M55.8 105.6v8.5c0 .8-.3 1.5-1 2-.6.4-1.3.6-2.1-.1-.6-.5-.9-1.2-.9-1.9l-.3-8.5"/>
    <path stroke="#000" stroke-width=".06" stroke-miterlimit="10" d="M49.2 105.6l-.3 8.5c0 .7-.3 1.5-.9 1.9-.8.7-1.6.5-2.1.1-.6-.5-1-1.2-1-2v-8.5"/>
    <circle cx="49.3" cy="74.5" r="4.7" fill="#F7D2A0" stroke="#F7D2A0" stroke-width=".12" stroke-miterlimit="10"/>
    <path fill="#FEF7E9" stroke="#000" stroke-width=".12" stroke-miterlimit="10" d="M53.9 71.7c-4.8-5.2-9-.3-9-.3l-2-4s5.8-2.8 12.4-.1l-1.4 4.4z"/>
    <path fill="#E12946" stroke="#000" stroke-width=".12" stroke-miterlimit="10" d="M48.9 67.4h-.8v.8h.8v.8h.9v-.8h.9v-.8h-.9v-.8h-.9z"/>
    <path fill="#E12946" stroke="#000" stroke-width=".12" stroke-miterlimit="10" d="M52.3 86.5h-.8v.8h.8v.7h.9v-.7h.8l.1-.8h-.9v-.9h-.9z"/>
    <circle cx="49.9" cy="92.9" r=".5" fill="#E12946" stroke="#000" stroke-width=".11" stroke-miterlimit="10"/>
    <circle cx="49.9" cy="96" r=".5" fill="#E12946" stroke="#000" stroke-width=".11" stroke-miterlimit="10"/>
    <circle cx="49.9" cy="99.4" r=".5" fill="#E12946" stroke="#000" stroke-width=".11" stroke-miterlimit="10"/>
  </g>
  <g id="percentage1_1_">
    <ellipse cx="569.2" cy="102.2" fill="#8FBF9F" stroke="#000" stroke-width="1.04" stroke-miterlimit="10" rx="34.4" ry="32.6"/>
    <g fill="#C82D38">
      <path d="M543.9 93.3l8.1-.3v15.7h-5.7V98.1l-2.4.2v-5z"/>
      <path d="M558.5 101.6l6.4-8.6h6.8v8.5l2-.1v4.4l-2.1-.2.1 3.1h-5.4l.2-3.1-8 .2v-4.2zm5.2 0l2.8-.1v-2.4c0-.4.1-.9.2-1.3l-.1-.1c-.2.5-.5.9-.9 1.3l-2 2.6z"/>
      <path d="M585.2 97.1c0 3-2.4 4.4-5 4.4s-5-1.4-5-4.4c0-3 2.2-4.3 5-4.3s5 1.3 5 4.3zm-6 0c0 .6.3 1.1 1 1.1s1-.5 1-1.1c0-.6-.3-1.2-1-1.2s-1 .6-1 1.2zm11.5-4.5h2.9l-10.7 16.2H580l10.7-16.2zm7.4 12c0 3-2.4 4.4-5 4.4s-5-1.4-5-4.4c0-3 2.2-4.3 5-4.3s5 1.4 5 4.3zm-6 0c0 .6.3 1.1 1 1.1s1-.5 1-1.1c0-.6-.3-1.2-1-1.2s-1 .6-1 1.2z"/>
    </g>
    <ellipse cx="484.7" cy="90.7" stroke="#000" stroke-width=".52" stroke-miterlimit="10" rx="37.9" ry="39.1"/>
    <ellipse cx="484.7" cy="90.7" fill="#8FBF9F" stroke="#000" stroke-width="1.04" stroke-miterlimit="10" rx="30" ry="30.9"/>
    <path fill="none" stroke="#000" stroke-width="1.04" stroke-miterlimit="10" d="M462.3 59.2l-16.7-14.6v-24h123.6v49"/>
    <path fill="#A5D9C9" stroke="#A5D9C9" stroke-width=".12" stroke-miterlimit="10" d="M480.1 103.2h11.1s-.1-7-.6-13.2c0-.2-.1-.9.1-1.1.4-.4 1.4-4.6 3.7 2.5.2.5.9.8 1.5.8.9.1 1.9-.2 1.8-2.4 0-.5-.1-1-.3-1.4-.9-2.4-2.4-11.5-10.4-11.5 0 0-.1 2.3-2.2 5.3-2.1-3-2.7-5.2-2.7-5.2-8 .2-9.2 9.1-10 11.5-.2.5-.3 1-.3 1.5-.1 2.2.9 2.5 1.8 2.4.6-.1 1.4-.3 1.5-.8 1.1-4.7 2.2-4.3 3-3.4.4.5.8 1.4.8 2.1v.8l1.2 12.1z"/>
    <path stroke="#000" stroke-width=".06" stroke-miterlimit="10" d="M491.2 103.2v9.5c0 .9-.3 1.7-1 2.3-.5.5-1.3.7-2.1-.1-.6-.6-.9-1.4-.9-2.2l-.3-9.5h4.3z"/>
    <path stroke="#000" stroke-width=".06" stroke-miterlimit="10" d="M484.4 103.2l-.3 9.5c0 .8-.3 1.6-.9 2.2-.8.8-1.6.6-2.1.1-.6-.5-1-1.4-1-2.3v-9.5h4.3z"/>
    <circle cx="484.3" cy="71.9" r="4.8" fill="#F7D2A0" stroke="#F7D2A0" stroke-width=".12" stroke-miterlimit="10"/>
    <path fill="#7E431D" d="M488.9 70.4l.1-2.2c-.2-2.2-3.8-1.7-3.8-1.7-1.7-1.3-3.1-.7-3.8-.1 0 0-.1.1-.2.1-1 .6-1.6 1.7-1.6 3 0 .4.2 1 .2 1l.7-1.2s1.3.5 2.1-.2c0 0 3 1.6 6 .9l.3.4z"/>
    <path fill="#6D6E71" stroke="#000" stroke-width=".06" stroke-miterlimit="10" d="M485.2 88.7c.7-1.1-.7-2.8-.7-2.8-5.8-.8-2.3-8.9-2.3-8.9s-2.7 8.7 2.7 8.2c0 0 4.2-.4 2.2-8.3 0 0 2.9 7-1.7 8.8 0 0 .9 3.8-.5 3.9l.3-.9"/>
    <ellipse cx="485.5" cy="89.3" fill="#414042" stroke="#414042" stroke-width=".06" stroke-miterlimit="10" transform="rotate(-14.093 485.43 89.3)" rx=".7" ry=".6"/>
    <ellipse cx="485.5" cy="89.3" stroke="#000" stroke-width=".06" stroke-miterlimit="10" transform="rotate(-14.093 485.43 89.3)" rx=".3" ry=".4"/>
  </g>
</svg>
