<svg xmlns="http://www.w3.org/2000/svg" id="icons" viewBox="0 0 612 184.1">
  <g id="bookeepers">
    <path d="M22.4 117.9l2.4 12.7.2-.6.7-4.2 1.5-7.8h2l1.6 17.6h-2.2l-.4-6.6-.1-3.3v-2.3l-.4 2.5-1.8 9.6h-1.6l-2.2-12.2-.7 12.2h-2.2l1.4-17.6h1.8z"/>
    <path d="M36.9 134.1c-.5 1-.9 1.7-2.2 1.7-2.7 0-2.7-4.3-2.7-6.2 0-2 .1-5.9 2.8-5.9 1 0 1.7.6 2.1 1.5v-1.3H39v11.8h-2.1v-1.6zm0-4.4c0-.9.1-4.1-1.3-4.1-1.6 0-1.4 3.2-1.4 4.1 0 1-.2 4.1 1.4 4.1 1.4 0 1.3-3.2 1.3-4.1z"/>
    <path d="M43.1 135.6H41v-19.4h2.1v19.4z"/>
    <path d="M46.9 130.1c0 1 0 3.7 1.3 3.7 1.1 0 1.3-1.3 1.3-2.2h2c0 2.2-.9 4.2-3.4 4.2-3.2 0-3.5-3.5-3.5-6 0-2.4.3-6.2 3.4-6.2s3.5 3.7 3.5 6.2v.4h-4.6zm2.6-1.6c0-.9 0-3-1.3-3s-1.3 2.1-1.3 3h2.6z"/>
    <path fill="#0E8085" d="M58 116.2h2.1v8.9c.4-.9 1-1.5 2.1-1.5 2.7 0 2.8 4 2.8 5.9 0 1.9 0 6.2-2.7 6.2-1.2 0-1.7-.7-2.1-1.7v1.5H58v-19.3zm4.8 13.5c0-1 .2-4.1-1.4-4.1-1.4 0-1.3 3.2-1.3 4.1 0 .9-.1 4.1 1.3 4.1 1.6 0 1.4-3.2 1.4-4.1z"/>
    <path fill="#0E8085" d="M66.3 129.7c0-2.6.3-6.1 3.6-6.1 3.3 0 3.6 3.6 3.6 6.1 0 2.5-.3 6.1-3.6 6.1-3.2 0-3.6-3.6-3.6-6.1zm5.1 0c0-.9.2-4.1-1.4-4.1s-1.4 3.2-1.4 4.1c0 .8-.2 4 1.4 4s1.4-3.1 1.4-4z"/>
    <path fill="#0E8085" d="M74.9 129.7c0-2.6.3-6.1 3.6-6.1 3.3 0 3.6 3.6 3.6 6.1 0 2.5-.3 6.1-3.6 6.1-3.3 0-3.6-3.6-3.6-6.1zm5.1 0c0-.9.2-4.1-1.4-4.1s-1.4 3.2-1.4 4.1c0 .8-.2 4 1.4 4s1.4-3.1 1.4-4z"/>
    <path fill="#0E8085" d="M85.9 116.2V129l2.7-5.2H91l-2.9 5.2 3.3 6.6h-2.5l-3-6.3v6.3h-2.1v-19.4h2.1z"/>
    <path fill="#0E8085" d="M94.6 130.1c0 1 0 3.7 1.3 3.7 1.1 0 1.3-1.3 1.3-2.2h2c0 2.2-.9 4.2-3.4 4.2-3.2 0-3.5-3.5-3.5-6 0-2.4.3-6.2 3.4-6.2s3.5 3.7 3.5 6.2v.4h-4.6zm2.6-1.6c0-.9 0-3-1.3-3s-1.3 2.1-1.3 3h2.6z"/>
    <path fill="#0E8085" d="M102.9 130.1c0 1 0 3.7 1.3 3.7 1.1 0 1.3-1.3 1.3-2.2h2c0 2.2-.9 4.2-3.4 4.2-3.2 0-3.5-3.5-3.5-6 0-2.4.3-6.2 3.4-6.2s3.5 3.7 3.5 6.2v.4h-4.6zm2.5-1.6c0-.9 0-3-1.3-3s-1.3 2.1-1.3 3h2.6z"/>
    <path fill="#0E8085" d="M111.4 125.3c.5-1 1-1.7 2.2-1.7 2.7 0 2.7 4.3 2.7 6.2 0 2-.1 6-2.8 6-1.1 0-1.6-.6-2.1-1.5v6.2h-2.1v-16.7h2.1v1.5zm2.7 4.4c0-1 .2-4.1-1.4-4.1-1.4 0-1.3 3.2-1.3 4.1 0 .9-.1 4.1 1.3 4.1 1.3 0 1.4-2.1 1.4-4.1z"/>
    <path fill="#0E8085" d="M119.8 130.1c0 1 0 3.7 1.3 3.7 1.1 0 1.3-1.3 1.3-2.2h2c0 2.2-.9 4.2-3.4 4.2-3.2 0-3.5-3.5-3.5-6 0-2.4.3-6.2 3.4-6.2s3.5 3.7 3.5 6.2v.4h-4.6zm2.5-1.6c0-.9 0-3-1.3-3s-1.3 2.1-1.3 3h2.6z"/>
    <path fill="#0E8085" d="M128.3 125.2c.5-1 1.3-1.6 2.5-1.6v2.2h-.4c-1.6 0-2.1.9-2.1 2.4v7.4h-2.2v-11.8h2.1v1.4z"/>
    <path fill="#0E8085" d="M136.6 126.2c-.4-.4-1.1-.6-1.6-.6-.8 0-1.5.5-1.5 1.3 0 2 3.6 2.1 3.6 5.5 0 2.1-1.3 3.5-3.3 3.5-.8 0-1.2-.2-1.9-.6v-2.2c.5.4 1 .7 1.8.7.9 0 1.4-.6 1.4-1.5 0-2.1-3.6-2.2-3.6-5.5 0-1.9 1.3-3.2 3.1-3.2.7 0 1.3.1 1.9.5v2.1z"/>
    <g fill="#C82D38">
      <path d="M57.6 145.8v29.4h-3.7v-26h-2.8v-3.4h6.5z"/>
      <path d="M69.4 161.7v-3.5h.5c3.2 0 3.9-1.2 3.9-4.5 0-1.6 0-4.7-2.2-4.7-2 0-2.2 2.3-2.2 3.8v.9h-3.7v-.3c0-4.4.6-8 5.8-8 4.8 0 6 3.4 6 7.6 0 2.7-.2 6-3.2 6.9v.1c3.2.8 3.5 3.9 3.5 6.8 0 4.7-1.4 8.7-6.6 8.7-4.3 0-6-2.5-6-6.8v-.9h3.7v.9c0 1.6.6 3.3 2.4 3.3 2.7 0 2.7-3.6 2.7-5.5 0-2.5-.5-5-3.4-4.9h-1.2z"/>
      <path d="M88.9 152.5c0 2.8-.3 7-4.1 7s-4.1-4.2-4.1-7 .3-7 4.1-7 4.1 4.1 4.1 7zm9.1-6.7l-14.2 29.4h-2.4l14.2-29.4H98zm-11.6 6.7c0-1 .2-4.6-1.5-4.6s-1.5 3.7-1.5 4.6c0 1-.2 4.6 1.5 4.6s1.5-3.6 1.5-4.6zm12.2 16.1c0 2.8-.3 7-4.1 7s-4.1-4.2-4.1-7 .3-7 4.1-7 4.1 4.2 4.1 7zm-5.6 0c0 1-.2 4.7 1.5 4.7s1.5-3.7 1.5-4.7.2-4.6-1.5-4.6-1.5 3.6-1.5 4.6z"/>
    </g>
  </g>
  <g id="teachers">
    <path d="M176.3 117.9l2.4 12.7.1-.7.7-4.2 1.5-7.8h2l1.6 17.6h-2.2l-.4-6.5-.1-3.3v-2.3l-.4 2.5-1.8 9.6H178l-2.2-12.2-.7 12.2h-2.2l1.4-17.6h2z"/>
    <path d="M190.7 134.1c-.5 1-.9 1.7-2.2 1.7-2.7 0-2.7-4.3-2.7-6.2 0-2 .1-5.9 2.8-5.9 1 0 1.7.6 2.1 1.5v-1.3h2.1v11.8h-2.1v-1.6zm.1-4.4c0-.9.1-4.1-1.3-4.1-1.6 0-1.4 3.2-1.4 4.1 0 1-.2 4.1 1.4 4.1 1.4 0 1.3-3.2 1.3-4.1z"/>
    <path d="M197 135.6h-2.1v-19.4h2.1v19.4z"/>
    <path d="M200.8 130.1c0 1 0 3.7 1.3 3.7 1.1 0 1.3-1.3 1.3-2.2h2c0 2.2-.9 4.2-3.4 4.2-3.2 0-3.5-3.5-3.5-6 0-2.4.3-6.2 3.4-6.2s3.5 3.7 3.5 6.2v.4h-4.6zm2.6-1.6c0-.9 0-3-1.3-3s-1.3 2.1-1.3 3h2.6z"/>
    <path d="M214.5 120.4v3.3h1.1v1.7h-1.1v10.1h-2.1v-10.1h-1.2v-1.7h1.2v-3.3h2.1z"/>
    <path d="M218.8 130.1c0 1 0 3.7 1.3 3.7 1.1 0 1.3-1.3 1.3-2.2h2c0 2.2-.9 4.2-3.4 4.2-3.2 0-3.5-3.5-3.5-6 0-2.4.3-6.2 3.4-6.2s3.5 3.7 3.5 6.2v.4h-4.6zm2.5-1.6c0-.9 0-3-1.3-3s-1.3 2.1-1.3 3h2.6z"/>
    <path d="M229.7 134.1c-.5 1-.9 1.7-2.2 1.7-2.7 0-2.7-4.3-2.7-6.2 0-2 .1-5.9 2.8-5.9 1 0 1.7.6 2.1 1.5v-1.3h2.1v11.8h-2.1v-1.6zm.1-4.4c0-.9.1-4.1-1.3-4.1-1.6 0-1.4 3.2-1.4 4.1 0 1-.2 4.1 1.4 4.1 1.4 0 1.3-3.2 1.3-4.1z"/>
    <path d="M238.6 126.2c-.3-.4-.6-.5-1-.6-1.8 0-1.9 2.7-1.9 3.9 0 1.2 0 4.1 1.8 4.1.5 0 .8-.2 1.1-.4v2c-.5.3-1.1.5-1.7.5-3 0-3.4-3.7-3.4-6 0-2.4.3-6.2 3.4-6.2.6 0 1.1.1 1.7.4v2.3z"/>
    <path d="M242.3 116.2v9c.5-1 1.2-1.5 2.3-1.5 2.3 0 2.3 2.1 2.3 3.9v8.1h-2.1v-8.2c0-.8-.1-1.9-1.3-1.9-1.4 0-1.3 1.7-1.3 2.7v7.4h-2.1v-19.4h2.2z"/>
    <path d="M250.9 130.1c0 1 0 3.7 1.3 3.7 1.1 0 1.3-1.3 1.3-2.2h2c0 2.2-.9 4.2-3.4 4.2-3.2 0-3.5-3.5-3.5-6 0-2.4.3-6.2 3.4-6.2s3.5 3.7 3.5 6.2v.4h-4.6zm2.5-1.6c0-.9 0-3-1.3-3s-1.3 2.1-1.3 3h2.6z"/>
    <path d="M259.4 125.2c.5-1 1.3-1.6 2.5-1.6v2.2h-.4c-1.6 0-2.1.9-2.1 2.4v7.4h-2.2v-11.8h2.1v1.4z"/>
    <path d="M267.7 126.2c-.4-.4-1.1-.6-1.6-.6-.8 0-1.5.5-1.5 1.3 0 2 3.6 2.1 3.6 5.5 0 2.1-1.3 3.5-3.3 3.5-.8 0-1.2-.2-1.9-.6v-2.2c.5.4 1 .7 1.8.7.9 0 1.4-.6 1.4-1.5 0-2.1-3.6-2.2-3.6-5.5 0-1.9 1.3-3.2 3.1-3.2.7 0 1.3.1 1.9.5v2.1z"/>
    <g fill="#C82D38">
      <path d="M190.8 154.3c0-4.7.6-8.9 6.1-8.9 4.7 0 6.4 2.7 6.4 7.3 0 4.4-2.9 10.5-4.9 14.4l-2.4 4.8h7.1v3.4h-12.6l7-15.1c1-2.4 2.1-5 2.1-7.6 0-1.6-.6-3.5-2.5-3.5-2.6 0-2.2 4.4-2.2 5.6v.8H191v-1.2z"/>
      <path d="M217.1 164.3h1.8v2.9h-1.8v8.1h-3.7v-8.1h-7.7v-3.4l7.7-18h3.7v18.5zm-3.7-12.5l-4.7 12.5h4.7v-12.5z"/>
      <path d="M230 152.5c0 2.8-.3 7-4.1 7s-4.1-4.2-4.1-7 .3-7 4.1-7c3.7 0 4.1 4.1 4.1 7zm9-6.7l-14.2 29.4h-2.4l14.2-29.4h2.4zm-11.6 6.7c0-1 .2-4.6-1.5-4.6s-1.5 3.7-1.5 4.6c0 1-.2 4.6 1.5 4.6s1.5-3.6 1.5-4.6zm12.2 16.1c0 2.8-.3 7-4.1 7s-4.1-4.2-4.1-7 .3-7 4.1-7 4.1 4.2 4.1 7zm-5.6 0c0 1-.2 4.7 1.5 4.7s1.5-3.7 1.5-4.7.2-4.6-1.5-4.6-1.5 3.6-1.5 4.6z"/>
    </g>
  </g>
  <g id="receptionist">
    <path d="M316.9 117.9l2.4 12.7.1-.7.7-4.2 1.5-7.8h2l1.6 17.6H323l-.4-6.6-.1-3.3v-2.3l-.4 2.5-1.8 9.6h-1.6l-2.2-12.2-.7 12.2h-2.2l1.4-17.6h1.9z"/>
    <path d="M331.4 134.1c-.5 1-.9 1.7-2.2 1.7-2.7 0-2.7-4.3-2.7-6.2 0-2 .1-5.9 2.8-5.9 1 0 1.7.6 2.1 1.5v-1.3h2.1v11.8h-2.1v-1.6zm0-4.4c0-.9.1-4.1-1.3-4.1-1.6 0-1.4 3.2-1.4 4.1 0 1-.2 4.1 1.4 4.1 1.4 0 1.3-3.2 1.3-4.1z"/>
    <path d="M337.6 135.6h-2.1v-19.4h2.1v19.4z"/>
    <path d="M341.4 130.1c0 1 0 3.7 1.3 3.7 1.1 0 1.3-1.3 1.3-2.2h2c0 2.2-.9 4.2-3.4 4.2-3.2 0-3.5-3.5-3.5-6 0-2.4.3-6.2 3.4-6.2s3.5 3.7 3.5 6.2v.4h-4.6zm2.6-1.6c0-.9 0-3-1.3-3s-1.3 2.1-1.3 3h2.6z"/>
    <path fill="#BB8B3A" d="M354.6 125.2c.5-1 1.3-1.6 2.5-1.6v2.2h-.4c-1.6 0-2.1.9-2.1 2.4v7.4h-2.2v-11.8h2.1v1.4z"/>
    <path fill="#BB8B3A" d="M360.5 130.1c0 1 0 3.7 1.3 3.7 1.1 0 1.3-1.3 1.3-2.2h2c0 2.2-.9 4.2-3.4 4.2-3.2 0-3.5-3.5-3.5-6 0-2.4.3-6.2 3.4-6.2s3.5 3.7 3.5 6.2v.4h-4.6zm2.5-1.6c0-.9 0-3-1.3-3s-1.3 2.1-1.3 3h2.6z"/>
    <path fill="#BB8B3A" d="M371.7 126.2c-.3-.4-.6-.5-1-.6-1.8 0-1.9 2.7-1.9 3.9 0 1.2 0 4.1 1.8 4.1.5 0 .8-.2 1.1-.4v2c-.5.3-1.1.5-1.7.5-3 0-3.4-3.7-3.4-6 0-2.4.3-6.2 3.4-6.2.6 0 1.1.1 1.7.4v2.3z"/>
    <path fill="#BB8B3A" d="M375.1 130.1c0 1 0 3.7 1.3 3.7 1.1 0 1.3-1.3 1.3-2.2h2c0 2.2-.9 4.2-3.4 4.2-3.2 0-3.5-3.5-3.5-6 0-2.4.3-6.2 3.4-6.2s3.5 3.7 3.5 6.2v.4h-4.6zm2.5-1.6c0-.9 0-3-1.3-3s-1.3 2.1-1.3 3h2.6z"/>
    <path fill="#BB8B3A" d="M383.6 125.3c.5-1 1-1.7 2.2-1.7 2.7 0 2.7 4.3 2.7 6.2 0 2-.1 6-2.8 6-1.1 0-1.6-.6-2.1-1.5v6.2h-2.1v-16.7h2.1v1.5zm2.7 4.4c0-1 .2-4.1-1.4-4.1-1.4 0-1.3 3.2-1.3 4.1 0 .9-.1 4.1 1.3 4.1 1.3 0 1.4-2.1 1.4-4.1z"/>
    <path fill="#BB8B3A" d="M392.7 120.4v3.3h1.1v1.7h-1.1v10.1h-2.1v-10.1h-1.2v-1.7h1.2v-3.3h2.1z"/>
    <path fill="#BB8B3A" d="M394.8 120.2c0-.8.6-1.5 1.4-1.5.8 0 1.4.7 1.4 1.5s-.7 1.5-1.4 1.5c-.8 0-1.4-.7-1.4-1.5zm2.5 15.4h-2.1v-11.8h2.1v11.8z"/>
    <path fill="#BB8B3A" d="M398.9 129.7c0-2.6.3-6.1 3.6-6.1 3.3 0 3.6 3.6 3.6 6.1 0 2.5-.3 6.1-3.6 6.1-3.2 0-3.6-3.6-3.6-6.1zm5.1 0c0-.9.2-4.1-1.4-4.1s-1.4 3.2-1.4 4.1c0 .8-.2 4 1.4 4s1.4-3.1 1.4-4z"/>
    <path fill="#BB8B3A" d="M410 125.1c.5-1 1.2-1.5 2.4-1.5 2.3 0 2.3 2.1 2.3 3.9v8.1h-2.1v-8.2c0-.8-.1-1.9-1.3-1.9-1.4 0-1.3 1.7-1.3 2.7v7.4h-2.1v-11.8h2.1v1.3z"/>
    <path fill="#BB8B3A" d="M416.3 120.2c0-.8.6-1.5 1.4-1.5.8 0 1.4.7 1.4 1.5s-.7 1.5-1.4 1.5c-.8 0-1.4-.7-1.4-1.5zm2.5 15.4h-2.1v-11.8h2.1v11.8z"/>
    <path fill="#BB8B3A" d="M425.1 126.2c-.4-.4-1.1-.6-1.6-.6-.8 0-1.5.5-1.5 1.3 0 2 3.6 2.1 3.6 5.5 0 2.1-1.3 3.5-3.3 3.5-.8 0-1.2-.2-1.9-.6v-2.2c.5.4 1 .7 1.8.7.9 0 1.4-.6 1.4-1.5 0-2.1-3.6-2.2-3.6-5.5 0-1.9 1.3-3.2 3.1-3.2.7 0 1.3.1 1.9.5v2.1z"/>
    <path fill="#BB8B3A" d="M429.6 120.4v3.3h1.1v1.7h-1.1v10.1h-2.1v-10.1h-1.2v-1.7h1.2v-3.3h2.1z"/>
    <g fill="#C82D38">
      <path d="M351 175.3l5.7-12.3-.1-.1c-.8.8-1.6 1.2-2.9 1.2-4.4 0-4.9-5-4.9-8.5 0-4.6.3-10 6.1-10s6.2 5.4 6.2 10c0 6.4-1.6 10.6-4.3 16.3l-1.7 3.5H351zm6.2-20.6c0-1.7 0-5.7-2.3-5.7s-2.2 4.3-2.2 5.9c0 1.7 0 5.6 2.2 5.6 2.5 0 2.3-4.1 2.3-5.8z"/>
      <path d="M372.5 152.5c0 2.8-.3 7-4.1 7s-4.1-4.2-4.1-7 .3-7 4.1-7 4.1 4.1 4.1 7zm9-6.7l-14.2 29.4h-2.4l14.2-29.4h2.4zm-11.6 6.7c0-1 .2-4.6-1.5-4.6s-1.5 3.7-1.5 4.6c0 1-.2 4.6 1.5 4.6s1.5-3.6 1.5-4.6zm12.2 16.1c0 2.8-.3 7-4.1 7s-4.1-4.2-4.1-7 .3-7 4.1-7 4.1 4.2 4.1 7zm-5.6 0c0 1-.2 4.7 1.5 4.7s1.5-3.7 1.5-4.7.2-4.6-1.5-4.6-1.5 3.6-1.5 4.6z"/>
    </g>
  </g>
  <g id="social-workers">
    <path d="M473.2 117.9l2.4 12.7.1-.7.7-4.2 1.5-7.8h2l1.6 17.6h-2.2l-.4-6.6-.1-3.3v-2.3l-.4 2.5-1.8 9.6H475l-2.2-12.2-.7 12.2h-2.2l1.4-17.6h1.9z"/>
    <path d="M487.6 134.1c-.5 1-.9 1.7-2.2 1.7-2.7 0-2.7-4.3-2.7-6.2 0-2 .1-5.9 2.8-5.9 1 0 1.7.6 2.1 1.5v-1.3h2.1v11.8h-2.1v-1.6zm.1-4.4c0-.9.1-4.1-1.3-4.1-1.6 0-1.4 3.2-1.4 4.1 0 1-.2 4.1 1.4 4.1 1.4 0 1.3-3.2 1.3-4.1z"/>
    <path d="M493.9 135.6h-2.1v-19.4h2.1v19.4z"/>
    <path d="M497.7 130.1c0 1 0 3.7 1.3 3.7 1.1 0 1.3-1.3 1.3-2.2h2c0 2.2-.9 4.2-3.4 4.2-3.2 0-3.5-3.5-3.5-6 0-2.4.3-6.2 3.4-6.2s3.5 3.7 3.5 6.2v.4h-4.6zm2.6-1.6c0-.9 0-3-1.3-3s-1.3 2.1-1.3 3h2.6z"/>
    <path fill="#D1D3D4" d="M513.1 126.2c-.4-.4-1.1-.6-1.6-.6-.8 0-1.5.5-1.5 1.3 0 2 3.6 2.1 3.6 5.5 0 2.1-1.3 3.5-3.3 3.5-.8 0-1.2-.2-1.9-.6v-2.2c.5.4 1 .7 1.8.7.9 0 1.4-.6 1.4-1.5 0-2.1-3.6-2.2-3.6-5.5 0-1.9 1.3-3.2 3.1-3.2.7 0 1.3.1 1.9.5v2.1z"/>
    <path fill="#D1D3D4" d="M514.7 129.7c0-2.6.3-6.1 3.6-6.1 3.3 0 3.6 3.6 3.6 6.1 0 2.5-.3 6.1-3.6 6.1-3.2 0-3.6-3.6-3.6-6.1zm5.1 0c0-.9.2-4.1-1.4-4.1s-1.4 3.2-1.4 4.1c0 .8-.2 4 1.4 4s1.4-3.1 1.4-4z"/>
    <path fill="#D1D3D4" d="M528.4 126.2c-.3-.4-.6-.5-1-.6-1.8 0-1.9 2.7-1.9 3.9 0 1.2 0 4.1 1.8 4.1.5 0 .8-.2 1.1-.4v2c-.5.3-1.1.5-1.7.5-3 0-3.4-3.7-3.4-6 0-2.4.3-6.2 3.4-6.2.6 0 1.1.1 1.7.4v2.3z"/>
    <path fill="#D1D3D4" d="M529.6 120.2c0-.8.6-1.5 1.4-1.5.8 0 1.4.7 1.4 1.5s-.7 1.5-1.4 1.5c-.8 0-1.4-.7-1.4-1.5zm2.5 15.4H530v-11.8h2.1v11.8z"/>
    <path fill="#D1D3D4" d="M538.6 134.1c-.5 1-.9 1.7-2.2 1.7-2.7 0-2.7-4.3-2.7-6.2 0-2 .1-5.9 2.8-5.9 1 0 1.7.6 2.1 1.5v-1.3h2.1v11.8h-2.1v-1.6zm.1-4.4c0-.9.1-4.1-1.3-4.1-1.6 0-1.4 3.2-1.4 4.1 0 1-.2 4.1 1.4 4.1 1.4 0 1.3-3.2 1.3-4.1z"/>
    <path fill="#D1D3D4" d="M544.9 135.6h-2.1v-19.4h2.1v19.4z"/>
    <path fill="#D1D3D4" d="M552.7 123.8l1.2 8.2v.2l.5-3.7.9-4.8h1.5l1.3 8.2v.2l.6-4.4.8-4.1h2.1l-2.7 11.8h-1.5l-1.2-6.1-.2-2.6-.5 4.2-.8 4.4h-1.5l-2.8-11.8h2.3z"/>
    <path fill="#D1D3D4" d="M562.3 129.7c0-2.6.3-6.1 3.6-6.1 3.3 0 3.6 3.6 3.6 6.1 0 2.5-.3 6.1-3.6 6.1-3.3 0-3.6-3.6-3.6-6.1zm5 0c0-.9.2-4.1-1.4-4.1s-1.4 3.2-1.4 4.1c0 .8-.2 4 1.4 4s1.4-3.1 1.4-4z"/>
    <path fill="#D1D3D4" d="M573.3 125.2c.5-1 1.3-1.6 2.5-1.6v2.2h-.4c-1.6 0-2.1.9-2.1 2.4v7.4h-2.2v-11.8h2.1v1.4z"/>
    <path fill="#D1D3D4" d="M579.5 116.2V129l2.7-5.2h2.4l-2.9 5.2 3.3 6.6h-2.5l-3-6.3v6.3h-2.1v-19.4h2.1z"/>
    <path fill="#D1D3D4" d="M588.2 130.1c0 1 0 3.7 1.3 3.7 1.1 0 1.3-1.3 1.3-2.2h2c0 2.2-.9 4.2-3.4 4.2-3.2 0-3.5-3.5-3.5-6 0-2.4.3-6.2 3.4-6.2s3.5 3.7 3.5 6.2v.4h-4.6zm2.5-1.6c0-.9 0-3-1.3-3s-1.3 2.1-1.3 3h2.6z"/>
    <path fill="#D1D3D4" d="M596.7 125.2c.5-1 1.3-1.6 2.5-1.6v2.2h-.4c-1.6 0-2.1.9-2.1 2.4v7.4h-2.2v-11.8h2.1v1.4z"/>
    <g fill="#C82D38">
      <path d="M500.2 154.3c0-4.7.6-8.9 6.1-8.9 4.7 0 6.4 2.7 6.4 7.3 0 4.4-2.9 10.5-4.9 14.4l-2.4 4.8h7.1v3.4h-12.6l7-15.1c1-2.4 2.1-5 2.1-7.6 0-1.6-.6-3.5-2.5-3.5-2.6 0-2.2 4.4-2.2 5.6v.8h-3.9v-1.2z"/>
      <path d="M525.6 145.8l-5.6 12.6.1.1c.8-.8 1.7-1.3 2.9-1.3 4.8 0 5 5.7 5 9.2 0 4.5-.6 9.2-6.2 9.2-5.6 0-6.2-5.4-6.2-9.9 0-8 2.5-12.8 5.8-19.8h4.2zm-3.7 14.9c-.6 0-2.4-.2-2.4 5.7 0 1.7.1 5.7 2.4 5.7 2.2 0 2.2-4 2.2-5.7.1-1.8.1-5.7-2.2-5.7z"/>
      <path d="M539.4 152.5c0 2.8-.3 7-4.1 7s-4.1-4.2-4.1-7 .3-7 4.1-7 4.1 4.1 4.1 7zm9.1-6.7l-14.2 29.4h-2.4l14.2-29.4h2.4zm-11.6 6.7c0-1 .2-4.6-1.5-4.6s-1.5 3.7-1.5 4.6c0 1-.2 4.6 1.5 4.6s1.5-3.6 1.5-4.6zm12.2 16.1c0 2.8-.3 7-4.1 7s-4.1-4.2-4.1-7 .3-7 4.1-7 4.1 4.2 4.1 7zm-5.6 0c0 1-.2 4.7 1.5 4.7s1.5-3.7 1.5-4.7.2-4.6-1.5-4.6-1.5 3.6-1.5 4.6z"/>
    </g>
  </g>
  <g id="icon1" stroke-miterlimit="10">
    <path fill="#0E8085" stroke="#0E8085" stroke-width=".92" d="M83.8 64l8.1 1.4c6.5 1.1 12.2 5.6 14.4 12 1.5 4.3 1.2 8.4 0 12-2.8 8.6-10.6 14.4-19.4 15.1-14.9 1.2-42.9 1.1-48.4-15.3C30.9 66.5 64.2 64 64.2 64s-2.1 14.6 8.2 30.7c0 0 10.5-8.4 11.4-30.7z"/>
    <path fill="#C82D38" stroke="#C82D38" stroke-width=".92" d="M79.5 69.1l-.1 7.6-6.1 7.3-4.6-7.5.1-7.4z"/>
    <path fill="#C82D38" stroke="#C82D38" stroke-width=".92" d="M68.76 67.1l.02-3.4 10.7.06-.02 3.4z"/>
    <path fill="#FFF" stroke="#000" stroke-width=".92" d="M117.7 45.3l-5 13.7-11.1-.8 1.7-13.9z"/>
    <path fill="#FFF" stroke="#000" stroke-width=".92" d="M89.3 42l-.8 13.8 12.8 2.3 1.8-13.8z"/>
    <path fill="none" stroke="#000" stroke-width=".92" d="M118.6 46l-5.3 14.3" stroke-linecap="round" stroke-linejoin="round"/>
    <path fill="none" stroke="#000" stroke-width=".92" d="M119.7 46.4l-5.2 14.2" stroke-linecap="round" stroke-linejoin="round"/>
    <path fill="none" stroke="#000" stroke-width=".92" d="M101.2 58.1l14.2 2.9.4-.3 5.1-14.2-3.2-1.2" stroke-linecap="round" stroke-linejoin="round"/>
    <path fill="#F7D2A0" stroke="#000" stroke-width=".8" d="M61.7 28.8s-4.1-3.6-2.8 4.9c0 0 .8 2.6 2.3 1.4l.5-6.3z"/>
    <path fill="#F7D2A0" stroke="#000" stroke-width=".8" d="M87.5 29.9s4.1-3.6 2.8 4.9c0 0-.8 2.6-2.3 1.4l-.5-6.3z"/>
    <ellipse cx="74.5" cy="35.5" fill="#F7D2A0" stroke="#000" stroke-width=".8" rx="13" ry="25"/>
    <ellipse cx="69.7" cy="32.4" fill="#FFF" stroke="#000" stroke-width=".92" rx="3.8" ry="6.3"/>
    <ellipse cx="79.2" cy="32.4" fill="#FFF" stroke="#000" stroke-width=".92" rx="3.8" ry="6.3"/>
    <path fill="none" stroke="#000" stroke-width=".92" d="M66.4 29.9l-2.5-2.2-2.2 1.9"/>
    <path fill="none" stroke="#000" stroke-width=".92" d="M83.1 30.5l2.6-1.7 1.6 2.3"/>
    <path fill="#FFF" stroke="#000" stroke-width=".92" d="M73.6 32.4h1.8"/>
  </g>
  <g id="icon2">
    <path fill="#F7D2A0" stroke="#000" stroke-width=".8" stroke-miterlimit="10" d="M198.8 31.4s-4.1-3.6-2.8 4.9c0 0 .8 2.6 2.3 1.4l.5-6.3z"/>
    <path fill="#F7D2A0" stroke="#000" stroke-width=".8" stroke-miterlimit="10" d="M224.7 32.5s4.1-3.6 2.8 4.9c0 0-.8 2.6-2.3 1.4l-.5-6.3z"/>
    <ellipse cx="211.8" cy="38.1" fill="#F7D2A0" stroke="#000" stroke-width=".8" stroke-miterlimit="10" rx="13" ry="25"/>
    <path d="M235.4 30.2l8.4 34.4-1.3.7-8-35.1z"/>
    <path fill="#F7D2A0" stroke="#000" stroke-width=".88" stroke-miterlimit="10" d="M249.7 74.1c.3 6.2-2.2 11.4-5.4 11.5s-6.1-4.8-6.3-11c-.3-6.2 2.2-11.4 5.4-11.5 3.2-.1 6.1 4.8 6.3 11z"/>
    <path stroke="#000" stroke-width=".92" stroke-miterlimit="10" d="M222.1 65.3l8.1 1.4c6.5 1.1 12.2 5.6 14.4 12 1.5 4.3 1.2 8.4 0 12-2.8 8.6-10.6 14.4-19.4 15.1-14.9 1.2-42.9 1.1-48.4-15.3-7.6-22.6 25.7-25.1 25.7-25.1s-2.1 14.6 8.2 30.7c-.1-.1 10.5-8.5 11.4-30.8z"/>
    <path fill="#C82D38" stroke="#C82D38" stroke-width=".92" stroke-miterlimit="10" d="M217.7 70.4V78l-6.1 7.3-4.6-7.5v-7.5z"/>
    <path fill="#C82D38" stroke="#C82D38" stroke-width=".92" stroke-miterlimit="10" d="M207.03 68.3l.02-3.4 10.7.08-.02 3.4z"/>
    <path fill="#7E431D" stroke="#7E431D" stroke-width=".8" stroke-miterlimit="10" d="M201.2 23.2s2.9-2.1 4.5-6.6c0 0 16.8 1.4 19.9 3.3 0 0-11.1-16.8-24.5-2.1v5.4z"/>
  </g>
  <g id="icon3" stroke-miterlimit="10">
    <path fill="#F7D2A0" stroke="#000" stroke-width=".8" d="M351.5 32.9s-4.1-3.6-2.8 4.9c0 0 .8 2.6 2.3 1.4l.5-6.3z"/>
    <path fill="#F7D2A0" stroke="#000" stroke-width=".8" d="M377.5 34s4.1-3.6 2.8 4.9c0 0-.8 2.6-2.3 1.4l-.5-6.3z"/>
    <ellipse cx="364.5" cy="39.6" fill="#F7D2A0" stroke="#000" stroke-width=".8" rx="13" ry="25"/>
    <path fill="#BB8B3A" stroke="#BB8B3A" stroke-width=".92" d="M374.9 66.7l8.1 1.4c6.5 1.1 12.2 5.6 14.4 12 1.5 4.3 1.2 8.4 0 12-2.8 8.6-10.6 14.4-19.4 15.1-14.9 1.2-42.9 1.1-48.4-15.3-7.6-22.6 25.7-25.1 25.7-25.1s-2.1 14.6 8.2 30.7c-.1-.1 10.4-8.4 11.4-30.8z"/>
    <path fill="#C82D38" stroke="#C82D38" stroke-width=".92" d="M370.5 71.9v7.6l-6.1 7.2-4.7-7.4.1-7.5z"/>
    <path fill="#C82D38" stroke="#C82D38" stroke-width=".92" d="M359.82 69.75l.02-3.4 10.7.07-.02 3.4z"/>
    <path fill="#7E431D" stroke="#7E431D" stroke-width=".8" d="M354 24.7s2.9-2.1 4.5-6.6c0 0 6.6.6 12.3 1.4 2.3.4 3.5-2.8 1.5-4.1-4.5-2.8-11.1-4.1-18.3 3.8v5.5z"/>
    <ellipse cx="392.2" cy="62.9" fill="#D1D3D4" stroke="#D1D3D4" stroke-width=".63" rx="9.7" ry="1.2"/>
    <path fill="#D1D3D4" stroke="#D1D3D4" stroke-width=".63" d="M401.6 63.2c-.6-.1-.5-4.8.2-10.4s1.9-10.2 2.5-10.1c.6.1.5 4.8-.2 10.4-.8 5.7-1.9 10.2-2.5 10.1z"/>
  </g>
  <g id="icon4">
    <path fill="#F7D2A0" stroke="#000" stroke-width=".8" stroke-miterlimit="10" d="M510.8 34.2s-4.1-3.6-2.8 4.9c0 0 .8 2.6 2.3 1.4l.5-6.3z"/>
    <path fill="#F7D2A0" stroke="#000" stroke-width=".8" stroke-miterlimit="10" d="M536.8 35.4s4.1-3.6 2.8 4.9c0 0-.8 2.6-2.3 1.4l-.5-6.3z"/>
    <ellipse cx="523.8" cy="40.9" fill="#F7D2A0" stroke="#000" stroke-width=".8" stroke-miterlimit="10" rx="13" ry="25"/>
    <path fill="#D1D3D4" stroke="#D1D3D4" stroke-width=".92" stroke-miterlimit="10" d="M534.2 68.1l8.1 1.4c6.5 1.1 12.2 5.6 14.4 12 1.5 4.3 1.2 8.4 0 12-2.8 8.6-10.6 14.4-19.4 15.1-14.9 1.2-42.9 1.1-48.4-15.3-7.6-22.6 25.7-25.1 25.7-25.1s-2.1 14.6 8.2 30.7c-.1-.1 10.5-8.5 11.4-30.8z"/>
    <path fill="#C82D38" stroke="#C82D38" stroke-width=".92" stroke-miterlimit="10" d="M529.8 73.2v7.6l-6.1 7.3-4.7-7.5.1-7.4z"/>
    <path fill="#C82D38" stroke="#C82D38" stroke-width=".92" stroke-miterlimit="10" d="M519.08 71.12l.02-3.4 10.7.06-.02 3.4z"/>
    <path fill="#7E431D" d="M532.8 23.4l.5-4.4c-.2-3.8-7.4-3.2-7.4-3.2-3.2-2.3-6-1.4-7.5-.5-.1.1-.2.1-.3.2-2 .9-3.4 2.8-3.5 5.1 0 .6.6 2.6.6 2.6l1.3-2s2.5-.1 4.2-1.2c0 0 5.2 3.2 11.2 2.2l.9 1.2z"/>
  </g>
</svg>
