<svg xmlns="http://www.w3.org/2000/svg" id="whitenurses" viewBox="0 0 385.5 203.8">
  <g id="nurses_1_" stroke-miterlimit="10">
    <path fill="#FEF7E9" stroke="#FEF7E9" stroke-width=".19" d="M22.4 82.1s5.1-11.2 7-20.5c.1-.4 0-.8-.3-1.1-.6-.7-1.9-.9-5.3 3.2-.6.7-1.4 1.2-2.3 1.3-1.2.1-2.5-.4-2.5-3.3 0-.9.2-1.8.4-2.7 1.2-3.7 4.8-15.5 14.7-17.9 0 0 .9 3.5 4 8.2 3-4.7 3.2-8.3 3.2-8.3 10 2.5 14.1 14.4 15.3 18.1.3.9.4 1.8.4 2.7 0 2.9-1.3 3.4-2.5 3.3-.9-.1-1.7-.6-2.3-1.3-3.4-4.1-4.7-3.9-5.3-3.2-.3.3-.4.7-.3 1.1 1.9 9.3 9.7 20.5 9.7 20.5h-8.8v13.2c0 1.2-.5 2.4-1.4 3.2-.8.7-1.9 1-3.1-.1-.8-.8-1.3-1.9-1.3-3l-.4-13.2h-3.7l-.4 13.2c0 1.2-.5 2.3-1.3 3-1.2 1.2-2.3.8-3.1.1-.9-.8-1.4-1.9-1.4-3.2V82.1h-9"/>
    <path stroke="#000" stroke-width=".09" d="M47.4 82.1v13.2c0 1.2-.5 2.4-1.4 3.2-.8.7-1.9 1-3.1-.1-.8-.8-1.3-1.9-1.3-3l-.4-13.2"/>
    <path stroke="#000" stroke-width=".09" d="M37.4 82.1L37 95.3c0 1.2-.5 2.3-1.3 3-1.2 1.2-2.3.8-3.1.1-.9-.8-1.4-1.9-1.4-3.2V82.1"/>
    <ellipse cx="37.4" cy="33.3" fill="#F7D2A0" stroke="#F7D2A0" stroke-width=".19" rx="7.1" ry="7.3"/>
    <path fill="#FEF7E9" stroke="#000" stroke-width=".19" d="M44.6 28.9c-7.4-8.1-13.8-.4-13.8-.4l-3.1-6.3s8.9-4.5 19-.2l-2.1 6.9z"/>
    <path fill="#E12946" stroke="#000" stroke-width=".19" d="M36.8 22.1h-1.2v1.3h1.3l-.1 1.2h1.5v-1.2h1.2l.1-1.3h-1.3v-1.3h-1.5z"/>
    <path fill="#E12946" stroke="#000" stroke-width=".19" d="M42 52.1h-1.3l.1 1.2H42v1.2h1.5v-1.2h1.2v-1.2h-1.2v-1.3H42z"/>
    <ellipse cx="38.3" cy="62.2" fill="#E12946" stroke="#000" stroke-width=".16" rx=".8" ry=".8"/>
    <ellipse cx="38.3" cy="67" fill="#E12946" stroke="#000" stroke-width=".16" rx=".8" ry=".8"/>
    <ellipse cx="38.3" cy="72.4" fill="#E12946" stroke="#000" stroke-width=".16" rx=".8" ry=".8"/>
    <path fill="#FEF7E9" stroke="#FEF7E9" stroke-width=".19" d="M64.8 82.1s5.1-11.2 7-20.5c.1-.4 0-.8-.3-1.1-.6-.7-1.9-.9-5.3 3.2-.6.7-1.4 1.2-2.3 1.3-1.2.1-2.5-.4-2.5-3.3 0-.9.2-1.8.4-2.7 1.2-3.7 4.8-15.5 14.7-17.9 0 0 .9 3.5 4 8.2 3-4.7 3.2-8.3 3.2-8.3 10 2.3 14.2 14.3 15.3 18 .3.9.4 1.8.4 2.7 0 2.9-1.3 3.4-2.5 3.3-.9-.1-1.7-.6-2.3-1.3-3.4-4.1-4.7-3.9-5.3-3.2-.3.3-.4.7-.3 1.1 1.9 9.3 9.7 20.5 9.7 20.5H90v13.2c0 1.2-.5 2.4-1.4 3.2-.8.7-1.9 1-3.1-.1-.8-.8-1.3-1.9-1.3-3l-.4-13.2H80l-.4 13.2c0 1.2-.5 2.3-1.3 3-1.2 1.2-2.3.8-3.1.1-.9-.8-1.4-1.9-1.4-3.2V82.1h-9"/>
    <path stroke="#000" stroke-width=".09" d="M89.9 82.1v13.2c0 1.2-.5 2.4-1.4 3.2-.8.7-1.9 1-3.1-.1-.8-.8-1.3-1.9-1.3-3l-.4-13.2"/>
    <path stroke="#000" stroke-width=".09" d="M79.8 82.1l-.4 13.2c0 1.2-.5 2.3-1.3 3-1.2 1.2-2.3.8-3.1.1-.9-.8-1.4-1.9-1.4-3.2V82.1"/>
    <ellipse cx="79.9" cy="33.3" fill="#F7D2A0" stroke="#F7D2A0" stroke-width=".19" rx="7.1" ry="7.3"/>
    <path fill="#FEF7E9" stroke="#000" stroke-width=".19" d="M87 28.8c-7.4-8.1-13.8-.4-13.8-.4l-3.1-6.3s8.9-4.5 19-.2L87 28.8z"/>
    <path fill="#E12946" stroke="#000" stroke-width=".19" d="M79.3 22.1H78v1.3h1.3v1.2h1.4v-1.2H82v-1.3h-1.3l.1-1.3h-1.5z"/>
    <path fill="#E12946" stroke="#000" stroke-width=".19" d="M84.5 52.1h-1.3v1.2h1.3v1.2h1.4v-1.2h1.3v-1.2h-1.3v-1.3h-1.4z"/>
    <ellipse cx="80.8" cy="62.2" fill="#E12946" stroke="#000" stroke-width=".16" rx=".8" ry=".8"/>
    <ellipse cx="80.8" cy="67" fill="#E12946" stroke="#000" stroke-width=".16" rx=".8" ry=".8"/>
    <ellipse cx="80.8" cy="72.4" fill="#E12946" stroke="#000" stroke-width=".16" rx=".8" ry=".8"/>
    <path fill="#FEF7E9" stroke="#FEF7E9" stroke-width=".19" d="M110.8 82.1s5.1-11.2 7-20.5c.1-.4 0-.8-.3-1.1-.6-.7-1.9-.9-5.3 3.2-.6.7-1.4 1.2-2.3 1.3-1.2.1-2.5-.4-2.5-3.3 0-.9.2-1.8.4-2.7 1.2-3.7 4.8-15.5 14.7-17.9 0 0 .9 3.5 4 8.2 3-4.7 3.2-8.3 3.2-8.3 10 2.5 14.1 14.4 15.3 18.1.3.9.4 1.8.4 2.7 0 2.9-1.3 3.4-2.5 3.3-.9-.1-1.7-.6-2.3-1.3-3.4-4.1-4.7-3.9-5.3-3.2-.3.3-.4.7-.3 1.1 1.9 9.3 9.7 20.5 9.7 20.5H136v13.2c0 1.2-.5 2.4-1.4 3.2-.8.7-1.9 1-3.1-.1-.8-.8-1.3-1.9-1.3-3l-.4-13.2h-3.7l-.4 13.2c0 1.2-.5 2.3-1.3 3-1.2 1.2-2.3.8-3.1.1-.9-.8-1.4-1.9-1.4-3.2V82.1h-9.1"/>
    <path stroke="#000" stroke-width=".09" d="M135.8 82.1v13.2c0 1.2-.5 2.4-1.4 3.2-.8.7-1.9 1-3.1-.1-.8-.8-1.3-1.9-1.3-3l-.4-13.2"/>
    <path stroke="#000" stroke-width=".09" d="M125.8 82.1l-.4 13.2c0 1.2-.5 2.3-1.3 3-1.2 1.2-2.3.8-3.1.1-.9-.8-1.4-1.9-1.4-3.2V82.1"/>
    <ellipse cx="125.9" cy="33.3" fill="#F7D2A0" stroke="#F7D2A0" stroke-width=".19" rx="7.1" ry="7.3"/>
    <path fill="#FEF7E9" stroke="#000" stroke-width=".19" d="M133 28.8c-7.4-8.1-13.8-.4-13.8-.4l-3.1-6.3s8.9-4.5 19-.2l-2.1 6.9z"/>
    <path fill="#E12946" stroke="#000" stroke-width=".19" d="M125.3 22.1H124v1.3h1.3v1.2h1.4v-1.2h1.3v-1.3h-1.3v-1.3h-1.4z"/>
    <path fill="#E12946" stroke="#000" stroke-width=".19" d="M130.5 52.1h-1.3v1.2h1.3v1.2h1.4v-1.2h1.2l.1-1.2h-1.3v-1.3h-1.4z"/>
    <ellipse cx="126.7" cy="62.2" fill="#E12946" stroke="#000" stroke-width=".16" rx=".8" ry=".8"/>
    <ellipse cx="126.7" cy="67" fill="#E12946" stroke="#000" stroke-width=".16" rx=".8" ry=".8"/>
    <ellipse cx="126.7" cy="72.4" fill="#E12946" stroke="#000" stroke-width=".16" rx=".8" ry=".8"/>
    <path fill="#FEF7E9" stroke="#FEF7E9" stroke-width=".19" d="M155.8 82.9s5.1-11.2 7-20.5c.1-.4 0-.8-.3-1.1-.6-.7-1.9-.9-5.3 3.2-.6.7-1.4 1.2-2.3 1.3-1.2.1-2.5-.4-2.5-3.3 0-.9.2-1.8.4-2.7 1.2-3.7 4.8-15.5 14.7-17.9 0 0 .9 3.5 4 8.2 3-4.7 3.2-8.3 3.2-8.3 10 2.5 14.1 14.4 15.3 18.1.3.9.4 1.8.4 2.7 0 2.9-1.3 3.4-2.5 3.3-.9-.1-1.7-.6-2.3-1.3-3.4-4.1-4.7-3.9-5.3-3.2-.3.3-.4.7-.3 1.1 1.9 9.3 9.7 20.5 9.7 20.5H181v13.2c0 1.2-.5 2.4-1.4 3.2-.8.7-1.9 1-3.1-.1-.8-.8-1.3-1.9-1.3-3l-.4-13.2h-3.7l-.4 13.2c0 1.2-.5 2.3-1.3 3-1.2 1.2-2.3.8-3.1.1-.9-.8-1.4-1.9-1.4-3.2V82.9h-9.1"/>
    <path stroke="#000" stroke-width=".09" d="M180.9 82.9v13.2c0 1.2-.5 2.4-1.4 3.2-.8.7-1.9 1-3.1-.1-.8-.8-1.3-1.9-1.3-3l-.4-13.2"/>
    <path stroke="#000" stroke-width=".09" d="M170.8 82.9l-.4 13.2c0 1.2-.5 2.3-1.3 3-1.2 1.2-2.3.8-3.1.1-.9-.8-1.4-1.9-1.4-3.2V82.9"/>
    <ellipse cx="170.9" cy="34.1" fill="#F7D2A0" stroke="#F7D2A0" stroke-width=".19" rx="7.1" ry="7.3"/>
    <path fill="#FEF7E9" stroke="#000" stroke-width=".19" d="M178 29.6c-7.4-8.1-13.8-.4-13.8-.4l-3.1-6.3s8.9-4.5 19-.2l-2.1 6.9z"/>
    <path fill="#E12946" stroke="#000" stroke-width=".19" d="M170.3 22.9H169v1.3h1.3v1.2h1.4v-1.2h1.3v-1.3h-1.3v-1.3h-1.4z"/>
    <path fill="#E12946" stroke="#000" stroke-width=".19" d="M175.5 52.9h-1.3v1.2h1.3v1.2h1.4v-1.2h1.3v-1.2h-1.3v-1.4h-1.4z"/>
    <ellipse cx="171.7" cy="63" fill="#E12946" stroke="#000" stroke-width=".16" rx=".8" ry=".8"/>
    <ellipse cx="171.7" cy="67.8" fill="#E12946" stroke="#000" stroke-width=".16" rx=".8" ry=".8"/>
    <ellipse cx="171.7" cy="73.2" fill="#E12946" stroke="#000" stroke-width=".16" rx=".8" ry=".8"/>
    <path fill="#FEF7E9" stroke="#FEF7E9" stroke-width=".19" d="M201.4 83.9s5.1-11.2 7-20.5c.1-.4 0-.8-.3-1.1-.6-.7-1.9-.9-5.3 3.2-.6.7-1.4 1.2-2.3 1.3-1.2.1-2.5-.4-2.5-3.3 0-.9.2-1.8.4-2.7 1.2-3.7 4.8-15.5 14.7-17.9 0 0 .9 3.5 4 8.2 3-4.7 3.2-8.3 3.2-8.3 10 2.5 14.1 14.4 15.3 18.1.3.9.4 1.8.4 2.7 0 2.9-1.3 3.4-2.5 3.3-.9-.1-1.7-.6-2.3-1.3-3.4-4.1-4.7-3.9-5.3-3.2-.3.3-.4.7-.3 1.1 1.9 9.3 9.7 20.5 9.7 20.5h-8.8v13.2c0 1.2-.5 2.4-1.4 3.2-.8.7-1.9 1-3.1-.1-.8-.8-1.3-1.9-1.3-3l-.4-13.2h-3.7l-.4 13.2c0 1.2-.5 2.3-1.3 3-1.2 1.2-2.3.8-3.1.1-.9-.8-1.4-1.9-1.4-3.2V83.9h-9"/>
    <path stroke="#000" stroke-width=".09" d="M226.4 83.9v13.2c0 1.2-.5 2.4-1.4 3.2-.8.7-1.9 1-3.1-.1-.8-.8-1.3-1.9-1.3-3l-.4-13.2"/>
    <path stroke="#000" stroke-width=".09" d="M216.4 83.9l-.4 13.2c0 1.2-.5 2.3-1.3 3-1.2 1.2-2.3.8-3.1.1-.9-.8-1.4-1.9-1.4-3.2V83.9"/>
    <ellipse cx="216.5" cy="35.1" fill="#F7D2A0" stroke="#F7D2A0" stroke-width=".19" rx="7.1" ry="7.3"/>
    <path fill="#FEF7E9" stroke="#000" stroke-width=".19" d="M223.6 30.6c-7.4-8.1-13.8-.4-13.8-.4l-3.1-6.3s8.9-4.5 19-.2l-2.1 6.9z"/>
    <path fill="#E12946" stroke="#000" stroke-width=".19" d="M215.9 23.9h-1.3v1.3h1.3v1.2h1.4v-1.3h1.3v-1.2h-1.3v-1.3h-1.4z"/>
    <path fill="#E12946" stroke="#000" stroke-width=".19" d="M221.1 53.8h-1.3v1.3h1.3v1.2h1.4v-1.2h1.2l.1-1.3h-1.3v-1.3h-1.4z"/>
    <ellipse cx="217.3" cy="63.9" fill="#E12946" stroke="#000" stroke-width=".16" rx=".8" ry=".8"/>
    <ellipse cx="217.3" cy="68.8" fill="#E12946" stroke="#000" stroke-width=".16" rx=".8" ry=".8"/>
    <ellipse cx="217.3" cy="74.2" fill="#E12946" stroke="#000" stroke-width=".16" rx=".8" ry=".8"/>
    <path fill="#FEF7E9" stroke="#FEF7E9" stroke-width=".19" d="M246.6 83s5.1-11.2 7-20.5c.1-.4 0-.8-.3-1.1-.6-.7-1.9-.9-5.3 3.2-.6.7-1.4 1.2-2.3 1.3-1.2.1-2.5-.4-2.5-3.3 0-.9.2-1.8.4-2.7 1.2-3.7 4.8-15.5 14.7-17.9 0 0 .9 3.5 4 8.2 3-4.7 3.2-8.3 3.2-8.3 10 2.5 14.1 14.4 15.3 18.1.3.9.4 1.8.4 2.7 0 2.9-1.3 3.4-2.5 3.3-.9-.1-1.7-.6-2.3-1.3-3.4-4.1-4.7-3.9-5.3-3.2-.3.3-.4.7-.3 1.1 1.9 9.3 9.7 20.5 9.7 20.5h-8.8v13.2c0 1.2-.5 2.4-1.4 3.2-.8.7-1.9 1-3.1-.1-.8-.8-1.3-1.9-1.3-3l-.5-13.4h-3.7l-.4 13.2c0 1.2-.5 2.3-1.3 3-1.2 1.2-2.3.8-3.1.1-.9-.8-1.4-1.9-1.4-3.2V83h-8.9"/>
    <path stroke="#000" stroke-width=".09" d="M271.6 83v13.2c0 1.2-.5 2.4-1.4 3.2-.8.7-1.9 1-3.1-.1-.8-.8-1.3-1.9-1.3-3l-.5-13.3"/>
    <path stroke="#000" stroke-width=".09" d="M261.6 83l-.4 13.2c0 1.2-.5 2.3-1.3 3-1.2 1.2-2.3.8-3.1.1-.9-.8-1.4-1.9-1.4-3.2V83"/>
    <ellipse cx="261.6" cy="34.2" fill="#F7D2A0" stroke="#F7D2A0" stroke-width=".19" rx="7.1" ry="7.3"/>
    <path fill="#FEF7E9" stroke="#000" stroke-width=".19" d="M268.8 29.7c-7.4-8.1-13.8-.4-13.8-.4l-3.1-6.3s8.9-4.5 19-.2l-2.1 6.9z"/>
    <path fill="#E12946" stroke="#000" stroke-width=".19" d="M261 23h-1.2v1.3h1.3l-.1 1.2h1.5v-1.3h1.2l.1-1.2h-1.3v-1.3H261z"/>
    <path fill="#E12946" stroke="#000" stroke-width=".19" d="M266.2 52.9h-1.3l.1 1.3h1.2v1.2h1.5v-1.2h1.2v-1.3h-1.2v-1.3h-1.5z"/>
    <ellipse cx="262.5" cy="63" fill="#E12946" stroke="#000" stroke-width=".16" rx=".8" ry=".8"/>
    <ellipse cx="262.5" cy="67.9" fill="#E12946" stroke="#000" stroke-width=".16" rx=".8" ry=".8"/>
    <ellipse cx="262.5" cy="73.3" fill="#E12946" stroke="#000" stroke-width=".16" rx=".8" ry=".8"/>
    <path fill="#FEF7E9" stroke="#FEF7E9" stroke-width=".19" d="M291.6 83.8s5.1-11.2 7-20.5c.1-.4 0-.8-.3-1.1-.6-.7-1.9-.9-5.3 3.2-.6.7-1.4 1.2-2.3 1.3-1.2.1-2.5-.4-2.5-3.3 0-.9.2-1.8.4-2.7 1.2-3.7 4.8-15.5 14.7-17.9 0 0 .9 3.5 4 8.2 3-4.7 3.2-8.3 3.2-8.3 10 2.5 14.1 14.4 15.3 18.1.3.9.4 1.8.4 2.7 0 2.9-1.3 3.4-2.5 3.3-.9-.1-1.7-.6-2.3-1.3-3.4-4.1-4.7-3.9-5.3-3.2-.3.3-.4.7-.3 1.1 1.9 9.3 9.7 20.5 9.7 20.5h-8.8V97c0 1.2-.5 2.4-1.4 3.2-.8.7-1.9 1-3.1-.1-.8-.8-1.3-1.9-1.3-3l-.4-13.2h-3.7l-.5 13.1c0 1.2-.5 2.3-1.3 3-1.2 1.2-2.3.8-3.1.1-.9-.8-1.4-1.9-1.4-3.2V83.8h-8.9"/>
    <path stroke="#000" stroke-width=".09" d="M316.6 83.8V97c0 1.2-.5 2.4-1.4 3.2-.8.7-1.9 1-3.1-.1-.8-.8-1.3-1.9-1.3-3l-.4-13.2"/>
    <path stroke="#000" stroke-width=".09" d="M306.6 83.8l-.5 13.2c0 1.2-.5 2.3-1.3 3-1.2 1.2-2.3.8-3.1.1-.9-.8-1.4-1.9-1.4-3.2V83.8"/>
    <ellipse cx="306.6" cy="35" fill="#F7D2A0" stroke="#F7D2A0" stroke-width=".19" rx="7.1" ry="7.3"/>
    <path fill="#FEF7E9" stroke="#000" stroke-width=".19" d="M313.8 30.5c-7.4-8.1-13.8-.4-13.8-.4l-3.1-6.3s8.9-4.5 19-.2l-2.1 6.9z"/>
    <path fill="#E12946" stroke="#000" stroke-width=".19" d="M306.1 23.8h-1.3v1.3h1.3v1.2h1.4V25h1.2l.1-1.2h-1.3v-1.3h-1.4z"/>
    <path fill="#E12946" stroke="#000" stroke-width=".19" d="M311.2 53.7H310V55h1.2v1.2h1.5V55h1.2v-1.3h-1.2v-1.3h-1.5z"/>
    <ellipse cx="307.5" cy="63.8" fill="#E12946" stroke="#000" stroke-width=".16" rx=".8" ry=".8"/>
    <ellipse cx="307.5" cy="68.7" fill="#E12946" stroke="#000" stroke-width=".16" rx=".8" ry=".8"/>
    <ellipse cx="307.5" cy="74.1" fill="#E12946" stroke="#000" stroke-width=".16" rx=".8" ry=".8"/>
    <path fill="#FEF7E9" stroke="#FEF7E9" stroke-width=".19" d="M335.4 84.8s5.1-11.2 7-20.5c.1-.4 0-.8-.3-1.1-.6-.7-1.9-.9-5.3 3.2-.6.7-1.4 1.2-2.3 1.3-1.2.1-2.5-.4-2.5-3.3 0-.9.2-1.8.4-2.7 1.2-3.7 4.8-15.5 14.7-17.9 0 0 .9 3.5 4 8.2 3-4.7 3.2-8.3 3.2-8.3 10 2.5 14.1 14.4 15.3 18.1.3.9.4 1.8.4 2.7 0 2.9-1.3 3.4-2.5 3.3-.9-.1-1.7-.6-2.3-1.3-3.4-4.1-4.7-3.9-5.3-3.2-.3.3-.4.7-.3 1.1 1.9 9.3 9.7 20.5 9.7 20.5h-8.8V98c0 1.2-.5 2.4-1.4 3.2-.8.7-1.9 1-3.1-.1-.8-.8-1.3-1.9-1.3-3l-.4-13.2h-3.7l-.5 13.1c0 1.2-.5 2.3-1.3 3-1.2 1.2-2.3.8-3.1.1-.9-.8-1.4-1.9-1.4-3.2V84.8h-8.9"/>
    <path stroke="#000" stroke-width=".09" d="M360.5 84.8V98c0 1.2-.5 2.4-1.4 3.2-.8.7-1.9 1-3.1-.1-.8-.8-1.3-1.9-1.3-3l-.4-13.2"/>
    <path stroke="#000" stroke-width=".09" d="M350.4 84.8L350 98c0 1.2-.5 2.3-1.3 3-1.2 1.2-2.3.8-3.1.1-.9-.8-1.4-1.9-1.4-3.2V84.8"/>
    <ellipse cx="350.5" cy="36" fill="#F7D2A0" stroke="#F7D2A0" stroke-width=".19" rx="7.1" ry="7.3"/>
    <path fill="#FEF7E9" stroke="#000" stroke-width=".19" d="M357.6 31.5c-7.4-8.1-13.8-.4-13.8-.4l-3.1-6.3s8.9-4.5 19-.2l-2.1 6.9z"/>
    <path fill="#E12946" stroke="#000" stroke-width=".19" d="M349.9 24.8h-1.3l.1 1.2 1.2.1v1.2h1.5V26h1.2v-1.2h-1.2v-1.3h-1.5z"/>
    <path fill="#E12946" stroke="#000" stroke-width=".19" d="M355.1 54.7h-1.3V56h1.3v1.2h1.4V56h1.3v-1.3h-1.3l.1-1.3h-1.5z"/>
    <ellipse cx="351.4" cy="64.8" fill="#E12946" stroke="#000" stroke-width=".16" rx=".8" ry=".8"/>
    <ellipse cx="351.4" cy="69.6" fill="#E12946" stroke="#000" stroke-width=".16" rx=".8" ry=".8"/>
    <ellipse cx="351.4" cy="75.1" fill="#E12946" stroke="#000" stroke-width=".16" rx=".8" ry=".8"/>
  </g>
  <g id="females">
    <path fill="#C82D38" d="M34.5 132.9v-1.8h.2c1.6 0 2-.6 2-2.3 0-.8 0-2.4-1.1-2.4-1 0-1.1 1.1-1.1 1.9v.5h-1.8v-.1c0-2.2.3-4 2.9-4 2.4 0 3 1.7 3 3.8 0 1.4-.1 3-1.6 3.5 1.6.4 1.8 2 1.8 3.4 0 2.4-.7 4.4-3.3 4.4-2.2 0-3-1.3-3-3.4v-.4h1.8v.5c0 .8.3 1.6 1.2 1.6 1.4 0 1.4-1.8 1.4-2.8 0-1.3-.2-2.5-1.7-2.4h-.7z"/>
    <path fill="#C82D38" d="M40.2 138.7c0-.6.5-1.2 1.1-1.2.6 0 1.1.5 1.1 1.2s-.5 1.2-1.1 1.2c-.6 0-1.1-.6-1.1-1.2z"/>
    <path fill="#C82D38" d="M44.2 129.2c0-2.3.3-4.4 3.1-4.4 2.4 0 3.2 1.4 3.2 3.6s-1.5 5.3-2.5 7.2l-1.2 2.4h3.6v1.7H44l3.5-7.6c.5-1.2 1-2.5 1-3.8 0-.8-.3-1.8-1.3-1.8-1.3 0-1.1 2.2-1.1 2.8v.4h-1.9v-.5z"/>
    <path fill="#C82D38" d="M57.7 131c.4-.8 1-1.4 1.9-1.4.9 0 1.5.5 1.7 1.4.4-.9 1-1.4 2-1.4 1.7 0 2.1 1.1 2.1 2.4v7.7h-1.8v-6.9c0-.7-.1-1.5-1-1.5-1.3 0-1.1 1.2-1.1 2.1v6.3h-1.8V133c0-.8 0-1.7-1-1.7-1.1 0-1 1.3-1.1 2.1v6.3h-1.8v-9.9h1.8v1.2z"/>
    <path fill="#C82D38" d="M66.8 126.8c0-.7.5-1.2 1.2-1.2.6 0 1.2.5 1.2 1.2s-.6 1.2-1.2 1.2c-.7.1-1.2-.5-1.2-1.2zm2.1 12.9h-1.8v-9.9h1.8v9.9z"/>
    <path fill="#C82D38" d="M72.3 139.7h-1.8v-16.2h1.8v16.2z"/>
    <path fill="#C82D38" d="M75.8 139.7H74v-16.2h1.8v16.2z"/>
    <path fill="#C82D38" d="M77.1 126.8c0-.7.5-1.2 1.2-1.2.6 0 1.2.5 1.2 1.2s-.6 1.2-1.2 1.2c-.7.1-1.2-.5-1.2-1.2zm2.1 12.9h-1.8v-9.9h1.8v9.9z"/>
    <path fill="#C82D38" d="M80.6 134.8c0-2.2.3-5.1 3-5.1s3 3 3 5.1c0 2.1-.3 5.1-3 5.1s-3-3-3-5.1zm4.2 0c0-.8.2-3.4-1.2-3.4s-1.2 2.7-1.2 3.4c0 .7-.2 3.4 1.2 3.4s1.2-2.7 1.2-3.4z"/>
    <path fill="#C82D38" d="M89.8 131c.4-.8 1-1.3 2-1.3 1.9 0 2 1.7 2 3.2v6.8H92v-6.8c0-.7-.1-1.6-1.1-1.6-1.2 0-1.1 1.4-1.1 2.2v6.2H88v-9.9h1.8v1.2z"/>
    <path d="M99.8 129.8v-3.2c0-1.7.1-3.3 2.2-3.3.5 0 .8.1 1.2.3v1.9c-.2-.1-.5-.2-.7-.2-.9 0-.8.9-.8 1.6v3h1.5v1.4h-1.5v8.4h-1.8v-8.4H99v-1.4h.8z"/>
    <path d="M105.6 135.1c0 .8 0 3.1 1.1 3.1 1 0 1.1-1.1 1.1-1.8h1.7c0 1.8-.8 3.5-2.8 3.5-2.7 0-2.9-2.9-2.9-5 0-2 .2-5.2 2.9-5.2 2.6 0 2.9 3.1 2.9 5.2v.3h-4zm2.1-1.3c0-.8 0-2.5-1.1-2.5s-1 1.7-1 2.5h2.1z"/>
    <path d="M112.7 131c.4-.8 1-1.4 1.9-1.4.9 0 1.5.5 1.7 1.4.4-.9 1-1.4 2-1.4 1.7 0 2.1 1.1 2.1 2.4v7.7h-1.8v-6.9c0-.7-.1-1.5-1-1.5-1.3 0-1.1 1.2-1.1 2.1v6.3h-1.8V133c0-.8 0-1.7-1-1.7-1.1 0-1 1.3-1.1 2.1v6.3h-1.8v-9.9h1.8v1.2z"/>
    <path d="M126 138.4c-.4.9-.8 1.4-1.8 1.4-2.2 0-2.3-3.6-2.3-5.2s.1-5 2.3-5c.8 0 1.4.5 1.7 1.3v-1.1h1.8v9.9H126v-1.3zm0-3.6c0-.8.1-3.4-1.1-3.4-1.3 0-1.2 2.6-1.2 3.4 0 .8-.2 3.5 1.2 3.5 1.2-.1 1.1-2.8 1.1-3.5z"/>
    <path d="M131.2 139.7h-1.8v-16.2h1.8v16.2z"/>
    <path d="M134.4 135.1c0 .8 0 3.1 1.1 3.1 1 0 1.1-1.1 1.1-1.8h1.7c0 1.8-.8 3.5-2.8 3.5-2.7 0-2.9-2.9-2.9-5 0-2 .2-5.2 2.9-5.2 2.6 0 2.9 3.1 2.9 5.2v.3h-4zm2.1-1.3c0-.8 0-2.5-1.1-2.5s-1 1.7-1 2.5h2.1z"/>
    <path d="M143.4 131.8c-.3-.3-.9-.5-1.3-.5-.7 0-1.2.4-1.2 1.1 0 1.7 3 1.7 3 4.6 0 1.7-1 2.9-2.8 2.9-.6 0-1-.1-1.6-.5v-1.8c.5.4.9.6 1.5.6.8 0 1.2-.5 1.2-1.3 0-1.7-3-1.9-3-4.6 0-1.6 1-2.7 2.6-2.7.6 0 1.1.1 1.6.4v1.8z"/>
  </g>
  <g fill="#C82D38">
    <path d="M307.5 168.6l7.2-15.4-.1-.1c-1 1-2 1.5-3.6 1.5-5.6 0-6.2-6.3-6.2-10.7 0-5.7.4-12.6 7.7-12.6s7.8 6.8 7.8 12.5c0 8.1-2 13.3-5.4 20.4l-2.1 4.4h-5.3zm7.8-25.8c0-2.1 0-7.1-2.9-7.1s-2.8 5.3-2.8 7.4c0 2.2 0 7 2.8 7 3.1 0 2.9-5.2 2.9-7.3z"/>
    <path d="M334.3 131.7v36.9h-4.7V136h-3.5v-4.3h8.2z"/>
    <path d="M354 140c0 3.5-.4 8.8-5.1 8.8s-5.1-5.2-5.1-8.8c0-3.6.4-8.8 5.1-8.8s5.1 5.3 5.1 8.8zm11.3-8.3l-17.8 36.9h-3l17.8-36.9h3zm-14.5 8.3c0-1.2.2-5.8-1.9-5.8s-1.9 4.6-1.9 5.8c0 1.3-.2 5.8 1.9 5.8s1.9-4.5 1.9-5.8zm15.3 20.3c0 3.5-.4 8.8-5.1 8.8s-5.1-5.2-5.1-8.8c0-3.6.4-8.8 5.1-8.8s5.1 5.2 5.1 8.8zm-7-.1c0 1.3-.2 5.9 1.9 5.9s1.9-4.6 1.9-5.9c0-1.2.2-5.8-1.9-5.8s-1.9 4.6-1.9 5.8z"/>
  </g>
  <g id="age">
    <path d="M177.4 124.9l2 10.6.1-.6.6-3.5 1.2-6.5h1.7l1.3 14.8h-1.9l-.3-5.5-.1-2.7v-1.9l-.3 2.1-1.5 8.1h-1.3l-1.9-10.2-.6 10.2h-1.8l1.2-14.8h1.6z"/>
    <path d="M187.2 135.1c0 .8 0 3.1 1.1 3.1 1 0 1.1-1.1 1.1-1.8h1.7c0 1.8-.8 3.5-2.8 3.5-2.7 0-2.9-2.9-2.9-5 0-2 .2-5.2 2.9-5.2 2.6 0 2.9 3.1 2.9 5.2v.3h-4zm2.1-1.3c0-.8 0-2.5-1.1-2.5s-1 1.7-1 2.5h2.1z"/>
    <path d="M196.3 138.4c-.4.9-.8 1.4-1.8 1.4-2.2 0-2.3-3.6-2.3-5.2s.1-5 2.3-5c.9 0 1.4.5 1.7 1.3v-7.5h1.8v16.2h-1.8v-1.2zm.1-3.6c0-.8.1-3.4-1.1-3.4-1.3 0-1.2 2.6-1.2 3.4 0 .8-.2 3.5 1.2 3.5 1.2-.1 1.1-2.8 1.1-3.5z"/>
    <path d="M199.5 126.8c0-.7.5-1.2 1.2-1.2.6 0 1.2.5 1.2 1.2s-.6 1.2-1.2 1.2c-.7.1-1.2-.5-1.2-1.2zm2.1 12.9h-1.8v-9.9h1.8v9.9z"/>
    <path d="M207 138.4c-.4.9-.8 1.4-1.8 1.4-2.2 0-2.3-3.6-2.3-5.2s.1-5 2.3-5c.8 0 1.4.5 1.7 1.3v-1.1h1.8v9.9H207v-1.3zm.1-3.6c0-.8.1-3.4-1.1-3.4-1.3 0-1.2 2.6-1.2 3.4 0 .8-.2 3.5 1.2 3.5 1.2-.1 1.1-2.8 1.1-3.5z"/>
    <path d="M212.3 131c.4-.8 1-1.3 2-1.3 1.9 0 2 1.7 2 3.2v6.8h-1.8v-6.8c0-.7-.1-1.6-1.1-1.6-1.2 0-1.1 1.4-1.1 2.2v6.2h-1.8v-9.9h1.8v1.2z"/>
    <path d="M225.6 138.4c-.4.9-.8 1.4-1.8 1.4-2.2 0-2.3-3.6-2.3-5.2s.1-5 2.3-5c.8 0 1.4.5 1.7 1.3v-1.1h1.8v9.9h-1.8v-1.3zm0-3.6c0-.8.1-3.4-1.1-3.4-1.3 0-1.2 2.6-1.2 3.4 0 .8-.2 3.5 1.2 3.5 1.2-.1 1.1-2.8 1.1-3.5z"/>
    <path d="M234.6 139.8c0 3.5-1 4.1-2.9 4.1-1.7 0-2.8-1-2.8-2.9v-.3h1.7c0 .7.2 1.5 1.1 1.5 1.2 0 1.1-1.2 1.1-2.1v-1.6c-.2.8-.8 1.4-1.7 1.3-2.3 0-2.3-3.3-2.3-5 0-1.6 0-5.2 2.3-5.2 1 0 1.4.5 1.8 1.3v-1.1h1.8v10zm-2.9-8.5c-1.2 0-1.1 2.7-1.1 3.4 0 .7-.1 3.5 1.2 3.5s1.1-2.6 1.1-3.4c0-.8 0-3.5-1.2-3.5z"/>
    <path d="M237.9 135.1c0 .8 0 3.1 1.1 3.1 1 0 1.1-1.1 1.1-1.8h1.7c0 1.8-.8 3.5-2.8 3.5-2.7 0-2.9-2.9-2.9-5 0-2 .2-5.2 2.9-5.2 2.6 0 2.9 3.1 2.9 5.2v.3h-4zm2.1-1.3c0-.8 0-2.5-1.1-2.5s-1 1.7-1 2.5h2.1z"/>
    <path d="M243.2 130.8c0-.6.5-1.2 1.1-1.2.6 0 1.1.5 1.1 1.2s-.5 1.2-1.1 1.2c-.6 0-1.1-.5-1.1-1.2zm0 7.9c0-.6.5-1.2 1.1-1.2.6 0 1.1.5 1.1 1.2s-.5 1.2-1.1 1.2c-.6 0-1.1-.6-1.1-1.2z"/>
    <path fill="#C82D38" d="M253.1 132.9v-1.8h.2c1.6 0 2-.6 2-2.3 0-.8 0-2.4-1.1-2.4-1 0-1.1 1.1-1.1 1.9v.5h-1.8v-.1c0-2.2.3-4 2.9-4 2.4 0 3 1.7 3 3.8 0 1.4-.1 3-1.6 3.5 1.6.4 1.8 2 1.8 3.4 0 2.4-.7 4.4-3.3 4.4-2.2 0-3-1.3-3-3.4v-.4h1.8v.5c0 .8.3 1.6 1.2 1.6 1.4 0 1.4-1.8 1.4-2.8 0-1.3-.2-2.5-1.7-2.4h-.7z"/>
    <path fill="#C82D38" d="M264.9 124.9v1.7h-3.1l-.5 3.7c2.6-.1 3.8 1.7 3.8 4.2 0 2.7-1 5.4-4 5.4-.8 0-1.5-.3-2.2-.6l.5-1.7c.6.3 1 .6 1.7.6 1.7 0 2.2-2 2.2-3.3 0-1.7-.7-2.9-2.5-2.9-.4 0-.8.1-1.2.2l.8-7.2h4.5z"/>
  </g>
  <g id="earnings">
    <path d="M34.3 164.1l2 10.6.1-.6.6-3.5 1.2-6.5h1.7l1.3 14.8h-1.9l-.3-5.5-.1-2.7v-1.9l-.3 2.1-1.5 8.1h-1.3l-1.9-10.2-.6 10.2h-1.8l1.2-14.8h1.6z"/>
    <path d="M44.1 174.2c0 .8 0 3.1 1.1 3.1 1 0 1.1-1.1 1.1-1.8H48c0 1.8-.8 3.5-2.8 3.5-2.7 0-2.9-2.9-2.9-5 0-2 .2-5.2 2.9-5.2 2.6 0 2.9 3.1 2.9 5.2v.3h-4zm2.1-1.3c0-.8 0-2.5-1.1-2.5s-1 1.7-1 2.5h2.1z"/>
    <path d="M53.2 177.5c-.4.9-.8 1.4-1.8 1.4-2.2 0-2.3-3.6-2.3-5.2s.1-5 2.3-5c.9 0 1.4.5 1.7 1.3v-7.5H55v16.2h-1.8v-1.2zm.1-3.6c0-.8.1-3.4-1.1-3.4-1.3 0-1.2 2.6-1.2 3.4 0 .8-.2 3.5 1.2 3.5 1.2-.1 1.1-2.7 1.1-3.5z"/>
    <path d="M56.4 165.9c0-.7.5-1.2 1.2-1.2.6 0 1.2.5 1.2 1.2s-.6 1.2-1.2 1.2c-.7.1-1.2-.5-1.2-1.2zm2 12.9h-1.8v-9.9h1.8v9.9z"/>
    <path d="M63.9 177.5c-.4.9-.8 1.4-1.8 1.4-2.2 0-2.3-3.6-2.3-5.2s.1-5 2.3-5c.8 0 1.4.5 1.7 1.3v-1.1h1.8v9.9h-1.8v-1.3zm.1-3.6c0-.8.1-3.4-1.1-3.4-1.3 0-1.2 2.6-1.2 3.4 0 .8-.2 3.5 1.2 3.5 1.1-.1 1.1-2.7 1.1-3.5z"/>
    <path d="M69.1 170.1c.4-.8 1-1.3 2-1.3 1.9 0 2 1.7 2 3.2v6.8h-1.8V172c0-.7-.1-1.6-1.1-1.6-1.2 0-1.1 1.4-1.1 2.2v6.2h-1.8v-9.9h1.8v1.2z"/>
    <path d="M80.2 174.2c0 .8 0 3.1 1.1 3.1 1 0 1.1-1.1 1.1-1.8h1.7c0 1.8-.8 3.5-2.8 3.5-2.7 0-2.9-2.9-2.9-5 0-2 .2-5.2 2.9-5.2 2.6 0 2.9 3.1 2.9 5.2v.3h-4zm2.1-1.3c0-.8 0-2.5-1.1-2.5s-1 1.7-1 2.5h2.1z"/>
    <path d="M89.3 177.5c-.4.9-.8 1.4-1.8 1.4-2.2 0-2.3-3.6-2.3-5.2s.1-5 2.3-5c.8 0 1.4.5 1.7 1.3v-1.1H91v9.9h-1.8v-1.3zm.1-3.6c0-.8.1-3.4-1.1-3.4-1.3 0-1.2 2.6-1.2 3.4 0 .8-.2 3.5 1.2 3.5 1.2-.1 1.1-2.7 1.1-3.5z"/>
    <path d="M94.6 170.1c.5-.9 1.1-1.4 2.1-1.4v1.8h-.3c-1.3 0-1.8.8-1.8 2v6.2h-1.8v-9.9h1.8v1.3z"/>
    <path d="M99.7 170.1c.4-.8 1-1.3 2-1.3 1.9 0 2 1.7 2 3.2v6.8h-1.8V172c0-.7-.1-1.6-1.1-1.6-1.2 0-1.1 1.4-1.1 2.2v6.2h-1.8v-9.9h1.8v1.2z"/>
    <path d="M105 165.9c0-.7.5-1.2 1.2-1.2.6 0 1.2.5 1.2 1.2s-.6 1.2-1.2 1.2c-.7.1-1.2-.5-1.2-1.2zm2.1 12.9h-1.8v-9.9h1.8v9.9z"/>
    <path d="M110.5 170.1c.4-.8 1-1.3 2-1.3 1.9 0 2 1.7 2 3.2v6.8h-1.8V172c0-.7-.1-1.6-1.1-1.6-1.2 0-1.1 1.4-1.1 2.2v6.2h-1.8v-9.9h1.8v1.2z"/>
    <path d="M121.8 178.9c0 3.5-1 4.1-2.9 4.1-1.7 0-2.8-1-2.8-2.9v-.3h1.7c0 .7.2 1.5 1.1 1.5 1.2 0 1.1-1.2 1.1-2.1v-1.6c-.2.8-.8 1.4-1.7 1.3-2.3 0-2.3-3.3-2.3-5 0-1.6 0-5.2 2.3-5.2 1 0 1.4.5 1.8 1.3v-1.1h1.8v10zm-3-8.5c-1.2 0-1.1 2.7-1.1 3.4 0 .7-.1 3.5 1.2 3.5s1.1-2.6 1.1-3.4c0-.8 0-3.5-1.2-3.5z"/>
    <path d="M127.1 171c-.3-.3-.9-.5-1.3-.5-.7 0-1.2.4-1.2 1.1 0 1.7 3 1.7 3 4.6 0 1.7-1 2.9-2.8 2.9-.6 0-1-.1-1.6-.5v-1.8c.5.4.9.6 1.5.6.8 0 1.2-.5 1.2-1.3 0-1.7-3-1.9-3-4.6 0-1.6 1-2.7 2.6-2.7.6 0 1.1.1 1.6.4v1.8z"/>
    <path d="M128.7 170c0-.6.5-1.2 1.1-1.2.6 0 1.1.5 1.1 1.2s-.5 1.2-1.1 1.2c-.6-.1-1.1-.6-1.1-1.2zm0 7.8c0-.6.5-1.2 1.1-1.2.6 0 1.1.5 1.1 1.2s-.5 1.2-1.1 1.2c-.6 0-1.1-.5-1.1-1.2z"/>
    <path fill="#44A13F" d="M140 162.8v1.3c1.4.1 2.4.8 2.8 2.2l-1.5.9c-.2-.8-.8-1.4-1.7-1.4-1.2 0-1.6.9-1.6 1.9 0 1.6 1 2.1 2.3 3 1.8 1.2 2.6 1.8 2.6 4.1 0 2.1-.6 3.9-3 4.1v1.3h-.9v-1.3c-1.5-.1-2.3-.8-2.8-2.2l1.6-.8c.2.9.7 1.4 1.6 1.4 1.2 0 1.6-1 1.6-2.2 0-1.7-.8-2-2-2.8-1.9-1.2-2.9-2.1-2.9-4.5 0-1.9.9-3.5 2.9-3.7v-1.3h1z"/>
    <path fill="#44A13F" d="M150.4 164.1v1.7h-3.1l-.5 3.7c2.6-.1 3.8 1.7 3.8 4.2 0 2.7-1 5.4-4 5.4-.8 0-1.5-.3-2.2-.6l.5-1.7c.6.3 1 .6 1.7.6 1.7 0 2.2-2 2.2-3.3 0-1.7-.7-2.9-2.5-2.9-.4 0-.8.1-1.2.2l.8-7.2h4.5z"/>
    <path fill="#44A13F" d="M156.2 164.1v14.8h-1.9v-13.1h-1.4v-1.7h3.3z"/>
    <path fill="#44A13F" d="M162.2 177.2l-1.9 5.2-1-.3 1.3-5.4 1.6.5z"/>
    <path fill="#44A13F" d="M170.3 171.4c0 2.3.2 7.6-3.3 7.6s-3.3-5.2-3.3-7.6c0-2.3-.2-7.6 3.3-7.6s3.3 5.3 3.3 7.6zm-3.3-5.8c-1.3 0-1.4 2.7-1.4 5.8 0 3.1.1 5.8 1.4 5.8s1.4-2.7 1.4-5.8c0-3-.1-5.8-1.4-5.8z"/>
    <path fill="#44A13F" d="M178.1 171.4c0 2.3.2 7.6-3.3 7.6s-3.3-5.2-3.3-7.6c0-2.3-.2-7.6 3.3-7.6s3.3 5.3 3.3 7.6zm-3.2-5.8c-1.3 0-1.4 2.7-1.4 5.8 0 3.1.1 5.8 1.4 5.8s1.4-2.7 1.4-5.8c0-3-.1-5.8-1.4-5.8z"/>
    <path fill="#44A13F" d="M186 171.4c0 2.3.2 7.6-3.3 7.6s-3.3-5.2-3.3-7.6c0-2.3-.2-7.6 3.3-7.6s3.3 5.3 3.3 7.6zm-3.3-5.8c-1.3 0-1.4 2.7-1.4 5.8 0 3.1.1 5.8 1.4 5.8s1.4-2.7 1.4-5.8c0-3-.1-5.8-1.4-5.8z"/>
  </g>
  <g id="money">
    <path fill="#50B848" stroke="#50B848" stroke-width=".08" stroke-miterlimit="10" d="M215.7 159.7s-6.3 1.4-9.3 7.8c-3 6.4 1.3 12.7 1.3 12.7s7.9 9 17.8 4.2c0 0 3.9-5 3.2-9.2-.4-2.4-.3-5.9-.2-7.7.1-1.5-.3-2.9-1.1-4.1-.8-1.2-2.2-2.4-4.6-2.4 0 0-1.5.2-3-1.1 0 0-1.8.8-4.1-.2z"/>
    <path fill="#629444" stroke="#629444" stroke-width=".08" stroke-miterlimit="10" d="M214.6 149.3l3.5 1.6s2.3-.5.5-2.5c-1.8-1.8-4 .9-4 .9z"/>
    <path fill="#629444" stroke="#629444" stroke-width=".08" stroke-miterlimit="10" d="M217.2 150.5l3.5 1.6s3-.6 1.2-2.5-4.7.9-4.7.9z"/>
    <path fill="#50B848" stroke="#50B848" stroke-width=".08" stroke-miterlimit="10" d="M215.4 159.8c1.7-1.8-.7-10.4-.7-10.4l6.4 2.7s-2.2 4.5-1.3 7.9"/>
    <path d="M223.1 175.5c.1 1.3-.4 2.4-1.3 3.3-.8.8-1.9 1.3-3.2 1.4l.1 1.4-1 .1-.1-1.4c-.3 0-.9-.1-1.6-.4-.7-.2-1.1-.3-1.3-.3-.4 0-.6.3-.6.8h-.7l-1-5.2h.7c1 2.5 2.5 3.8 4.4 4l-.3-6.3c-1.4-.8-2.4-1.4-2.9-1.8-1-.8-1.5-1.8-1.6-3v-.1c-.1-1.2.3-2.2 1.1-3.1.8-.8 1.7-1.3 2.9-1.4l-.1-1.4 1-.1.1 1.6s.4.1 1.2.4c.5.1.9.2 1.2.2.4 0 .7-.3.9-.9h.6l.8 5.3h-.7c-1-2.5-2.3-3.8-3.9-3.9l.3 5.5c1.7 1 2.8 1.7 3.3 2.1 1.1.8 1.6 1.9 1.7 3.2zm-6.3-10.9c-.5.1-1 .4-1.4.8-.4.4-.6.9-.5 1.5 0 .8.8 1.7 2.2 2.6l-.3-4.9zm3.9 11.7c-.1-1.1-.9-2.1-2.5-3l.3 5.8c.7-.1 1.2-.4 1.6-.9.4-.6.6-1.2.6-1.9z"/>
    <path fill="#50B848" stroke="#50B848" stroke-width=".08" stroke-miterlimit="10" d="M215.7 159.7v.9l3.1.2 1.3-.4-.3-.5"/>
    <path fill="#50B848" stroke="#50B848" stroke-width=".07" stroke-miterlimit="10" d="M231.8 162.6s-5.4 1.2-8 6.7c-2.6 5.5 1.1 10.9 1.1 10.9s6.8 7.7 15.2 3.6c0 0 3.3-4.3 2.7-7.9-.3-2.1-.2-5-.2-6.6.1-1.2-.2-2.5-.9-3.5-.7-1.1-1.9-2.1-3.9-2.1 0 0-1.3.1-2.6-.9 0 0-1.4.7-3.4-.2z"/>
    <path fill="#629444" stroke="#629444" stroke-width=".07" stroke-miterlimit="10" d="M230.9 153.8l3 1.4s2-.4.4-2.1c-1.6-1.7-3.4.7-3.4.7z"/>
    <path fill="#629444" stroke="#629444" stroke-width=".07" stroke-miterlimit="10" d="M233.1 154.8l3 1.4s2.6-.5 1-2.1-4 .7-4 .7z"/>
    <path fill="#50B848" stroke="#50B848" stroke-width=".07" stroke-miterlimit="10" d="M231.5 162.7c1.4-1.6-.6-8.9-.6-8.9l5.5 2.3s-1.9 3.8-1.1 6.7"/>
    <path d="M238.1 176.2c.1 1.1-.3 2.1-1.1 2.8-.7.7-1.6 1.1-2.8 1.2l.1 1.2h-.8l-.1-1.2c-.3 0-.7-.1-1.4-.3-.6-.2-1-.3-1.1-.3-.3 0-.5.3-.5.7h-.6l-.8-4.5h.6c.9 2.2 2.1 3.3 3.8 3.4l-.3-5.4c-1.2-.6-2.1-1.2-2.5-1.6-.8-.7-1.3-1.6-1.3-2.6v-.1c-.1-1 .2-1.9.9-2.6.7-.7 1.5-1.1 2.5-1.2l-.1-1.2h.8l.1 1.3s.4.1 1 .3c.4.1.8.2 1 .2.4 0 .6-.3.7-.7h.5l.6 4.5h-.6c-.9-2.1-2-3.2-3.3-3.3l.3 4.7c1.5.8 2.4 1.4 2.8 1.8 1.1.8 1.6 1.8 1.6 2.9zm-5.4-9.3c-.5.1-.9.3-1.2.7-.3.4-.5.8-.5 1.3 0 .7.7 1.5 1.8 2.2l-.1-4.2zm3.3 10c0-.9-.8-1.8-2.1-2.6l.3 4.9c.6-.1 1.1-.4 1.4-.8.3-.4.5-.9.4-1.5z"/>
    <path fill="#50B848" stroke="#50B848" stroke-width=".07" stroke-miterlimit="10" d="M231.8 162.6l-.1.9 2.7.1 1.1-.3-.3-.5"/>
    <path fill="#50B848" stroke="#50B848" stroke-width=".06" stroke-miterlimit="10" d="M246.2 166.5s-4.2.9-6.3 5.3c-2.1 4.3.9 8.6.9 8.6s5.3 6.1 12 2.8c0 0 2.6-3.4 2.1-6.2-.3-1.6-.2-4-.1-5.2.1-1-.2-2-.7-2.8-.6-.8-1.5-1.6-3.1-1.6 0 0-1 .1-2-.7 0-.1-1.2.5-2.8-.2z"/>
    <path fill="#629444" stroke="#629444" stroke-width=".06" stroke-miterlimit="10" d="M245.5 159.5l2.4 1.1s1.6-.3.3-1.7c-1.2-1.3-2.7.6-2.7.6z"/>
    <path fill="#629444" stroke="#629444" stroke-width=".06" stroke-miterlimit="10" d="M247.2 160.3l2.4 1.1s2-.4.8-1.7c-1.2-1.3-3.2.6-3.2.6z"/>
    <path fill="#50B848" stroke="#50B848" stroke-width=".06" stroke-miterlimit="10" d="M246 166.5c1.1-1.2-.5-7-.5-7l4.3 1.8s-1.5 3-.9 5.3"/>
    <path d="M251.2 177.2c0 .9-.2 1.6-.9 2.2-.6.5-1.3.8-2.2.9l.1.9h-.6l-.1-1c-.2 0-.6-.1-1.1-.3-.5-.2-.8-.2-.9-.2-.2 0-.4.2-.4.6h-.4l-.7-3.5h.5c.7 1.7 1.7 2.6 3 2.7l-.2-4.3c-1-.5-1.6-.9-2-1.2-.7-.6-1-1.2-1-2v-.1c0-.8.2-1.5.7-2.1.5-.6 1.2-.9 2-.9l-.1-1h.6l.1 1.1s.3.1.8.2c.3.1.6.1.8.1.3 0 .5-.2.6-.6h.4l.5 3.5h-.4c-.7-1.7-1.5-2.5-2.6-2.6l.2 3.7c1.2.6 1.9 1.1 2.2 1.4.7.8 1.1 1.6 1.1 2.5zm-4.2-7.4c-.4.1-.7.3-.9.5-.3.3-.4.6-.4 1 0 .6.5 1.1 1.5 1.7l-.2-3.2zm2.6 7.9c0-.7-.6-1.4-1.7-2l.2 3.9c.5-.1.8-.3 1.1-.6.3-.4.4-.8.4-1.3z"/>
    <path fill="#50B848" stroke="#50B848" stroke-width=".06" stroke-miterlimit="10" d="M246.2 166.5v.6l2.1.1.9-.3-.2-.3"/>
  </g>
</svg>
