<?xml version="1.0" encoding="utf-8"?>
<!-- Generator: Adobe Illustrator 19.2.1, SVG Export Plug-In . SVG Version: 6.00 Build 0)  -->
<!DOCTYPE svg PUBLIC "-//W3C//DTD SVG 1.1//EN" "http://www.w3.org/Graphics/SVG/1.1/DTD/svg11.dtd">
<svg version="1.1" id="Layer_1" xmlns="http://www.w3.org/2000/svg" xmlns:xlink="http://www.w3.org/1999/xlink" x="0px" y="0px"
	 width="868.5px" height="1118.4px" viewBox="0 0 868.5 1118.4" style="enable-background:new 0 0 868.5 1118.4;"
	 xml:space="preserve">
<style type="text/css">
	.st0{fill:#7CBAA0;}
	.st1{fill:#FEF7E9;stroke:#FEF7E9;stroke-width:0.5763;stroke-miterlimit:10;}
	.st2{fill:none;stroke:#000000;stroke-width:0.685;stroke-miterlimit:10;}
	.st3{fill:#E12946;stroke:#E12946;stroke-width:0.226;stroke-miterlimit:10;}
	.st4{fill:#FFFFFF;stroke:#FFFFFF;stroke-width:0.3134;stroke-miterlimit:10;}
	.st5{fill:#FFF6DA;stroke:#FFF6DA;stroke-width:0.685;stroke-miterlimit:10;}
	.st6{fill:#FEF7E9;}
	.st7{fill:#E12946;}
	.st8{fill:#CFE7CA;stroke:#CFE7CA;stroke-width:3.1391;stroke-miterlimit:10;}
	.st9{fill:#0E8085;stroke:#0E8085;stroke-width:0.8965;stroke-miterlimit:10;}
	.st10{fill:#6D6E71;stroke:#6D6E71;stroke-width:0.8965;stroke-miterlimit:10;}
	.st11{fill:none;stroke:#E12946;stroke-width:1.0655;stroke-miterlimit:10;}
	.st12{fill:none;stroke:#C82D38;stroke-width:1.0584;stroke-miterlimit:10;}
	.st13{fill:#FEF7E9;stroke:#FEF7E9;stroke-width:0.266;stroke-miterlimit:10;}
	.st14{fill:#FFF6DA;stroke:#FFF6DA;stroke-width:0.2877;stroke-miterlimit:10;}
	.st15{fill:none;stroke:#000000;stroke-width:0.266;stroke-miterlimit:10;}
	.st16{fill:none;stroke:#C82D38;stroke-width:0.266;stroke-miterlimit:10;}
	.st17{fill:#ABDBC9;stroke:#ABDBC9;stroke-width:2.7226;stroke-miterlimit:10;}
	.st18{fill:#FEF7E9;stroke:#FEF7E9;stroke-width:2.8369;stroke-miterlimit:10;}
	.st19{fill:#ABDBC9;stroke:#ABDBC9;stroke-width:2.5664;stroke-miterlimit:10;}
	.st20{fill:#CFE7CA;stroke:#CFE7CA;stroke-width:2.9387;stroke-miterlimit:10;}
	.st21{fill:#CFE7CA;stroke:#ABDBC9;stroke-width:2.9387;stroke-miterlimit:10;}
	.st22{fill:#ABDBC9;stroke:#ABDBC9;stroke-width:0.9453;stroke-miterlimit:10;}
	.st23{fill:#FFFFFF;stroke:#FFFFFF;stroke-width:0.3408;stroke-miterlimit:10;}
	.st24{fill:#CFE7CA;}
	.st25{fill:#E6E7E8;}
	.st26{fill:#C82D38;}
	.st27{fill:#ABDBC9;}
	.st28{fill:#BB8B3A;}
	.st29{fill:none;stroke:#000000;stroke-width:0.5254;stroke-miterlimit:10;}
	.st30{fill:none;stroke:#000000;stroke-width:0.587;stroke-miterlimit:10;}
	.st31{fill:#44A13F;}
	.st32{fill:#0E8085;}
	.st33{fill:#D1D3D4;}
	.st34{fill:#CFE7CA;stroke:#CFE7CA;stroke-width:1.1484;stroke-miterlimit:10;}
	.st35{stroke:#000000;stroke-width:0.937;stroke-miterlimit:10;}
	.st36{fill:#F7D2A0;stroke:#F7D2A0;stroke-width:0.937;stroke-miterlimit:10;}
	.st37{fill:#BB8B3A;stroke:#BB8B3A;stroke-width:0.937;stroke-miterlimit:10;}
	.st38{fill:#F7D2A0;stroke:#F7D2A0;stroke-width:0.8093;stroke-miterlimit:10;}
	.st39{fill:#7E431D;}
	.st40{fill:none;stroke:#000000;stroke-width:0.4046;stroke-miterlimit:10;}
	.st41{fill:#FFFFFF;stroke:#000000;stroke-width:0.8093;stroke-miterlimit:10;}
	.st42{fill:#E12946;stroke:#000000;stroke-width:0.8093;stroke-miterlimit:10;}
	.st43{fill:#F7D2A0;}
	.st44{fill:#E12946;stroke:#E12946;stroke-width:0.8093;stroke-miterlimit:10;}
	.st45{fill:#6D6E71;}
	.st46{fill:#414042;stroke:#414042;stroke-width:0.8093;stroke-miterlimit:10;}
	.st47{stroke:#000000;stroke-width:0.8093;stroke-miterlimit:10;}
	.st48{fill:#CFE7CA;stroke:#CFE7CA;stroke-width:0.9875;stroke-miterlimit:10;}
	.st49{fill:#FEF7E9;stroke:#FEF7E9;stroke-width:8.656223e-02;stroke-miterlimit:10;}
	.st50{stroke:#000000;stroke-width:4.328112e-02;stroke-miterlimit:10;}
	.st51{fill:#F7D2A0;stroke:#F7D2A0;stroke-width:8.656223e-02;stroke-miterlimit:10;}
	.st52{fill:#FEF7E9;stroke:#000000;stroke-width:8.656223e-02;stroke-miterlimit:10;}
	.st53{fill:#E12946;stroke:#000000;stroke-width:8.656223e-02;stroke-miterlimit:10;}
	.st54{fill:#E12946;stroke:#000000;stroke-width:7.652872e-02;stroke-miterlimit:10;}
	.st55{fill:#A5D9C9;stroke:#A5D9C9;stroke-width:8.704956e-02;stroke-miterlimit:10;}
	.st56{stroke:#000000;stroke-width:4.614126e-02;stroke-miterlimit:10;}
	.st57{stroke:#000000;stroke-width:4.614124e-02;stroke-miterlimit:10;}
	.st58{fill:#F7D2A0;stroke:#F7D2A0;stroke-width:8.846698e-02;stroke-miterlimit:10;}
	.st59{fill:#6D6E71;stroke:#000000;stroke-width:4.327587e-02;stroke-miterlimit:10;}
	.st60{fill:#414042;stroke:#414042;stroke-width:4.327587e-02;stroke-miterlimit:10;}
	.st61{stroke:#000000;stroke-width:4.327587e-02;stroke-miterlimit:10;}
	.st62{fill:#FEF7E9;stroke:#FEF7E9;stroke-width:6.648043e-02;stroke-miterlimit:10;}
	.st63{stroke:#000000;stroke-width:3.324021e-02;stroke-miterlimit:10;}
	.st64{fill:#F7D2A0;stroke:#F7D2A0;stroke-width:6.648043e-02;stroke-miterlimit:10;}
	.st65{fill:#FEF7E9;stroke:#000000;stroke-width:6.648043e-02;stroke-miterlimit:10;}
	.st66{fill:#E12946;stroke:#000000;stroke-width:6.648043e-02;stroke-miterlimit:10;}
	.st67{fill:#E12946;stroke:#000000;stroke-width:5.877462e-02;stroke-miterlimit:10;}
	.st68{fill:#A5D9C9;stroke:#A5D9C9;stroke-width:6.685470e-02;stroke-miterlimit:10;}
	.st69{stroke:#000000;stroke-width:3.543682e-02;stroke-miterlimit:10;}
	.st70{stroke:#000000;stroke-width:3.543681e-02;stroke-miterlimit:10;}
	.st71{fill:#F7D2A0;stroke:#F7D2A0;stroke-width:6.794329e-02;stroke-miterlimit:10;}
	.st72{fill:#6D6E71;stroke:#000000;stroke-width:3.323619e-02;stroke-miterlimit:10;}
	.st73{fill:#414042;stroke:#414042;stroke-width:3.323619e-02;stroke-miterlimit:10;}
	.st74{stroke:#000000;stroke-width:3.323619e-02;stroke-miterlimit:10;}
	.st75{fill:#FEF7E9;stroke:#FEF7E9;stroke-width:4.363440e-02;stroke-miterlimit:10;}
	.st76{stroke:#000000;stroke-width:2.181720e-02;stroke-miterlimit:10;}
	.st77{fill:#F7D2A0;stroke:#F7D2A0;stroke-width:4.363440e-02;stroke-miterlimit:10;}
	.st78{fill:#FEF7E9;stroke:#000000;stroke-width:4.363440e-02;stroke-miterlimit:10;}
	.st79{fill:#E12946;stroke:#000000;stroke-width:4.363440e-02;stroke-miterlimit:10;}
	.st80{fill:#E12946;stroke:#000000;stroke-width:3.857670e-02;stroke-miterlimit:10;}
	.st81{fill:#A5D9C9;stroke:#A5D9C9;stroke-width:4.388006e-02;stroke-miterlimit:10;}
	.st82{stroke:#000000;stroke-width:2.325894e-02;stroke-miterlimit:10;}
	.st83{fill:#F7D2A0;stroke:#F7D2A0;stroke-width:4.459455e-02;stroke-miterlimit:10;}
	.st84{fill:#6D6E71;stroke:#000000;stroke-width:2.181456e-02;stroke-miterlimit:10;}
	.st85{fill:#414042;stroke:#414042;stroke-width:2.181456e-02;stroke-miterlimit:10;}
	.st86{stroke:#000000;stroke-width:2.181456e-02;stroke-miterlimit:10;}
	.st87{fill:#FEF7E9;stroke:#FEF7E9;stroke-width:3.452846e-02;stroke-miterlimit:10;}
	.st88{stroke:#000000;stroke-width:1.726423e-02;stroke-miterlimit:10;}
	.st89{fill:#F7D2A0;stroke:#F7D2A0;stroke-width:3.452846e-02;stroke-miterlimit:10;}
	.st90{fill:#FEF7E9;stroke:#000000;stroke-width:3.452846e-02;stroke-miterlimit:10;}
	.st91{fill:#E12946;stroke:#000000;stroke-width:3.452846e-02;stroke-miterlimit:10;}
	.st92{fill:#E12946;stroke:#000000;stroke-width:3.052623e-02;stroke-miterlimit:10;}
	.st93{fill:#A5D9C9;stroke:#A5D9C9;stroke-width:3.472285e-02;stroke-miterlimit:10;}
	.st94{stroke:#000000;stroke-width:1.840510e-02;stroke-miterlimit:10;}
	.st95{stroke:#000000;stroke-width:1.840509e-02;stroke-miterlimit:10;}
	.st96{fill:#F7D2A0;stroke:#F7D2A0;stroke-width:3.528823e-02;stroke-miterlimit:10;}
	.st97{fill:#6D6E71;stroke:#000000;stroke-width:1.726214e-02;stroke-miterlimit:10;}
	.st98{fill:#414042;stroke:#414042;stroke-width:1.726214e-02;stroke-miterlimit:10;}
	.st99{stroke:#000000;stroke-width:1.726214e-02;stroke-miterlimit:10;}
	.st100{fill:#FEF7E9;stroke:#FEF7E9;stroke-width:2.912777e-02;stroke-miterlimit:10;}
	.st101{stroke:#000000;stroke-width:1.456389e-02;stroke-miterlimit:10;}
	.st102{fill:#F7D2A0;stroke:#F7D2A0;stroke-width:2.912777e-02;stroke-miterlimit:10;}
	.st103{fill:#FEF7E9;stroke:#000000;stroke-width:2.912777e-02;stroke-miterlimit:10;}
	.st104{fill:#E12946;stroke:#000000;stroke-width:2.912777e-02;stroke-miterlimit:10;}
	.st105{fill:#E12946;stroke:#000000;stroke-width:2.575154e-02;stroke-miterlimit:10;}
	.st106{fill:#A5D9C9;stroke:#A5D9C9;stroke-width:2.929175e-02;stroke-miterlimit:10;}
	.st107{stroke:#000000;stroke-width:1.552631e-02;stroke-miterlimit:10;}
	.st108{stroke:#000000;stroke-width:1.552630e-02;stroke-miterlimit:10;}
	.st109{fill:#F7D2A0;stroke:#F7D2A0;stroke-width:2.976871e-02;stroke-miterlimit:10;}
	.st110{fill:#6D6E71;stroke:#000000;stroke-width:1.456212e-02;stroke-miterlimit:10;}
	.st111{fill:#414042;stroke:#414042;stroke-width:1.456212e-02;stroke-miterlimit:10;}
	.st112{stroke:#000000;stroke-width:1.456212e-02;stroke-miterlimit:10;}
	.st113{stroke:#000000;stroke-width:0.6962;stroke-miterlimit:10;}
	.st114{stroke:#000000;stroke-width:0.7274;stroke-miterlimit:10;}
	.st115{fill:#E12946;stroke:#000000;stroke-width:0.7198;stroke-miterlimit:10;}
	.st116{fill:none;stroke:#000000;stroke-width:0.3312;stroke-miterlimit:10;}
	.st117{fill:none;stroke:#E12946;stroke-width:0.3312;stroke-miterlimit:10;}
	.st118{fill:#FEF7E9;stroke:#FEF7E9;stroke-width:0.1044;stroke-miterlimit:10;}
	.st119{stroke:#000000;stroke-width:5.219126e-02;stroke-miterlimit:10;}
	.st120{fill:#F7D2A0;stroke:#F7D2A0;stroke-width:0.1044;stroke-miterlimit:10;}
	.st121{fill:#FEF7E9;stroke:#000000;stroke-width:0.1044;stroke-miterlimit:10;}
	.st122{fill:#E12946;stroke:#000000;stroke-width:0.1044;stroke-miterlimit:10;}
	.st123{fill:#E12946;stroke:#000000;stroke-width:9.228344e-02;stroke-miterlimit:10;}
	.st124{fill:#50B848;stroke:#50B848;stroke-width:4.215942e-02;stroke-miterlimit:10;}
	.st125{fill:#629444;stroke:#629444;stroke-width:4.215942e-02;stroke-miterlimit:10;}
	.st126{fill:#50B848;stroke:#50B848;stroke-width:3.607162e-02;stroke-miterlimit:10;}
	.st127{fill:#629444;stroke:#629444;stroke-width:3.607162e-02;stroke-miterlimit:10;}
	.st128{fill:#50B848;stroke:#50B848;stroke-width:2.840276e-02;stroke-miterlimit:10;}
	.st129{fill:#629444;stroke:#629444;stroke-width:2.840276e-02;stroke-miterlimit:10;}
	.st130{fill:#A5D9C9;stroke:#A5D9C9;stroke-width:0.1109;stroke-miterlimit:10;}
	.st131{stroke:#000000;stroke-width:5.879105e-02;stroke-miterlimit:10;}
	.st132{stroke:#000000;stroke-width:5.879103e-02;stroke-miterlimit:10;}
	.st133{fill:#F7D2A0;stroke:#F7D2A0;stroke-width:0.1127;stroke-miterlimit:10;}
	.st134{fill:#6D6E71;stroke:#000000;stroke-width:5.514011e-02;stroke-miterlimit:10;}
	.st135{fill:#414042;stroke:#414042;stroke-width:5.514011e-02;stroke-miterlimit:10;}
	.st136{stroke:#000000;stroke-width:5.514011e-02;stroke-miterlimit:10;}
	.st137{fill:#44A13F;stroke:#50B848;stroke-width:4.269000e-02;stroke-miterlimit:10;}
	.st138{fill:#0E8085;stroke:#0E8085;stroke-width:0.3951;stroke-miterlimit:10;}
	.st139{fill:#C82D38;stroke:#C82D38;stroke-width:0.3951;stroke-miterlimit:10;}
	.st140{fill:#FFFFFF;stroke:#000000;stroke-width:0.3951;stroke-miterlimit:10;}
	.st141{fill:none;stroke:#000000;stroke-width:0.3951;stroke-linecap:round;stroke-linejoin:round;stroke-miterlimit:10;}
	.st142{fill:#F7D2A0;stroke:#000000;stroke-width:0.3426;stroke-miterlimit:10;}
	.st143{fill:none;stroke:#000000;stroke-width:0.3951;stroke-miterlimit:10;}
	.st144{fill:#F7D2A0;stroke:#000000;stroke-width:0.377;stroke-miterlimit:10;}
	.st145{stroke:#000000;stroke-width:0.3951;stroke-miterlimit:10;}
	.st146{fill:#7E431D;stroke:#7E431D;stroke-width:0.3426;stroke-miterlimit:10;}
	.st147{fill:#BB8B3A;stroke:#BB8B3A;stroke-width:0.3951;stroke-miterlimit:10;}
	.st148{fill:#D1D3D4;stroke:#D1D3D4;stroke-width:0.273;stroke-miterlimit:10;}
	.st149{fill:#D1D3D4;stroke:#D1D3D4;stroke-width:0.2726;stroke-miterlimit:10;}
	.st150{fill:#D1D3D4;stroke:#D1D3D4;stroke-width:0.3951;stroke-miterlimit:10;}
	.st151{fill:none;stroke:#000000;stroke-width:0.3345;stroke-miterlimit:10;}
	.st152{fill:#F16973;stroke:#F16973;stroke-width:0.2589;stroke-miterlimit:10;}
	.st153{fill:#CFE7CA;stroke:#CFE7CA;stroke-width:1.1671;stroke-miterlimit:10;}
	.st154{fill:#F16973;}
	.st155{fill:#8FBF9F;stroke:#000000;stroke-width:0.506;stroke-miterlimit:10;}
	.st156{stroke:#000000;stroke-width:0.253;stroke-miterlimit:10;}
	.st157{fill:none;stroke:#000000;stroke-width:0.506;stroke-miterlimit:10;}
	.st158{fill:#FEF7E9;stroke:#FEF7E9;stroke-width:5.802924e-02;stroke-miterlimit:10;}
	.st159{stroke:#000000;stroke-width:2.901462e-02;stroke-miterlimit:10;}
	.st160{fill:#F7D2A0;stroke:#F7D2A0;stroke-width:5.802924e-02;stroke-miterlimit:10;}
	.st161{fill:#FEF7E9;stroke:#000000;stroke-width:5.802924e-02;stroke-miterlimit:10;}
	.st162{fill:#E12946;stroke:#000000;stroke-width:5.802924e-02;stroke-miterlimit:10;}
	.st163{fill:#E12946;stroke:#000000;stroke-width:5.130301e-02;stroke-miterlimit:10;}
	.st164{fill:#A5D9C9;stroke:#A5D9C9;stroke-width:5.914608e-02;stroke-miterlimit:10;}
	.st165{stroke:#000000;stroke-width:3.135081e-02;stroke-miterlimit:10;}
	.st166{stroke:#000000;stroke-width:3.135080e-02;stroke-miterlimit:10;}
	.st167{fill:#F7D2A0;stroke:#F7D2A0;stroke-width:6.010915e-02;stroke-miterlimit:10;}
	.st168{fill:#6D6E71;stroke:#000000;stroke-width:2.940392e-02;stroke-miterlimit:10;}
	.st169{fill:#414042;stroke:#414042;stroke-width:2.940392e-02;stroke-miterlimit:10;}
	.st170{stroke:#000000;stroke-width:2.940392e-02;stroke-miterlimit:10;}
	.st171{fill:#F7D2A0;stroke:#F7D2A0;stroke-width:1.3991;stroke-miterlimit:10;}
	.st172{fill:none;stroke:#000000;stroke-width:0.6996;stroke-miterlimit:10;}
	.st173{fill:#FEF7E9;stroke:#000000;stroke-width:0.6335;stroke-miterlimit:10;}
	.st174{fill:#FFF6DA;stroke:#000000;stroke-width:0.6335;stroke-miterlimit:10;}
	.st175{fill:#BB8B3A;stroke:#BB8B3A;stroke-width:0.6335;stroke-miterlimit:10;}
	.st176{fill:#FEF7E9;stroke:#000000;stroke-width:0.1573;stroke-miterlimit:10;}
	.st177{fill:#FFF6DA;stroke:#000000;stroke-width:0.1573;stroke-miterlimit:10;}
	.st178{fill:none;stroke:#BB8B3A;stroke-width:0.2593;stroke-miterlimit:10;}
	.st179{fill:#BB8B3A;stroke:#BB8B3A;stroke-width:0.2593;stroke-miterlimit:10;}
	.st180{stroke:#000000;stroke-width:0.2593;stroke-miterlimit:10;}
	.st181{fill:#724837;}
	.st182{fill:#34150F;}
	.st183{fill:#0B0707;}
	.st184{fill:#F9BD84;}
	.st185{fill:#EFC1AC;}
	.st186{fill:#D6A98B;}
	.st187{fill:#231C11;}
	.st188{fill:#FFFFFF;stroke:#000000;stroke-width:0.8175;stroke-miterlimit:10;}
	.st189{fill:#D0A832;}
	.st190{fill:#FFFFFF;stroke:#000000;stroke-width:0.5167;stroke-miterlimit:10;}
	.st191{fill:#CFE7CA;stroke:#CFE7CA;stroke-width:1.9851;stroke-miterlimit:10;}
	.st192{fill:#FFF6DA;stroke:#FFF6DA;stroke-width:1.8834;stroke-miterlimit:10;}
	.st193{fill:#7FB09B;stroke:#7FB09B;stroke-width:1.9018;stroke-miterlimit:10;}
	.st194{fill:#8FBE9F;stroke:#8FBE9F;stroke-width:1.9851;stroke-miterlimit:10;}
	.st195{fill:#FEF7E9;stroke:#FEF7E9;stroke-width:0.4189;stroke-miterlimit:10;}
	.st196{fill:#F8A259;stroke:#F8A259;stroke-width:0.2118;stroke-miterlimit:10;}
	.st197{fill:#FEF7E9;stroke:#FEF7E9;stroke-width:0.4222;stroke-miterlimit:10;}
	.st198{fill:#F8A259;stroke:#F8A259;stroke-width:0.2134;stroke-miterlimit:10;}
	.st199{fill:#C82D38;stroke:#000000;stroke-width:0.3219;stroke-miterlimit:10;}
</style>
<path class="st18" d="M665.3,777.5h87.3c28.7,0,52.2,23.5,52.2,52.2v142.8c0,28.7-23.5,52.2-52.2,52.2h-87.3
	c-28.7,0-52.2-23.5-52.2-52.2V829.7C613.2,801,636.6,777.5,665.3,777.5z"/>
<path class="st19" d="M665.2,788.8h87.5c21.8,0,39.7,17.9,39.7,39.7v84.8c0,21.8-17.9,39.7-39.7,39.7h-87.5
	c-21.8,0-39.7-17.9-39.7-39.7v-84.8C625.5,806.7,643.4,788.8,665.2,788.8z"/>
<ellipse class="st20" cx="721.9" cy="899.4" rx="20.7" ry="16.2"/>
<ellipse class="st21" cx="747.2" cy="865.7" rx="12.8" ry="10"/>
<ellipse class="st21" cx="746.5" cy="836" rx="7.5" ry="5.8"/>
<ellipse class="st21" cx="734.5" cy="812" rx="4.6" ry="3.6"/>
<path class="st22" d="M706.3,959.6c0,0-6.1,8.6-2.8,14c1.3,2.1,4.2,2.1,5.5,0C710.4,971.3,711,966.9,706.3,959.6z"/>
<path class="st23" d="M707,964.8c0,0-0.6-0.8-0.3-1.7C706.6,963.1,707.3,963.8,707,964.8z"/>
<g>
	<path class="st27" d="M651.8,984v1.3h-2.5v3.6h2.2v1.3h-2.2v3.8h2.5v1.3h-3.9V984H651.8z"/>
	<path class="st27" d="M653.8,987.7l1,2.6l0.4-1.1l0.6-1.5h1.4l-1.7,3.6l2,4H656l-0.7-1.6c-0.2-0.5-0.4-0.9-0.5-1.4h0
		c0,0.6-0.3,1.1-0.5,1.7l-0.6,1.4h-1.4l1.8-4l-1.8-3.6H653.8z"/>
	<path class="st27" d="M659.8,988.7L659.8,988.7c0.3-0.6,0.6-1.1,1.4-1.1c1.7,0,1.7,2.8,1.7,4c0,1.3,0,3.8-1.8,3.8
		c-0.7,0-1-0.4-1.3-1h0v4h-1.4v-10.7h1.4V988.7z M661.5,991.5c0-0.6,0.1-2.7-0.9-2.7c-0.9,0-0.9,2-0.9,2.7c0,0.6-0.1,2.6,0.9,2.6
		C661.5,994.1,661.5,992.7,661.5,991.5z"/>
	<path class="st27" d="M665.4,995.3H664v-12.4h1.4V995.3z"/>
	<path class="st27" d="M666.4,991.5c0-1.7,0.2-3.9,2.3-3.9c2.1,0,2.3,2.3,2.3,3.9c0,1.6-0.2,3.9-2.3,3.9
		C666.6,995.4,666.4,993.1,666.4,991.5z M669.7,991.5c0-0.6,0.1-2.6-0.9-2.6s-0.9,2-0.9,2.6c0,0.5-0.1,2.6,0.9,2.6
		S669.7,992,669.7,991.5z"/>
	<path class="st27" d="M673.5,988.6L673.5,988.6c0.4-0.7,0.8-1,1.6-1v1.4l-0.2,0c-1,0-1.3,0.6-1.3,1.5v4.8h-1.4v-7.6h1.4V988.6z"/>
	<path class="st27" d="M675.8,985.4c0-0.5,0.4-0.9,0.9-0.9c0.5,0,0.9,0.4,0.9,0.9c0,0.5-0.4,0.9-0.9,0.9
		C676.2,986.3,675.8,985.9,675.8,985.4z M677.4,995.3H676v-7.6h1.4V995.3z"/>
	<path class="st27" d="M680,988.6L680,988.6c0.3-0.6,0.8-1,1.5-1c1.5,0,1.5,1.3,1.5,2.5v5.2h-1.4V990c0-0.5-0.1-1.2-0.8-1.2
		c-0.9,0-0.8,1.1-0.8,1.7v4.7h-1.4v-7.6h1.4V988.6z"/>
	<path class="st27" d="M688.7,995.3c0,2.7-0.8,3.2-2.3,3.2c-1.3,0-2.2-0.8-2.2-2.2v-0.2h1.3c0,0.5,0.2,1.1,0.9,1.1
		c0.9,0,0.8-0.9,0.8-1.6v-1.3h0c-0.2,0.6-0.6,1.1-1.3,1c-1.8,0-1.8-2.6-1.8-3.9c0-1.2,0-4,1.8-4c0.7,0,1.1,0.4,1.3,1l0,0v-0.9h1.4
		V995.3z M686.4,988.8c-1,0-0.9,2.1-0.9,2.6c0,0.6-0.1,2.7,0.9,2.7s0.8-2,0.8-2.6S687.3,988.8,686.4,988.8z"/>
	<path class="st27" d="M694.6,985.5v2.1h0.7v1.1h-0.7v6.5h-1.4v-6.5h-0.7v-1.1h0.7v-2.1H694.6z"/>
	<path class="st27" d="M695.9,991.5c0-1.7,0.2-3.9,2.3-3.9c2.1,0,2.3,2.3,2.3,3.9c0,1.6-0.2,3.9-2.3,3.9
		C696.2,995.4,695.9,993.1,695.9,991.5z M699.2,991.5c0-0.6,0.1-2.6-0.9-2.6s-0.9,2-0.9,2.6c0,0.5-0.1,2.6,0.9,2.6
		S699.2,992,699.2,991.5z"/>
	<path class="st27" d="M704.6,994.3L704.6,994.3c-0.3,0.7-0.6,1.1-1.4,1.1c-1.7,0-1.7-2.8-1.7-4c0-1.3,0-3.8,1.8-3.8
		c0.7,0,1,0.4,1.3,1h0v-5.7h1.4v12.4h-1.4V994.3z M704.6,991.5c0-0.6,0.1-2.6-0.9-2.6c-1,0-0.9,2-0.9,2.6c0,0.6-0.1,2.7,0.9,2.7
		C704.7,994.1,704.6,992.1,704.6,991.5z"/>
	<path class="st27" d="M710.1,994.3L710.1,994.3c-0.3,0.7-0.6,1.1-1.4,1.1c-1.7,0-1.7-2.8-1.7-4c0-1.3,0-3.8,1.8-3.8
		c0.6,0,1.1,0.4,1.3,1h0v-0.8h1.4v7.6h-1.4V994.3z M710.2,991.5c0-0.6,0.1-2.6-0.9-2.6c-1,0-0.9,2-0.9,2.6c0,0.6-0.1,2.7,0.9,2.7
		C710.2,994.1,710.2,992.1,710.2,991.5z"/>
	<path class="st27" d="M713.7,987.7l1.1,5.3h0l1.2-5.3h1.4l-3,10.7H713l1.1-3.7l-2-7H713.7z"/>
	<path class="st27" d="M721,989.2c-0.3-0.2-0.7-0.4-1-0.4c-0.5,0-0.9,0.3-0.9,0.8c0,1.3,2.3,1.3,2.3,3.5c0,1.3-0.8,2.2-2.1,2.2
		c-0.5,0-0.8-0.1-1.2-0.4v-1.4c0.4,0.3,0.7,0.5,1.1,0.5c0.6,0,0.9-0.4,0.9-1c0-1.3-2.3-1.4-2.3-3.5c0-1.2,0.8-2.1,2-2.1
		c0.5,0,0.8,0.1,1.2,0.3V989.2z"/>
	<path class="st27" d="M728.2,994.3L728.2,994.3c-0.3,0.7-0.6,1.1-1.4,1.1c-1.7,0-1.7-2.8-1.7-4c0-1.3,0-3.8,1.8-3.8
		c0.7,0,1,0.4,1.3,1h0v-5.7h1.4v12.4h-1.4V994.3z M728.2,991.5c0-0.6,0.1-2.6-0.9-2.6c-1,0-0.9,2-0.9,2.6c0,0.6-0.1,2.7,0.9,2.7
		C728.3,994.1,728.2,992.1,728.2,991.5z"/>
	<path class="st27" d="M730.6,985.4c0-0.5,0.4-0.9,0.9-0.9c0.5,0,0.9,0.4,0.9,0.9c0,0.5-0.4,0.9-0.9,0.9
		C731,986.3,730.6,985.9,730.6,985.4z M732.2,995.3h-1.4v-7.6h1.4V995.3z"/>
	<path class="st27" d="M734.4,987.7l1,5.7h0l0-0.5l0.5-3.1l0.5-2.2h1.3l-1.9,7.6H735l-2-7.6H734.4z"/>
	<path class="st27" d="M739.9,991.8c0,0.6,0,2.4,0.9,2.4c0.7,0,0.9-0.8,0.9-1.4h1.3c0,1.4-0.6,2.7-2.1,2.7c-2.1,0-2.3-2.2-2.3-3.9
		c0-1.5,0.2-4,2.2-4c2,0,2.2,2.4,2.2,4v0.2H739.9z M741.5,990.8c0-0.6,0-1.9-0.8-1.9c-0.9,0-0.8,1.3-0.8,1.9H741.5z"/>
	<path class="st27" d="M745.3,988.6L745.3,988.6c0.4-0.7,0.8-1,1.6-1v1.4l-0.2,0c-1,0-1.3,0.6-1.3,1.5v4.8h-1.4v-7.6h1.4V988.6z"/>
	<path class="st27" d="M750.7,989.2c-0.3-0.2-0.7-0.4-1-0.4c-0.5,0-0.9,0.3-0.9,0.8c0,1.3,2.3,1.3,2.3,3.5c0,1.3-0.8,2.2-2.1,2.2
		c-0.5,0-0.8-0.1-1.2-0.4v-1.4c0.4,0.3,0.7,0.5,1.1,0.5c0.6,0,0.9-0.4,0.9-1c0-1.3-2.3-1.4-2.3-3.5c0-1.2,0.8-2.1,2-2.1
		c0.5,0,0.8,0.1,1.2,0.3V989.2z"/>
	<path class="st27" d="M751.7,985.4c0-0.5,0.4-0.9,0.9-0.9c0.5,0,0.9,0.4,0.9,0.9c0,0.5-0.4,0.9-0.9,0.9
		C752.1,986.3,751.7,985.9,751.7,985.4z M753.3,995.3h-1.4v-7.6h1.4V995.3z"/>
	<path class="st27" d="M756.2,985.5v2.1h0.7v1.1h-0.7v6.5h-1.4v-6.5h-0.7v-1.1h0.7v-2.1H756.2z"/>
	<path class="st27" d="M758.7,987.7l1.1,5.3h0l1.2-5.3h1.4l-3,10.7H758l1.1-3.7l-2-7H758.7z"/>
	<path class="st27" d="M651.4,1003.4c0-0.5,0.4-0.9,0.9-0.9c0.5,0,0.9,0.4,0.9,0.9c0,0.5-0.4,0.9-0.9,0.9
		C651.9,1004.4,651.4,1003.9,651.4,1003.4z M653,1013.3h-1.4v-7.6h1.4V1013.3z"/>
	<path class="st27" d="M655.7,1006.6L655.7,1006.6c0.3-0.6,0.8-1,1.5-1c1.5,0,1.5,1.3,1.5,2.5v5.2h-1.4v-5.2c0-0.5-0.1-1.2-0.8-1.2
		c-0.9,0-0.8,1.1-0.8,1.7v4.7h-1.4v-7.6h1.4V1006.6z"/>
	<path class="st27" d="M664.6,1003.6v2.1h0.7v1.1h-0.7v6.5h-1.4v-6.5h-0.7v-1.1h0.7v-2.1H664.6z"/>
	<path class="st27" d="M667.6,1000.8v5.7h0c0.3-0.6,0.8-1,1.5-1c1.5,0,1.5,1.3,1.5,2.5v5.2h-1.4v-5.2c0-0.5-0.1-1.2-0.8-1.2
		c-0.9,0-0.8,1.1-0.8,1.7v4.7h-1.4v-12.4H667.6z"/>
	<path class="st27" d="M673.1,1009.8c0,0.6,0,2.4,0.9,2.4c0.7,0,0.9-0.8,0.9-1.4h1.3c0,1.4-0.6,2.7-2.1,2.7c-2.1,0-2.3-2.2-2.3-3.9
		c0-1.5,0.2-4,2.2-4c2,0,2.2,2.4,2.2,4v0.2H673.1z M674.7,1008.8c0-0.6,0-1.9-0.8-1.9c-0.9,0-0.8,1.3-0.8,1.9H674.7z"/>
	<path class="st27" d="M681.5,1006.6L681.5,1006.6c0.3-0.6,0.8-1,1.5-1c1.5,0,1.5,1.3,1.5,2.5v5.2h-1.4v-5.2c0-0.5-0.1-1.2-0.8-1.2
		c-0.9,0-0.8,1.1-0.8,1.7v4.7h-1.4v-7.6h1.4V1006.6z"/>
	<path class="st27" d="M687.2,1005.7v4.7c0,0.7-0.1,1.7,0.8,1.7c0.9,0,0.8-0.9,0.8-1.6v-4.8h1.4v5.1c0,1.6-0.5,2.6-2.1,2.6
		c-2,0-2.3-1.2-2.3-2.9v-4.8H687.2z"/>
	<path class="st27" d="M692.9,1006.6L692.9,1006.6c0.4-0.7,0.8-1,1.6-1v1.4l-0.2,0c-1,0-1.3,0.6-1.3,1.5v4.8h-1.4v-7.6h1.4V1006.6z"
		/>
	<path class="st27" d="M698.2,1007.2c-0.3-0.2-0.7-0.4-1-0.4c-0.5,0-0.9,0.3-0.9,0.8c0,1.3,2.3,1.3,2.3,3.5c0,1.3-0.8,2.2-2.1,2.2
		c-0.5,0-0.8-0.1-1.2-0.4v-1.4c0.4,0.3,0.7,0.5,1.1,0.5c0.6,0,0.9-0.4,0.9-1c0-1.3-2.3-1.4-2.3-3.5c0-1.2,0.8-2.1,2-2.1
		c0.5,0,0.8,0.1,1.2,0.3V1007.2z"/>
	<path class="st27" d="M699.3,1003.4c0-0.5,0.4-0.9,0.9-0.9c0.5,0,0.9,0.4,0.9,0.9c0,0.5-0.4,0.9-0.9,0.9
		C699.7,1004.4,699.3,1003.9,699.3,1003.4z M700.9,1013.3h-1.4v-7.6h1.4V1013.3z"/>
	<path class="st27" d="M703.5,1006.6L703.5,1006.6c0.3-0.6,0.8-1,1.5-1c1.5,0,1.5,1.3,1.5,2.5v5.2h-1.4v-5.2c0-0.5-0.1-1.2-0.8-1.2
		c-0.9,0-0.8,1.1-0.8,1.7v4.7h-1.4v-7.6h1.4V1006.6z"/>
	<path class="st27" d="M712.1,1013.3c0,2.7-0.8,3.2-2.3,3.2c-1.3,0-2.2-0.8-2.2-2.2v-0.2h1.3c0,0.5,0.2,1.1,0.9,1.1
		c0.9,0,0.8-0.9,0.8-1.6v-1.3h0c-0.2,0.6-0.6,1.1-1.3,1c-1.8,0-1.8-2.6-1.8-3.9c0-1.2,0-4,1.8-4c0.7,0,1.1,0.4,1.3,1l0,0v-0.9h1.4
		V1013.3z M709.8,1006.8c-1,0-0.9,2.1-0.9,2.6c0,0.6-0.1,2.7,0.9,2.7s0.8-2,0.8-2.6S710.7,1006.8,709.8,1006.8z"/>
	<path class="st27" d="M717.7,1006.7L717.7,1006.7c0.3-0.6,0.6-1.1,1.4-1.1c1.7,0,1.7,2.8,1.7,4c0,1.3,0,3.8-1.8,3.8
		c-0.7,0-1-0.4-1.3-1h0v4h-1.4v-10.7h1.4V1006.7z M719.5,1009.5c0-0.6,0.1-2.7-0.9-2.7c-0.9,0-0.9,2-0.9,2.7c0,0.6-0.1,2.6,0.9,2.6
		C719.4,1012.1,719.5,1010.8,719.5,1009.5z"/>
	<path class="st27" d="M723.3,1006.6L723.3,1006.6c0.4-0.7,0.8-1,1.6-1v1.4l-0.2,0c-1,0-1.3,0.6-1.3,1.5v4.8h-1.4v-7.6h1.4V1006.6z"
		/>
	<path class="st27" d="M725.7,1009.5c0-1.7,0.2-3.9,2.3-3.9c2.1,0,2.3,2.3,2.3,3.9c0,1.6-0.2,3.9-2.3,3.9
		C725.9,1013.4,725.7,1011.1,725.7,1009.5z M728.9,1009.5c0-0.6,0.1-2.6-0.9-2.6s-0.9,2-0.9,2.6c0,0.5-0.1,2.6,0.9,2.6
		S728.9,1010.1,728.9,1009.5z"/>
	<path class="st27" d="M731.7,1005.7v-2.4c0-1.3,0.1-2.5,1.7-2.5c0.4,0,0.6,0.1,0.9,0.2v1.5c-0.2-0.1-0.4-0.2-0.6-0.2
		c-0.7,0-0.6,0.7-0.6,1.2v2.3h1.1v1.1h-1.1v6.5h-1.4v-6.5H731v-1.1H731.7z"/>
	<path class="st27" d="M736.2,1009.8c0,0.6,0,2.4,0.9,2.4c0.7,0,0.9-0.8,0.9-1.4h1.3c0,1.4-0.6,2.7-2.1,2.7c-2.1,0-2.3-2.2-2.3-3.9
		c0-1.5,0.2-4,2.2-4c2,0,2.2,2.4,2.2,4v0.2H736.2z M737.8,1008.8c0-0.6,0-1.9-0.8-1.9c-0.9,0-0.8,1.3-0.8,1.9H737.8z"/>
	<path class="st27" d="M743.1,1007.2c-0.3-0.2-0.7-0.4-1-0.4c-0.5,0-0.9,0.3-0.9,0.8c0,1.3,2.3,1.3,2.3,3.5c0,1.3-0.8,2.2-2.1,2.2
		c-0.5,0-0.8-0.1-1.2-0.4v-1.4c0.4,0.3,0.7,0.5,1.1,0.5c0.6,0,0.9-0.4,0.9-1c0-1.3-2.3-1.4-2.3-3.5c0-1.2,0.8-2.1,2-2.1
		c0.5,0,0.8,0.1,1.2,0.3V1007.2z"/>
	<path class="st27" d="M747.1,1007.2c-0.3-0.2-0.7-0.4-1-0.4c-0.5,0-0.9,0.3-0.9,0.8c0,1.3,2.3,1.3,2.3,3.5c0,1.3-0.8,2.2-2.1,2.2
		c-0.5,0-0.8-0.1-1.2-0.4v-1.4c0.4,0.3,0.7,0.5,1.1,0.5c0.6,0,0.9-0.4,0.9-1c0-1.3-2.3-1.4-2.3-3.5c0-1.2,0.8-2.1,2-2.1
		c0.5,0,0.8,0.1,1.2,0.3V1007.2z"/>
	<path class="st27" d="M748.1,1003.4c0-0.5,0.4-0.9,0.9-0.9c0.5,0,0.9,0.4,0.9,0.9c0,0.5-0.4,0.9-0.9,0.9
		C748.5,1004.4,748.1,1003.9,748.1,1003.4z M749.7,1013.3h-1.4v-7.6h1.4V1013.3z"/>
	<path class="st27" d="M750.8,1009.5c0-1.7,0.2-3.9,2.3-3.9c2.1,0,2.3,2.3,2.3,3.9c0,1.6-0.2,3.9-2.3,3.9
		C751,1013.4,750.8,1011.1,750.8,1009.5z M754,1009.5c0-0.6,0.1-2.6-0.9-2.6s-0.9,2-0.9,2.6c0,0.5-0.1,2.6,0.9,2.6
		S754,1010.1,754,1009.5z"/>
	<path class="st27" d="M757.8,1006.6L757.8,1006.6c0.3-0.6,0.8-1,1.5-1c1.5,0,1.5,1.3,1.5,2.5v5.2h-1.4v-5.2c0-0.5-0.1-1.2-0.8-1.2
		c-0.9,0-0.8,1.1-0.8,1.7v4.7h-1.4v-7.6h1.4V1006.6z"/>
</g>
<polyline class="st12" points="552.4,197.3 552.4,195.8 556.7,203.4 561.4,183.9 566.2,197.9 575.7,198.1 575.7,202.4 578.2,203.4 
	580.3,210.8 586.9,183.9 593,203.9 596.5,197.3 616.7,197.3 "/>
<path class="st18" d="M756.2,325.3h-87.3c-28.7,0-52.2-23.5-52.2-52.2V130.4c0-28.7,23.5-52.2,52.2-52.2h87.3
	c28.7,0,52.2,23.5,52.2,52.2v142.8C808.3,301.8,784.9,325.3,756.2,325.3z"/>
<path class="st19" d="M756.3,314h-87.5c-21.8,0-39.7-17.9-39.7-39.7v-84.8c0-21.8,17.9-39.7,39.7-39.7h87.5
	c21.8,0,39.7,17.9,39.7,39.7v84.8C796,296.2,778.1,314,756.3,314z"/>
<ellipse class="st20" cx="682.2" cy="203.5" rx="20.7" ry="16.2"/>
<ellipse class="st21" cx="707.5" cy="237.1" rx="12.8" ry="10"/>
<ellipse class="st21" cx="706.8" cy="266.8" rx="7.5" ry="5.8"/>
<ellipse class="st21" cx="694.7" cy="290.9" rx="4.6" ry="3.6"/>
<path class="st22" d="M714.1,125.6c0,0-6.1,8.6-2.8,14c1.3,2.1,4.2,2.1,5.5,0C718.3,137.3,718.9,132.9,714.1,125.6z"/>
<path class="st23" d="M714.8,130.8c0,0-0.6-0.8-0.3-1.7C714.5,129.1,715.2,129.8,714.8,130.8z"/>
<g>
	<path class="st24" d="M385.2,122.3c-1.9-5.5-3.9-8.5-7.7-13c-3.2-3.8-8.6-8.4-11.8-12.2c-0.8-0.9-1.5-1.8-1.9-2.9
		c-0.8-2.3,0.4-5,2.4-6.5c2-1.5,4-1.9,6.4-1.5c2.4,0.4,5.2,1.5,7.3,2.7c2.1,1.1,5.8,2.4,8.2,2.8c3.6,0.6,6.8,0.2,10.1-1.7l1.4-1.2
		c0.3-0.2,0.6-0.4,0.8-0.8l0.4-0.9c6-1,14.6-7.5,14.6-7.5l0-0.7c0,0,14.8-10.1,16.3-13c1.5-2.9-4-3-4-3c-0.3-0.6-1.9-0.6-1.9-0.6
		s-2.2-1.7-2.3,0.5c-0.2,2.1,1.4,1.8,1.4,1.8l2.5,0.2l0.2-0.5l2.3,0.2c5.6-0.1-15,13.5-15,13.5l-0.5-0.3c0,0-10.4,6.8-14.7,6.8
		s-1.1-5.2-1.1-5.2l-0.3-0.4c7.3-14.1,12.9-13.8,12.9-13.8l0.3-0.1l0.2,0.4l2.5-0.5c0,0,1.6,0.1,1.3-2s-2.3-0.2-2.3-0.2
		s-1.6,0.2-1.8,0.8c0,0-9,2.7-14.1,14.9l-0.8,0.4c0,0-3.8,5.7,1.3,8l-1.1,1.2l-0.5,0.3c-2.7,2.1-9.3,0.5-12.4-0.8
		c-3.4-1.4-1.8-1-6-2.3c-6.4-2-8.1-1.9-13.2,0.9c-1.2,0.7-2.9,3.5-3,4.9c-0.4,3.9,1.4,6.9,4.3,9.5c6.1,5.6,10.5,10.1,15.6,19.3
		c1.4,2.6,0.7,6.2,0.2,9.2C381.1,132.2,387.1,127.9,385.2,122.3z"/>
</g>
<g>
	<path class="st25" d="M415.5,79.9l0.1-0.6c0,0,14.6-10.2,16.2-13.1c1.8-3.1-3.9-3.4-3.9-3.4c-0.4-0.3-0.4,2.3-0.4,2.3l2.2-0.1
		c4,0.4-14.9,12.8-14.9,12.8l-0.7-0.1L415.5,79.9z"/>
	<g>
		<path class="st25" d="M415.7,79.9c0.4-1.9,5.1-4.2,6.7-5.3c3-2.3,6.9-4.6,9.2-7.7c1.4-1.9,0.8-3.3-1.4-4c-2.4-0.8-2.7-0.4-2.7,2
			c0,0.1,0.1,0.2,0.2,0.2c1,0,2.4-0.4,2.3,0.8c0,0.5-1.3,1.4-1.6,1.7c-1.8,1.7-3.9,3.2-5.9,4.7c-1.8,1.3-3.5,2.5-5.3,3.7
			c-0.9,0.6-1.8,1.6-2.8,1.4c-0.1,0-0.3,0.1-0.2,0.2c0.4,0.8,0.9,1.5,1.3,2.3c0.1,0.2,0.4,0,0.3-0.2c-0.2-0.4-0.9-1.2-0.9-1.7
			c0-1.7-0.5,0.7,0.2-0.2c0.1-0.2,0.7-0.5,0.9-0.6c2.3-1.2,4.5-3,6.5-4.5c1.1-0.8,9.2-5.9,8.1-7.7c-0.2-0.3-0.6-0.2-0.8-0.3
			c-0.4-0.1-1.5,0.3-1.8,0c-0.4-0.4,0.3-1.8,0.5-1.9c0.4-0.2,2.5,0.5,2.7,0.7c1,0.9,0.7,2.3,0.2,3.2c-0.8,1.2-2.3,2.2-3.4,3.1
			c-3,2.5-6.1,4.7-9.2,7c-1.1,0.8-2.9,1.5-3.2,2.9C415.3,80,415.6,80.1,415.7,79.9z"/>
	</g>
</g>
<g>
	<path class="st25" d="M398.7,79.2l0.4-1.1c7.8-13,12.1-12.6,12.1-12.6l0.3-0.3c0,0-0.1-2.1-0.3-1.5c0,0-8.1,0.9-14,14.2l-0.8,1
		L398.7,79.2z"/>
	<g>
		<path class="st25" d="M398.9,79.2c1.2-3.4,3.9-6.8,6.3-9.5c1.3-1.4,2.9-3.1,4.7-3.8c1.4-0.5,2.3-0.5,1.5-2.5
			c0-0.1-0.2-0.2-0.3-0.1c-0.3,0.3-1.1,0.3-1.5,0.5c-1.4,0.5-2.6,1.2-3.8,2c-1.7,1.2-3.1,2.7-4.4,4.3c-2.1,2.6-3.1,5.9-5.1,8.4
			c-0.1,0.1-0.1,0.3,0.1,0.3c0.8,0.1,1.6,0.3,2.4,0.4c0.2,0,0.3-0.3,0.1-0.3c-0.5-0.1-2-0.3-2.1-0.4c-0.1-0.1,1.9-3.4,2-3.7
			c1.6-3,3.7-5.9,6.4-8.1c1.5-1.2,3.1-2.2,5-2.8c1-0.3,0.9-0.4,1.2,0.1c0.5,1.4-2.4,1.9-3.4,2.6c-3.7,2.8-7.8,7.9-9.3,12.3
			C398.5,79.3,398.8,79.4,398.9,79.2z"/>
	</g>
</g>
<g>
	<path class="st27" d="M644.9,96.4v0.2c0,2.2,0.3,5.9-2.6,5.9c-2.6,0-2.9-2.6-2.9-5.8c0-3.2,0.2-5.8,2.8-5.8c1.6,0,2.3,0.8,2.7,2.3
		l-1.4,0.6c-0.1-0.8-0.4-1.5-1.3-1.5c-1.2,0-1.3,1.7-1.3,4.4c0,3.9,0.6,4.4,1.3,4.4c0.6,0,1.3-0.1,1.3-2.8v-0.6h-1.2v-1.3H644.9z"/>
	<path class="st27" d="M647.4,95.7L647.4,95.7c0.4-0.7,0.8-1.1,1.6-1.1v1.4l-0.2,0c-1,0-1.3,0.6-1.3,1.5v4.8h-1.4v-7.6h1.4V95.7z"/>
	<path class="st27" d="M649.8,98.6c0-1.6,0.2-3.9,2.3-3.9c2.1,0,2.3,2.3,2.3,3.9c0,1.6-0.2,3.9-2.3,3.9
		C650,102.5,649.8,100.2,649.8,98.6z M653,98.6c0-0.6,0.1-2.6-0.9-2.6s-0.9,2-0.9,2.6c0,0.5-0.1,2.6,0.9,2.6S653,99.1,653,98.6z"/>
	<path class="st27" d="M656.2,94.8l0.8,5.3v0.1h0l0.3-2.4l0.6-3.1h1l0.8,5.3v0.1h0l0.4-2.8l0.5-2.6h1.3l-1.7,7.6h-0.9l-0.7-3.9
		l-0.1-1.7h0l-0.3,2.7l-0.5,2.9h-1l-1.8-7.6H656.2z"/>
	<path class="st27" d="M664.2,92.7v2.1h0.7v1.1h-0.7v6.5h-1.4v-6.5h-0.7v-1.1h0.7v-2.1H664.2z"/>
	<path class="st27" d="M667.2,89.9v5.7h0c0.3-0.6,0.8-1,1.5-1c1.5,0,1.5,1.3,1.5,2.5v5.2h-1.4v-5.2c0-0.5-0.1-1.2-0.8-1.2
		c-0.9,0-0.8,1.1-0.8,1.7v4.7h-1.4V89.9H667.2z"/>
	<path class="st27" d="M674.3,92.5c0-0.5,0.4-0.9,0.9-0.9c0.5,0,0.9,0.4,0.9,0.9c0,0.5-0.4,0.9-0.9,0.9
		C674.7,93.4,674.3,93,674.3,92.5z M675.9,102.4h-1.4v-7.6h1.4V102.4z"/>
	<path class="st27" d="M678.5,95.7L678.5,95.7c0.3-0.6,0.8-1,1.5-1c1.5,0,1.5,1.3,1.5,2.5v5.2h-1.4v-5.2c0-0.5-0.1-1.2-0.8-1.2
		c-0.9,0-0.8,1.1-0.8,1.7v4.7h-1.4v-7.6h1.4V95.7z"/>
	<path class="st27" d="M687.5,92.7v2.1h0.7v1.1h-0.7v6.5h-1.4v-6.5h-0.7v-1.1h0.7v-2.1H687.5z"/>
	<path class="st27" d="M690.4,89.9v5.7h0c0.3-0.6,0.8-1,1.5-1c1.5,0,1.5,1.3,1.5,2.5v5.2h-1.4v-5.2c0-0.5-0.1-1.2-0.8-1.2
		c-0.9,0-0.8,1.1-0.8,1.7v4.7H689V89.9H690.4z"/>
	<path class="st27" d="M695.9,98.9c0,0.6,0,2.4,0.9,2.4c0.7,0,0.9-0.8,0.9-1.4h1.3c0,1.4-0.6,2.7-2.1,2.7c-2.1,0-2.3-2.2-2.3-3.9
		c0-1.5,0.2-4,2.2-4c2,0,2.2,2.4,2.2,4v0.2H695.9z M697.5,97.9c0-0.6,0-1.9-0.8-1.9c-0.9,0-0.8,1.3-0.8,1.9H697.5z"/>
	<path class="st27" d="M704.4,95.7L704.4,95.7c0.3-0.6,0.8-1,1.5-1c1.5,0,1.5,1.3,1.5,2.5v5.2H706v-5.2c0-0.5-0.1-1.2-0.8-1.2
		c-0.9,0-0.8,1.1-0.8,1.7v4.7H703v-7.6h1.4V95.7z"/>
	<path class="st27" d="M710,94.8v4.7c0,0.7-0.1,1.7,0.8,1.7c0.9,0,0.8-0.9,0.8-1.6v-4.8h1.4v5.1c0,1.6-0.5,2.6-2.1,2.6
		c-2,0-2.3-1.2-2.3-2.9v-4.8H710z"/>
	<path class="st27" d="M715.7,95.7L715.7,95.7c0.4-0.7,0.8-1.1,1.6-1.1v1.4l-0.2,0c-1,0-1.3,0.6-1.3,1.5v4.8h-1.4v-7.6h1.4V95.7z"/>
	<path class="st27" d="M721.1,96.3c-0.3-0.2-0.7-0.4-1-0.4c-0.5,0-0.9,0.3-0.9,0.8c0,1.3,2.3,1.3,2.3,3.5c0,1.3-0.8,2.2-2.1,2.2
		c-0.5,0-0.8-0.1-1.2-0.4v-1.4c0.4,0.3,0.7,0.5,1.1,0.5c0.6,0,0.9-0.4,0.9-1c0-1.3-2.3-1.4-2.3-3.5c0-1.2,0.8-2.1,2-2.1
		c0.5,0,0.8,0.1,1.2,0.3V96.3z"/>
	<path class="st27" d="M722.1,92.5c0-0.5,0.4-0.9,0.9-0.9c0.5,0,0.9,0.4,0.9,0.9c0,0.5-0.4,0.9-0.9,0.9
		C722.5,93.4,722.1,93,722.1,92.5z M723.7,102.4h-1.4v-7.6h1.4V102.4z"/>
	<path class="st27" d="M726.3,95.7L726.3,95.7c0.3-0.6,0.8-1,1.5-1c1.5,0,1.5,1.3,1.5,2.5v5.2H728v-5.2c0-0.5-0.1-1.2-0.8-1.2
		c-0.9,0-0.8,1.1-0.8,1.7v4.7h-1.4v-7.6h1.4V95.7z"/>
	<path class="st27" d="M734.9,102.4c0,2.7-0.8,3.2-2.3,3.2c-1.3,0-2.2-0.8-2.2-2.2v-0.2h1.3c0,0.5,0.2,1.1,0.9,1.1
		c0.9,0,0.8-0.9,0.8-1.6v-1.3h0c-0.2,0.6-0.6,1-1.3,1c-1.8,0-1.8-2.6-1.8-3.9c0-1.2,0-4,1.8-4c0.7,0,1.1,0.4,1.3,1l0,0v-0.9h1.4
		V102.4z M732.7,95.9c-1,0-0.9,2.1-0.9,2.6c0,0.6-0.1,2.7,0.9,2.7s0.8-2,0.8-2.6C733.6,98,733.6,95.9,732.7,95.9z"/>
	<path class="st27" d="M740,94.8l0.8,5.3v0.1h0l0.3-2.4l0.6-3.1h1l0.8,5.3v0.1h0l0.4-2.8l0.5-2.6h1.3l-1.7,7.6H743l-0.7-3.9
		l-0.1-1.7h0l-0.3,2.7l-0.5,2.9h-1l-1.8-7.6H740z"/>
	<path class="st27" d="M746.1,98.6c0-1.6,0.2-3.9,2.3-3.9c2.1,0,2.3,2.3,2.3,3.9c0,1.6-0.2,3.9-2.3,3.9
		C746.3,102.5,746.1,100.2,746.1,98.6z M749.3,98.6c0-0.6,0.1-2.6-0.9-2.6s-0.9,2-0.9,2.6c0,0.5-0.1,2.6,0.9,2.6
		S749.3,99.1,749.3,98.6z"/>
	<path class="st27" d="M753.2,95.7L753.2,95.7c0.4-0.7,0.8-1.1,1.6-1.1v1.4l-0.2,0c-1,0-1.3,0.6-1.3,1.5v4.8h-1.4v-7.6h1.4V95.7z"/>
	<path class="st27" d="M757.1,89.9v8.2h0l1.7-3.4h1.5l-1.9,3.4l2.1,4.2H759l-1.9-4h0v4h-1.4V89.9H757.1z"/>
	<path class="st27" d="M761.9,94.8v-2.4c0-1.3,0.1-2.5,1.7-2.5c0.4,0,0.6,0.1,0.9,0.2v1.5c-0.2-0.1-0.4-0.2-0.6-0.2
		c-0.7,0-0.6,0.7-0.6,1.2v2.3h1.1v1.1h-1.1v6.5h-1.4v-6.5h-0.7v-1.1H761.9z"/>
	<path class="st27" d="M764.9,98.6c0-1.6,0.2-3.9,2.3-3.9c2.1,0,2.3,2.3,2.3,3.9c0,1.6-0.2,3.9-2.3,3.9
		C765.2,102.5,764.9,100.2,764.9,98.6z M768.2,98.6c0-0.6,0.1-2.6-0.9-2.6s-0.9,2-0.9,2.6c0,0.5-0.1,2.6,0.9,2.6
		S768.2,99.1,768.2,98.6z"/>
	<path class="st27" d="M772,95.7L772,95.7c0.4-0.7,0.8-1.1,1.6-1.1v1.4l-0.2,0c-1,0-1.3,0.6-1.3,1.5v4.8h-1.4v-7.6h1.4V95.7z"/>
	<path class="st27" d="M777.6,96.4L777.6,96.4c-0.2-0.2-0.4-0.3-0.7-0.4c-1.2,0-1.2,1.7-1.2,2.5c0,0.8,0,2.7,1.2,2.7
		c0.3,0,0.5-0.1,0.7-0.3v1.3c-0.4,0.2-0.7,0.3-1.1,0.3c-1.9,0-2.2-2.3-2.2-3.8c0-1.6,0.2-4,2.2-4c0.4,0,0.7,0.1,1.1,0.3V96.4z"/>
	<path class="st27" d="M779.8,98.9c0,0.6,0,2.4,0.9,2.4c0.7,0,0.9-0.8,0.9-1.4h1.3c0,1.4-0.6,2.7-2.1,2.7c-2.1,0-2.3-2.2-2.3-3.9
		c0-1.5,0.2-4,2.2-4c2,0,2.2,2.4,2.2,4v0.2H779.8z M781.5,97.9c0-0.6,0-1.9-0.8-1.9c-0.9,0-0.8,1.3-0.8,1.9H781.5z"/>
	<path class="st27" d="M619.7,116.6c0-1.6,0.2-3.9,2.3-3.9c2.1,0,2.3,2.3,2.3,3.9c0,1.6-0.2,3.9-2.3,3.9
		C619.9,120.5,619.7,118.2,619.7,116.6z M622.9,116.6c0-0.6,0.1-2.6-0.9-2.6s-0.9,2-0.9,2.6c0,0.5-0.1,2.6,0.9,2.6
		S622.9,117.2,622.9,116.6z"/>
	<path class="st27" d="M626.8,112.8v4.7c0,0.7-0.1,1.7,0.8,1.7c0.9,0,0.8-0.9,0.8-1.6v-4.8h1.4v5.1c0,1.6-0.5,2.6-2.1,2.6
		c-2,0-2.3-1.2-2.3-2.9v-4.8H626.8z"/>
	<path class="st27" d="M632.7,110.7v2.1h0.7v1.1h-0.7v6.5h-1.4v-6.5h-0.7v-1.1h0.7v-2.1H632.7z"/>
	<path class="st27" d="M635.7,113.8L635.7,113.8c0.3-0.6,0.6-1.1,1.4-1.1c1.7,0,1.7,2.8,1.7,4c0,1.3,0,3.8-1.8,3.8
		c-0.7,0-1-0.4-1.3-1h0v4h-1.4v-10.7h1.4V113.8z M637.4,116.6c0-0.6,0.1-2.7-0.9-2.7c-0.9,0-0.9,2-0.9,2.7c0,0.6-0.1,2.6,0.9,2.6
		C637.4,119.2,637.4,117.9,637.4,116.6z"/>
	<path class="st27" d="M642.8,119.4L642.8,119.4c-0.3,0.7-0.6,1.1-1.4,1.1c-1.7,0-1.7-2.8-1.7-4c0-1.3,0-3.8,1.8-3.8
		c0.6,0,1.1,0.4,1.3,1h0v-0.8h1.4v7.6h-1.4V119.4z M642.8,116.6c0-0.6,0.1-2.6-0.9-2.6c-1,0-0.9,2-0.9,2.6c0,0.6-0.1,2.7,0.9,2.7
		C642.9,119.2,642.8,117.2,642.8,116.6z"/>
	<path class="st27" d="M648.5,114.4L648.5,114.4c-0.2-0.2-0.4-0.3-0.7-0.4c-1.2,0-1.2,1.7-1.2,2.5c0,0.8,0,2.7,1.2,2.7
		c0.3,0,0.5-0.1,0.7-0.3v1.3c-0.4,0.2-0.7,0.3-1.1,0.3c-1.9,0-2.2-2.3-2.2-3.8c0-1.6,0.2-4,2.2-4c0.4,0,0.7,0.1,1.1,0.3V114.4z"/>
	<path class="st27" d="M650.7,116.9c0,0.6,0,2.4,0.9,2.4c0.7,0,0.9-0.8,0.9-1.4h1.3c0,1.4-0.6,2.7-2.1,2.7c-2.1,0-2.3-2.2-2.3-3.9
		c0-1.5,0.2-4,2.2-4c2,0,2.2,2.4,2.2,4v0.2H650.7z M652.3,115.9c0-0.6,0-1.9-0.8-1.9c-0.9,0-0.8,1.3-0.8,1.9H652.3z"/>
	<path class="st27" d="M657.7,119.4L657.7,119.4c-0.3,0.7-0.6,1.1-1.4,1.1c-1.7,0-1.7-2.8-1.7-4c0-1.3,0-3.8,1.8-3.8
		c0.7,0,1,0.4,1.3,1h0v-5.7h1.4v12.4h-1.4V119.4z M657.7,116.6c0-0.6,0.1-2.6-0.9-2.6c-1,0-0.9,2-0.9,2.6c0,0.6-0.1,2.7,0.9,2.7
		C657.8,119.2,657.7,117.2,657.7,116.6z"/>
	<path class="st27" d="M665,110.7v2.1h0.7v1.1H665v6.5h-1.4v-6.5h-0.7v-1.1h0.7v-2.1H665z"/>
	<path class="st27" d="M667.9,107.9v5.7h0c0.3-0.6,0.8-1,1.5-1c1.5,0,1.5,1.3,1.5,2.5v5.2h-1.4v-5.2c0-0.5-0.1-1.2-0.8-1.2
		c-0.9,0-0.8,1.1-0.8,1.7v4.7h-1.4v-12.4H667.9z"/>
	<path class="st27" d="M673.4,116.9c0,0.6,0,2.4,0.9,2.4c0.7,0,0.9-0.8,0.9-1.4h1.3c0,1.4-0.6,2.7-2.1,2.7c-2.1,0-2.3-2.2-2.3-3.9
		c0-1.5,0.2-4,2.2-4c2,0,2.2,2.4,2.2,4v0.2H673.4z M675.1,115.9c0-0.6,0-1.9-0.8-1.9c-0.9,0-0.8,1.3-0.8,1.9H675.1z"/>
	<path class="st27" d="M684.8,120.4c0,2.7-0.8,3.2-2.3,3.2c-1.3,0-2.2-0.8-2.2-2.2v-0.2h1.3c0,0.5,0.2,1.1,0.9,1.1
		c0.9,0,0.8-0.9,0.8-1.6v-1.3h0c-0.2,0.6-0.6,1-1.3,1c-1.8,0-1.8-2.6-1.8-3.9c0-1.2,0-4,1.8-4c0.7,0,1.1,0.4,1.3,1l0,0v-0.9h1.4
		V120.4z M682.6,113.9c-1,0-0.9,2.1-0.9,2.6c0,0.6-0.1,2.7,0.9,2.7s0.8-2,0.8-2.6C683.4,116,683.4,113.9,682.6,113.9z"/>
	<path class="st27" d="M687.5,113.7L687.5,113.7c0.4-0.7,0.8-1.1,1.6-1.1v1.4l-0.2,0c-1,0-1.3,0.6-1.3,1.5v4.8h-1.4v-7.6h1.4V113.7z
		"/>
	<path class="st27" d="M689.8,116.6c0-1.6,0.2-3.9,2.3-3.9c2.1,0,2.3,2.3,2.3,3.9c0,1.6-0.2,3.9-2.3,3.9
		C690,120.5,689.8,118.2,689.8,116.6z M693.1,116.6c0-0.6,0.1-2.6-0.9-2.6s-0.9,2-0.9,2.6c0,0.5-0.1,2.6,0.9,2.6
		S693.1,117.2,693.1,116.6z"/>
	<path class="st27" d="M696.3,112.8l0.8,5.3v0.1h0l0.3-2.4l0.6-3.1h1l0.8,5.3v0.1h0l0.4-2.8l0.5-2.6h1.3l-1.7,7.6h-0.9l-0.7-3.9
		l-0.1-1.7h0l-0.3,2.7l-0.5,2.9h-1l-1.8-7.6H696.3z"/>
	<path class="st27" d="M704.3,110.7v2.1h0.7v1.1h-0.7v6.5h-1.4v-6.5h-0.7v-1.1h0.7v-2.1H704.3z"/>
	<path class="st27" d="M707.2,107.9v5.7h0c0.3-0.6,0.8-1,1.5-1c1.5,0,1.5,1.3,1.5,2.5v5.2h-1.4v-5.2c0-0.5-0.1-1.2-0.8-1.2
		c-0.9,0-0.8,1.1-0.8,1.7v4.7h-1.4v-12.4H707.2z"/>
	<path class="st27" d="M714.3,116.6c0-1.6,0.2-3.9,2.3-3.9c2.1,0,2.3,2.3,2.3,3.9c0,1.6-0.2,3.9-2.3,3.9
		C714.5,120.5,714.3,118.2,714.3,116.6z M717.6,116.6c0-0.6,0.1-2.6-0.9-2.6s-0.9,2-0.9,2.6c0,0.5-0.1,2.6,0.9,2.6
		S717.6,117.2,717.6,116.6z"/>
	<path class="st27" d="M720.4,112.8v-2.4c0-1.3,0.1-2.5,1.7-2.5c0.4,0,0.6,0.1,0.9,0.2v1.5c-0.2-0.1-0.4-0.2-0.6-0.2
		c-0.7,0-0.6,0.7-0.6,1.2v2.3h1.1v1.1h-1.1v6.5h-1.4v-6.5h-0.7v-1.1H720.4z"/>
	<path class="st27" d="M728.3,110.7v2.1h0.7v1.1h-0.7v6.5h-1.4v-6.5h-0.7v-1.1h0.7v-2.1H728.3z"/>
	<path class="st27" d="M731.3,107.9v5.7h0c0.3-0.6,0.8-1,1.5-1c1.5,0,1.5,1.3,1.5,2.5v5.2h-1.4v-5.2c0-0.5-0.1-1.2-0.8-1.2
		c-0.9,0-0.8,1.1-0.8,1.7v4.7h-1.4v-12.4H731.3z"/>
	<path class="st27" d="M736.7,116.9c0,0.6,0,2.4,0.9,2.4c0.7,0,0.9-0.8,0.9-1.4h1.3c0,1.4-0.6,2.7-2.1,2.7c-2.1,0-2.3-2.2-2.3-3.9
		c0-1.5,0.2-4,2.2-4c2,0,2.2,2.4,2.2,4v0.2H736.7z M738.4,115.9c0-0.6,0-1.9-0.8-1.9c-0.9,0-0.8,1.3-0.8,1.9H738.4z"/>
	<path class="st27" d="M745.5,109.1v8.3c0,1.5,0.4,1.8,1,1.8c1,0,1.1-0.7,1.1-1.6v-8.5h1.5v8c0,1.5,0,3.4-2.5,3.4
		c-2.3,0-2.5-1.6-2.5-3.7v-7.8H745.5z"/>
	<path class="st27" d="M754.3,110.8c-0.4-0.3-0.7-0.5-1.2-0.5c-0.8,0-1.3,0.7-1.3,1.5c0,0.5,0.1,0.8,0.4,1.2l1.1,1.2
		c1,1,1.6,1.8,1.6,3.3c0,1.6-1,3-2.6,3c-0.6,0-1.2-0.2-1.6-0.5v-1.5c0.4,0.3,0.9,0.6,1.4,0.6c0.9,0,1.3-0.7,1.3-1.6
		c0-2.2-3.1-2.7-3.1-5.7c0-1.6,0.8-2.9,2.5-2.9c0.6,0,1.1,0.1,1.5,0.4L754.3,110.8z"/>
	<path class="st27" d="M760.2,113.8L760.2,113.8c0.3-0.6,0.6-1.1,1.4-1.1c1.7,0,1.7,2.8,1.7,4c0,1.3,0,3.8-1.8,3.8
		c-0.7,0-1-0.4-1.3-1h0v4h-1.4v-10.7h1.4V113.8z M761.9,116.6c0-0.6,0.1-2.7-0.9-2.7c-0.9,0-0.9,2-0.9,2.7c0,0.6-0.1,2.6,0.9,2.6
		C761.9,119.2,761.9,117.9,761.9,116.6z"/>
	<path class="st27" d="M764.2,116.6c0-1.6,0.2-3.9,2.3-3.9c2.1,0,2.3,2.3,2.3,3.9c0,1.6-0.2,3.9-2.3,3.9
		C764.4,120.5,764.2,118.2,764.2,116.6z M767.4,116.6c0-0.6,0.1-2.6-0.9-2.6s-0.9,2-0.9,2.6c0,0.5-0.1,2.6,0.9,2.6
		S767.4,117.2,767.4,116.6z"/>
	<path class="st27" d="M771.2,113.8L771.2,113.8c0.3-0.6,0.6-1.1,1.4-1.1c1.7,0,1.7,2.8,1.7,4c0,1.3,0,3.8-1.8,3.8
		c-0.7,0-1-0.4-1.3-1h0v4h-1.4v-10.7h1.4V113.8z M773,116.6c0-0.6,0.1-2.7-0.9-2.7c-0.9,0-0.9,2-0.9,2.7c0,0.6-0.1,2.6,0.9,2.6
		C772.9,119.2,773,117.9,773,116.6z"/>
	<path class="st27" d="M776.8,112.8v4.7c0,0.7-0.1,1.7,0.8,1.7c0.9,0,0.8-0.9,0.8-1.6v-4.8h1.4v5.1c0,1.6-0.5,2.6-2.1,2.6
		c-2,0-2.3-1.2-2.3-2.9v-4.8H776.8z"/>
	<path class="st27" d="M782.5,120.4h-1.4v-12.4h1.4V120.4z"/>
	<path class="st27" d="M786.7,119.4L786.7,119.4c-0.3,0.7-0.6,1.1-1.4,1.1c-1.7,0-1.7-2.8-1.7-4c0-1.3,0-3.8,1.8-3.8
		c0.6,0,1.1,0.4,1.3,1h0v-0.8h1.4v7.6h-1.4V119.4z M786.7,116.6c0-0.6,0.1-2.6-0.9-2.6c-1,0-0.9,2-0.9,2.6c0,0.6-0.1,2.7,0.9,2.7
		C786.8,119.2,786.7,117.2,786.7,116.6z"/>
	<path class="st27" d="M791,110.7v2.1h0.7v1.1H791v6.5h-1.4v-6.5h-0.7v-1.1h0.7v-2.1H791z"/>
	<path class="st27" d="M792.3,110.5c0-0.5,0.4-0.9,0.9-0.9c0.5,0,0.9,0.4,0.9,0.9c0,0.5-0.4,0.9-0.9,0.9
		C792.7,111.5,792.3,111,792.3,110.5z M793.9,120.4h-1.4v-7.6h1.4V120.4z"/>
	<path class="st27" d="M795,116.6c0-1.6,0.2-3.9,2.3-3.9c2.1,0,2.3,2.3,2.3,3.9c0,1.6-0.2,3.9-2.3,3.9
		C795.2,120.5,795,118.2,795,116.6z M798.2,116.6c0-0.6,0.1-2.6-0.9-2.6s-0.9,2-0.9,2.6c0,0.5-0.1,2.6,0.9,2.6
		S798.2,117.2,798.2,116.6z"/>
	<path class="st27" d="M802,113.7L802,113.7c0.3-0.6,0.8-1,1.5-1c1.5,0,1.5,1.3,1.5,2.5v5.2h-1.4v-5.2c0-0.5-0.1-1.2-0.8-1.2
		c-0.9,0-0.8,1.1-0.8,1.7v4.7h-1.4v-7.6h1.4V113.7z"/>
</g>
<g>
	<path class="st6" d="M292,76.8h17.8v7.8l-4.7-0.2v16.4h-8.5V84.4l-4.7,0.2V76.8z"/>
	<path class="st6" d="M311.6,75h8v7.1l-0.4,4.7h0.1c1.5-1.8,3-3.3,5.3-3.3c4.1,0,5.5,3.2,5.5,6.9v10.4h-7.8v-8.7c0-0.9-0.1-2-1.3-2
		c-1.2,0-1.5,1-1.5,2v8.7h-8V75z"/>
	<path class="st6" d="M340.7,93.7c0,1.4,0.2,2.9,1.9,2.9c0.8,0,1.5-0.6,1.6-1.4h7.8c-1.1,4.1-5.5,5.9-9.3,5.9
		c-5.2,0-9.9-2.7-9.9-8.5c0-5.6,4.2-9.1,9.4-9.1c5.8,0,10.5,3.9,10.1,10.2H340.7z M344.4,90.2c0-1.1-0.8-2.2-1.9-2.2
		c-1.2,0-1.8,1-1.8,2.2H344.4z"/>
</g>
<g>
	<path class="st24" d="M296.1,102.3H315l7,27.2h0.5c0.3-2.3,0.7-4.7,1.3-6.9l5.7-20.4h18.7l8.3,51.9h-17.8l-2.5-28.4h-0.3
		c-0.3,1.7-0.7,3.5-1.2,5.2l-7.3,23.3h-10.7l-6.6-21.9c-0.5-2.2-1-4.3-1.1-6.5h-0.6c-0.1,2.1-0.3,4.2-0.5,6.3l-2.1,22.2h-17.8
		L296.1,102.3z"/>
	<path class="st24" d="M403.9,136.4c0,12.1-10.5,18.6-21.6,18.6c-11.1,0-21.6-6.5-21.6-18.6c0-12.8,9.9-19.5,21.6-19.5
		S403.9,123.6,403.9,136.4z M377.5,136.1c0,2.9,2.1,5,4.8,5c2.7,0,4.8-2.1,4.8-5c0-3-1.9-5.4-4.8-5.4
		C379.5,130.7,377.5,133.2,377.5,136.1z"/>
	<path class="st24" d="M435.3,148.8h-0.4c-2.9,3.7-7,6.3-11.6,6.3c-9.7,0-14.7-10-14.7-18.8c0-9.1,4.8-19.4,14.8-19.4
		c4,0,8.3,2.3,10.7,5.7h0.6l-0.8-8.7V98.4h17.3v55.8H435L435.3,148.8z M425.6,135.9c0,2.8,1.5,5.2,4.4,5.2c2.7,0,4.5-2.9,4.5-5.4
		c0-2.5-1.9-5-4.5-5C427.1,130.7,425.6,133.2,425.6,135.9z"/>
	<path class="st24" d="M473.9,138.9c0,3,0.5,6.3,4.1,6.3c1.8,0,3.2-1.3,3.5-3h16.8c-2.3,8.8-11.9,12.9-20,12.9
		c-11.2,0-21.5-5.9-21.5-18.5c0-12.1,9.1-19.7,20.4-19.7c12.7,0,22.7,8.4,21.8,22.1H473.9z M482,131.4c0-2.5-1.7-4.7-4.2-4.7
		c-2.6,0-3.9,2.2-3.9,4.7H482z"/>
	<path class="st24" d="M534,134.9c-1.8-1.1-3.1-2-5.3-2c-4.5,0-6.8,2.8-6.8,7.3v14h-17.3v-36.5h17.3l-0.4,4.9h0.4
		c3.1-4.8,6.2-5.8,12.1-5.7V134.9z"/>
	<path class="st24" d="M554.6,123.5h0.4c3.4-4,5.9-6.7,11.5-6.7c8.8,0,12.3,6.8,12.3,14.9v22.5h-17.3v-17.8c0-2.1,0-5.2-2.9-5.2
		c-2.9,0-2.9,3-2.9,5.2v17.8h-17.3v-36.5h16.9L554.6,123.5z"/>
</g>
<g>
	<path class="st26" d="M339.2,156.6h17.6l16.5,28.8h0.5c-0.7-4.3-1.5-8.8-1.5-13.2v-15.5h17.6v51.9h-17.6l-16.2-27.2h-0.5
		c0.6,3.6,1.1,6.9,1.1,10.4v16.9h-17.6V156.6z"/>
	<path class="st26" d="M414.2,171.9v18.9c0,2.1,0.1,4.4,3,4.4c2.8,0,2.9-2.3,2.9-4.4v-18.9h17.2v20.6c0,11.6-9.8,16.7-20.1,16.7
		c-10.3,0-20.1-5.2-20.1-16.7v-20.6H414.2z"/>
	<path class="st26" d="M473.1,189.1c-1.8-1.1-3.1-2-5.3-2c-4.5,0-6.8,2.8-6.8,7.3v14h-17.3v-36.5H461l-0.4,4.9h0.4
		c3.1-4.8,6.2-5.8,12.1-5.7V189.1z"/>
	<path class="st26" d="M478.7,194.2l1.1,0.7c2.4,1.5,5.9,3.4,8.8,3.4c1.1,0,2.5-0.6,2.5-2c0-2-2.1-2.1-3.5-2.3
		c-5.8-0.8-11.1-3.2-11.1-10.1c0-9.2,9-12.8,16.6-12.8c4.4,0,9.9,0.9,13.8,3.1l-4.2,10.1c-2.2-1.7-5.2-3-8-3c-1.1,0-2.5,0.3-2.5,1.7
		c0,1.8,1.9,1.9,4.3,2.3c6.2,1,11.2,3.2,11.2,10.6c0,9.5-9.2,13.4-17.2,13.4c-5.6,0-11.1-1.8-16.3-4.1L478.7,194.2z"/>
	<path class="st26" d="M528.8,193.2c0,3,0.5,6.3,4.1,6.3c1.8,0,3.2-1.3,3.5-3h16.8c-2.3,8.8-11.9,12.9-20,12.9
		c-11.2,0-21.5-5.9-21.5-18.5c0-12.1,9.1-19.7,20.4-19.7c12.7,0,22.7,8.4,21.8,22.1H528.8z M536.9,185.6c0-2.5-1.7-4.7-4.2-4.7
		c-2.6,0-3.9,2.2-3.9,4.7H536.9z"/>
</g>
<path class="st19" d="M678.8,727.6H109c-24,0-43.4-19.4-43.4-43.4v-269c0-23.7,19.2-42.9,42.9-42.9h574.2c6.7,0,12.1-5.4,12.1-12.1
	V314h40.4v70c0,19.4-15.7,35.1-35.1,35.1H132.7c-9.9,0-17.9,8-17.9,17.9v224.9c0,7.9,6.4,14.2,14.2,14.2h562.6
	C719.2,676,687.6,727.6,678.8,727.6z"/>
<path class="st19" d="M678.8,727.6c6.7,0,8.9,0.5,8.9,7.2v54H728V711c0-19.4-15.7-35.1-35.1-35.1L678.8,727.6z"/>
</svg>
