<?xml version="1.0" encoding="utf-8"?>
<!-- Generator: Adobe Illustrator 19.2.1, SVG Export Plug-In . SVG Version: 6.00 Build 0)  -->
<!DOCTYPE svg PUBLIC "-//W3C//DTD SVG 1.1//EN" "http://www.w3.org/Graphics/SVG/1.1/DTD/svg11.dtd">
<svg version="1.1" id="Layer_1" xmlns="http://www.w3.org/2000/svg" xmlns:xlink="http://www.w3.org/1999/xlink" x="0px" y="0px"
	 width="198px" height="81.3px" viewBox="0 0 198 81.3" style="enable-background:new 0 0 198 81.3;" xml:space="preserve">
<style type="text/css">
	.st0{fill:#7CBAA0;}
	.st1{fill:#FEF7E9;stroke:#FEF7E9;stroke-width:0.5763;stroke-miterlimit:10;}
	.st2{fill:none;stroke:#000000;stroke-width:0.685;stroke-miterlimit:10;}
	.st3{fill:#E12946;stroke:#E12946;stroke-width:0.226;stroke-miterlimit:10;}
	.st4{fill:#FFFFFF;stroke:#FFFFFF;stroke-width:0.3134;stroke-miterlimit:10;}
	.st5{fill:#FFF6DA;stroke:#FFF6DA;stroke-width:0.685;stroke-miterlimit:10;}
	.st6{fill:#FEF7E9;}
	.st7{fill:#E12946;}
	.st8{fill:#CFE7CA;stroke:#CFE7CA;stroke-width:3.1391;stroke-miterlimit:10;}
	.st9{fill:#0E8085;stroke:#0E8085;stroke-width:0.8965;stroke-miterlimit:10;}
	.st10{fill:#6D6E71;stroke:#6D6E71;stroke-width:0.8965;stroke-miterlimit:10;}
	.st11{fill:none;stroke:#E12946;stroke-width:1.0655;stroke-miterlimit:10;}
	.st12{fill:none;stroke:#C82D38;stroke-width:1.0584;stroke-miterlimit:10;}
	.st13{fill:#FEF7E9;stroke:#FEF7E9;stroke-width:0.266;stroke-miterlimit:10;}
	.st14{fill:#FFF6DA;stroke:#FFF6DA;stroke-width:0.2877;stroke-miterlimit:10;}
	.st15{fill:none;stroke:#000000;stroke-width:0.266;stroke-miterlimit:10;}
	.st16{fill:none;stroke:#C82D38;stroke-width:0.266;stroke-miterlimit:10;}
	.st17{fill:#ABDBC9;stroke:#ABDBC9;stroke-width:2.7226;stroke-miterlimit:10;}
	.st18{fill:#FEF7E9;stroke:#FEF7E9;stroke-width:2.8369;stroke-miterlimit:10;}
	.st19{fill:#ABDBC9;stroke:#ABDBC9;stroke-width:2.5664;stroke-miterlimit:10;}
	.st20{fill:#CFE7CA;stroke:#CFE7CA;stroke-width:2.9387;stroke-miterlimit:10;}
	.st21{fill:#CFE7CA;stroke:#ABDBC9;stroke-width:2.9387;stroke-miterlimit:10;}
	.st22{fill:#ABDBC9;stroke:#ABDBC9;stroke-width:0.9453;stroke-miterlimit:10;}
	.st23{fill:#FFFFFF;stroke:#FFFFFF;stroke-width:0.3408;stroke-miterlimit:10;}
	.st24{fill:#CFE7CA;}
	.st25{fill:#E6E7E8;}
	.st26{fill:#C82D38;}
	.st27{fill:#ABDBC9;}
	.st28{fill:#BB8B3A;}
	.st29{fill:none;stroke:#000000;stroke-width:0.5254;stroke-miterlimit:10;}
	.st30{fill:none;stroke:#000000;stroke-width:0.587;stroke-miterlimit:10;}
	.st31{fill:#44A13F;}
	.st32{fill:#0E8085;}
	.st33{fill:#D1D3D4;}
	.st34{fill:#CFE7CA;stroke:#CFE7CA;stroke-width:1.1484;stroke-miterlimit:10;}
	.st35{stroke:#000000;stroke-width:0.937;stroke-miterlimit:10;}
	.st36{fill:#F7D2A0;stroke:#F7D2A0;stroke-width:0.937;stroke-miterlimit:10;}
	.st37{fill:#BB8B3A;stroke:#BB8B3A;stroke-width:0.937;stroke-miterlimit:10;}
	.st38{fill:#F7D2A0;stroke:#F7D2A0;stroke-width:0.8093;stroke-miterlimit:10;}
	.st39{fill:#7E431D;}
	.st40{fill:none;stroke:#000000;stroke-width:0.4046;stroke-miterlimit:10;}
	.st41{fill:#FFFFFF;stroke:#000000;stroke-width:0.8093;stroke-miterlimit:10;}
	.st42{fill:#E12946;stroke:#000000;stroke-width:0.8093;stroke-miterlimit:10;}
	.st43{fill:#F7D2A0;}
	.st44{fill:#E12946;stroke:#E12946;stroke-width:0.8093;stroke-miterlimit:10;}
	.st45{fill:#6D6E71;}
	.st46{fill:#414042;stroke:#414042;stroke-width:0.8093;stroke-miterlimit:10;}
	.st47{stroke:#000000;stroke-width:0.8093;stroke-miterlimit:10;}
	.st48{fill:#CFE7CA;stroke:#CFE7CA;stroke-width:0.9875;stroke-miterlimit:10;}
	.st49{fill:#FEF7E9;stroke:#FEF7E9;stroke-width:8.656223e-02;stroke-miterlimit:10;}
	.st50{stroke:#000000;stroke-width:4.328112e-02;stroke-miterlimit:10;}
	.st51{fill:#F7D2A0;stroke:#F7D2A0;stroke-width:8.656223e-02;stroke-miterlimit:10;}
	.st52{fill:#FEF7E9;stroke:#000000;stroke-width:8.656223e-02;stroke-miterlimit:10;}
	.st53{fill:#E12946;stroke:#000000;stroke-width:8.656223e-02;stroke-miterlimit:10;}
	.st54{fill:#E12946;stroke:#000000;stroke-width:7.652872e-02;stroke-miterlimit:10;}
	.st55{fill:#A5D9C9;stroke:#A5D9C9;stroke-width:8.704956e-02;stroke-miterlimit:10;}
	.st56{stroke:#000000;stroke-width:4.614126e-02;stroke-miterlimit:10;}
	.st57{stroke:#000000;stroke-width:4.614124e-02;stroke-miterlimit:10;}
	.st58{fill:#F7D2A0;stroke:#F7D2A0;stroke-width:8.846698e-02;stroke-miterlimit:10;}
	.st59{fill:#6D6E71;stroke:#000000;stroke-width:4.327587e-02;stroke-miterlimit:10;}
	.st60{fill:#414042;stroke:#414042;stroke-width:4.327587e-02;stroke-miterlimit:10;}
	.st61{stroke:#000000;stroke-width:4.327587e-02;stroke-miterlimit:10;}
	.st62{fill:#FEF7E9;stroke:#FEF7E9;stroke-width:6.648043e-02;stroke-miterlimit:10;}
	.st63{stroke:#000000;stroke-width:3.324021e-02;stroke-miterlimit:10;}
	.st64{fill:#F7D2A0;stroke:#F7D2A0;stroke-width:6.648043e-02;stroke-miterlimit:10;}
	.st65{fill:#FEF7E9;stroke:#000000;stroke-width:6.648043e-02;stroke-miterlimit:10;}
	.st66{fill:#E12946;stroke:#000000;stroke-width:6.648043e-02;stroke-miterlimit:10;}
	.st67{fill:#E12946;stroke:#000000;stroke-width:5.877462e-02;stroke-miterlimit:10;}
	.st68{fill:#A5D9C9;stroke:#A5D9C9;stroke-width:6.685470e-02;stroke-miterlimit:10;}
	.st69{stroke:#000000;stroke-width:3.543682e-02;stroke-miterlimit:10;}
	.st70{stroke:#000000;stroke-width:3.543681e-02;stroke-miterlimit:10;}
	.st71{fill:#F7D2A0;stroke:#F7D2A0;stroke-width:6.794329e-02;stroke-miterlimit:10;}
	.st72{fill:#6D6E71;stroke:#000000;stroke-width:3.323619e-02;stroke-miterlimit:10;}
	.st73{fill:#414042;stroke:#414042;stroke-width:3.323619e-02;stroke-miterlimit:10;}
	.st74{stroke:#000000;stroke-width:3.323619e-02;stroke-miterlimit:10;}
	.st75{fill:#FEF7E9;stroke:#FEF7E9;stroke-width:4.363440e-02;stroke-miterlimit:10;}
	.st76{stroke:#000000;stroke-width:2.181720e-02;stroke-miterlimit:10;}
	.st77{fill:#F7D2A0;stroke:#F7D2A0;stroke-width:4.363440e-02;stroke-miterlimit:10;}
	.st78{fill:#FEF7E9;stroke:#000000;stroke-width:4.363440e-02;stroke-miterlimit:10;}
	.st79{fill:#E12946;stroke:#000000;stroke-width:4.363440e-02;stroke-miterlimit:10;}
	.st80{fill:#E12946;stroke:#000000;stroke-width:3.857670e-02;stroke-miterlimit:10;}
	.st81{fill:#A5D9C9;stroke:#A5D9C9;stroke-width:4.388006e-02;stroke-miterlimit:10;}
	.st82{stroke:#000000;stroke-width:2.325894e-02;stroke-miterlimit:10;}
	.st83{fill:#F7D2A0;stroke:#F7D2A0;stroke-width:4.459455e-02;stroke-miterlimit:10;}
	.st84{fill:#6D6E71;stroke:#000000;stroke-width:2.181456e-02;stroke-miterlimit:10;}
	.st85{fill:#414042;stroke:#414042;stroke-width:2.181456e-02;stroke-miterlimit:10;}
	.st86{stroke:#000000;stroke-width:2.181456e-02;stroke-miterlimit:10;}
	.st87{fill:#FEF7E9;stroke:#FEF7E9;stroke-width:3.452846e-02;stroke-miterlimit:10;}
	.st88{stroke:#000000;stroke-width:1.726423e-02;stroke-miterlimit:10;}
	.st89{fill:#F7D2A0;stroke:#F7D2A0;stroke-width:3.452846e-02;stroke-miterlimit:10;}
	.st90{fill:#FEF7E9;stroke:#000000;stroke-width:3.452846e-02;stroke-miterlimit:10;}
	.st91{fill:#E12946;stroke:#000000;stroke-width:3.452846e-02;stroke-miterlimit:10;}
	.st92{fill:#E12946;stroke:#000000;stroke-width:3.052623e-02;stroke-miterlimit:10;}
	.st93{fill:#A5D9C9;stroke:#A5D9C9;stroke-width:3.472285e-02;stroke-miterlimit:10;}
	.st94{stroke:#000000;stroke-width:1.840510e-02;stroke-miterlimit:10;}
	.st95{stroke:#000000;stroke-width:1.840509e-02;stroke-miterlimit:10;}
	.st96{fill:#F7D2A0;stroke:#F7D2A0;stroke-width:3.528823e-02;stroke-miterlimit:10;}
	.st97{fill:#6D6E71;stroke:#000000;stroke-width:1.726214e-02;stroke-miterlimit:10;}
	.st98{fill:#414042;stroke:#414042;stroke-width:1.726214e-02;stroke-miterlimit:10;}
	.st99{stroke:#000000;stroke-width:1.726214e-02;stroke-miterlimit:10;}
	.st100{fill:#FEF7E9;stroke:#FEF7E9;stroke-width:2.912777e-02;stroke-miterlimit:10;}
	.st101{stroke:#000000;stroke-width:1.456389e-02;stroke-miterlimit:10;}
	.st102{fill:#F7D2A0;stroke:#F7D2A0;stroke-width:2.912777e-02;stroke-miterlimit:10;}
	.st103{fill:#FEF7E9;stroke:#000000;stroke-width:2.912777e-02;stroke-miterlimit:10;}
	.st104{fill:#E12946;stroke:#000000;stroke-width:2.912777e-02;stroke-miterlimit:10;}
	.st105{fill:#E12946;stroke:#000000;stroke-width:2.575154e-02;stroke-miterlimit:10;}
	.st106{fill:#A5D9C9;stroke:#A5D9C9;stroke-width:2.929175e-02;stroke-miterlimit:10;}
	.st107{stroke:#000000;stroke-width:1.552631e-02;stroke-miterlimit:10;}
	.st108{stroke:#000000;stroke-width:1.552630e-02;stroke-miterlimit:10;}
	.st109{fill:#F7D2A0;stroke:#F7D2A0;stroke-width:2.976871e-02;stroke-miterlimit:10;}
	.st110{fill:#6D6E71;stroke:#000000;stroke-width:1.456212e-02;stroke-miterlimit:10;}
	.st111{fill:#414042;stroke:#414042;stroke-width:1.456212e-02;stroke-miterlimit:10;}
	.st112{stroke:#000000;stroke-width:1.456212e-02;stroke-miterlimit:10;}
	.st113{stroke:#000000;stroke-width:0.6962;stroke-miterlimit:10;}
	.st114{stroke:#000000;stroke-width:0.7274;stroke-miterlimit:10;}
	.st115{fill:#E12946;stroke:#000000;stroke-width:0.7198;stroke-miterlimit:10;}
	.st116{fill:none;stroke:#000000;stroke-width:0.3312;stroke-miterlimit:10;}
	.st117{fill:none;stroke:#E12946;stroke-width:0.3312;stroke-miterlimit:10;}
	.st118{fill:#FEF7E9;stroke:#FEF7E9;stroke-width:0.1044;stroke-miterlimit:10;}
	.st119{stroke:#000000;stroke-width:5.219126e-02;stroke-miterlimit:10;}
	.st120{fill:#F7D2A0;stroke:#F7D2A0;stroke-width:0.1044;stroke-miterlimit:10;}
	.st121{fill:#FEF7E9;stroke:#000000;stroke-width:0.1044;stroke-miterlimit:10;}
	.st122{fill:#E12946;stroke:#000000;stroke-width:0.1044;stroke-miterlimit:10;}
	.st123{fill:#E12946;stroke:#000000;stroke-width:9.228344e-02;stroke-miterlimit:10;}
	.st124{fill:#50B848;stroke:#50B848;stroke-width:4.215942e-02;stroke-miterlimit:10;}
	.st125{fill:#629444;stroke:#629444;stroke-width:4.215942e-02;stroke-miterlimit:10;}
	.st126{fill:#50B848;stroke:#50B848;stroke-width:3.607162e-02;stroke-miterlimit:10;}
	.st127{fill:#629444;stroke:#629444;stroke-width:3.607162e-02;stroke-miterlimit:10;}
	.st128{fill:#50B848;stroke:#50B848;stroke-width:2.840276e-02;stroke-miterlimit:10;}
	.st129{fill:#629444;stroke:#629444;stroke-width:2.840276e-02;stroke-miterlimit:10;}
	.st130{fill:#A5D9C9;stroke:#A5D9C9;stroke-width:0.1109;stroke-miterlimit:10;}
	.st131{stroke:#000000;stroke-width:5.879105e-02;stroke-miterlimit:10;}
	.st132{stroke:#000000;stroke-width:5.879103e-02;stroke-miterlimit:10;}
	.st133{fill:#F7D2A0;stroke:#F7D2A0;stroke-width:0.1127;stroke-miterlimit:10;}
	.st134{fill:#6D6E71;stroke:#000000;stroke-width:5.514011e-02;stroke-miterlimit:10;}
	.st135{fill:#414042;stroke:#414042;stroke-width:5.514011e-02;stroke-miterlimit:10;}
	.st136{stroke:#000000;stroke-width:5.514011e-02;stroke-miterlimit:10;}
	.st137{fill:#44A13F;stroke:#50B848;stroke-width:4.269000e-02;stroke-miterlimit:10;}
	.st138{fill:#0E8085;stroke:#0E8085;stroke-width:0.3951;stroke-miterlimit:10;}
	.st139{fill:#C82D38;stroke:#C82D38;stroke-width:0.3951;stroke-miterlimit:10;}
	.st140{fill:#FFFFFF;stroke:#000000;stroke-width:0.3951;stroke-miterlimit:10;}
	.st141{fill:none;stroke:#000000;stroke-width:0.3951;stroke-linecap:round;stroke-linejoin:round;stroke-miterlimit:10;}
	.st142{fill:#F7D2A0;stroke:#000000;stroke-width:0.3426;stroke-miterlimit:10;}
	.st143{fill:none;stroke:#000000;stroke-width:0.3951;stroke-miterlimit:10;}
	.st144{fill:#F7D2A0;stroke:#000000;stroke-width:0.377;stroke-miterlimit:10;}
	.st145{stroke:#000000;stroke-width:0.3951;stroke-miterlimit:10;}
	.st146{fill:#7E431D;stroke:#7E431D;stroke-width:0.3426;stroke-miterlimit:10;}
	.st147{fill:#BB8B3A;stroke:#BB8B3A;stroke-width:0.3951;stroke-miterlimit:10;}
	.st148{fill:#D1D3D4;stroke:#D1D3D4;stroke-width:0.273;stroke-miterlimit:10;}
	.st149{fill:#D1D3D4;stroke:#D1D3D4;stroke-width:0.2726;stroke-miterlimit:10;}
	.st150{fill:#D1D3D4;stroke:#D1D3D4;stroke-width:0.3951;stroke-miterlimit:10;}
	.st151{fill:none;stroke:#000000;stroke-width:0.3345;stroke-miterlimit:10;}
	.st152{fill:#F16973;stroke:#F16973;stroke-width:0.2589;stroke-miterlimit:10;}
	.st153{fill:#CFE7CA;stroke:#CFE7CA;stroke-width:1.1671;stroke-miterlimit:10;}
	.st154{fill:#F16973;}
	.st155{fill:#8FBF9F;stroke:#000000;stroke-width:0.506;stroke-miterlimit:10;}
	.st156{stroke:#000000;stroke-width:0.253;stroke-miterlimit:10;}
	.st157{fill:none;stroke:#000000;stroke-width:0.506;stroke-miterlimit:10;}
	.st158{fill:#FEF7E9;stroke:#FEF7E9;stroke-width:5.802924e-02;stroke-miterlimit:10;}
	.st159{stroke:#000000;stroke-width:2.901462e-02;stroke-miterlimit:10;}
	.st160{fill:#F7D2A0;stroke:#F7D2A0;stroke-width:5.802924e-02;stroke-miterlimit:10;}
	.st161{fill:#FEF7E9;stroke:#000000;stroke-width:5.802924e-02;stroke-miterlimit:10;}
	.st162{fill:#E12946;stroke:#000000;stroke-width:5.802924e-02;stroke-miterlimit:10;}
	.st163{fill:#E12946;stroke:#000000;stroke-width:5.130301e-02;stroke-miterlimit:10;}
	.st164{fill:#A5D9C9;stroke:#A5D9C9;stroke-width:5.914608e-02;stroke-miterlimit:10;}
	.st165{stroke:#000000;stroke-width:3.135081e-02;stroke-miterlimit:10;}
	.st166{stroke:#000000;stroke-width:3.135080e-02;stroke-miterlimit:10;}
	.st167{fill:#F7D2A0;stroke:#F7D2A0;stroke-width:6.010915e-02;stroke-miterlimit:10;}
	.st168{fill:#6D6E71;stroke:#000000;stroke-width:2.940392e-02;stroke-miterlimit:10;}
	.st169{fill:#414042;stroke:#414042;stroke-width:2.940392e-02;stroke-miterlimit:10;}
	.st170{stroke:#000000;stroke-width:2.940392e-02;stroke-miterlimit:10;}
	.st171{fill:#F7D2A0;stroke:#F7D2A0;stroke-width:1.3991;stroke-miterlimit:10;}
	.st172{fill:none;stroke:#000000;stroke-width:0.6996;stroke-miterlimit:10;}
	.st173{fill:#FEF7E9;stroke:#000000;stroke-width:0.6335;stroke-miterlimit:10;}
	.st174{fill:#FFF6DA;stroke:#000000;stroke-width:0.6335;stroke-miterlimit:10;}
	.st175{fill:#BB8B3A;stroke:#BB8B3A;stroke-width:0.6335;stroke-miterlimit:10;}
	.st176{fill:#FEF7E9;stroke:#000000;stroke-width:0.1573;stroke-miterlimit:10;}
	.st177{fill:#FFF6DA;stroke:#000000;stroke-width:0.1573;stroke-miterlimit:10;}
	.st178{fill:none;stroke:#BB8B3A;stroke-width:0.2593;stroke-miterlimit:10;}
	.st179{fill:#BB8B3A;stroke:#BB8B3A;stroke-width:0.2593;stroke-miterlimit:10;}
	.st180{stroke:#000000;stroke-width:0.2593;stroke-miterlimit:10;}
	.st181{fill:#724837;}
	.st182{fill:#34150F;}
	.st183{fill:#0B0707;}
	.st184{fill:#F9BD84;}
	.st185{fill:#EFC1AC;}
	.st186{fill:#D6A98B;}
	.st187{fill:#231C11;}
	.st188{fill:#FFFFFF;stroke:#000000;stroke-width:0.8175;stroke-miterlimit:10;}
	.st189{fill:#D0A832;}
	.st190{fill:#FFFFFF;stroke:#000000;stroke-width:0.5167;stroke-miterlimit:10;}
	.st191{fill:#CFE7CA;stroke:#CFE7CA;stroke-width:1.9851;stroke-miterlimit:10;}
	.st192{fill:#FFF6DA;stroke:#FFF6DA;stroke-width:1.8834;stroke-miterlimit:10;}
	.st193{fill:#7FB09B;stroke:#7FB09B;stroke-width:1.9018;stroke-miterlimit:10;}
	.st194{fill:#8FBE9F;stroke:#8FBE9F;stroke-width:1.9851;stroke-miterlimit:10;}
	.st195{fill:#FEF7E9;stroke:#FEF7E9;stroke-width:0.4189;stroke-miterlimit:10;}
	.st196{fill:#F8A259;stroke:#F8A259;stroke-width:0.2118;stroke-miterlimit:10;}
	.st197{fill:#FEF7E9;stroke:#FEF7E9;stroke-width:0.4222;stroke-miterlimit:10;}
	.st198{fill:#F8A259;stroke:#F8A259;stroke-width:0.2134;stroke-miterlimit:10;}
	.st199{fill:#C82D38;stroke:#000000;stroke-width:0.3219;stroke-miterlimit:10;}
</style>
<path class="st171" d="M176,21.8L19,21.2c0,0-15,21.3,0,43.7l156.7,0C175.7,64.9,192.8,44.2,176,21.8z"/>
<g>
	<g>
		<path d="M166.6,29.2c2.3,0,2.3-3.5,0-3.5C164.4,25.7,164.4,29.2,166.6,29.2L166.6,29.2z"/>
	</g>
</g>
<g>
	<g>
		<path d="M166.6,38.5c2.3,0,2.3-3.5,0-3.5C164.4,35,164.4,38.5,166.6,38.5L166.6,38.5z"/>
	</g>
</g>
<g>
	<g>
		<path d="M153.4,38.5c2.3,0,2.3-3.5,0-3.5C151.1,35,151.1,38.5,153.4,38.5L153.4,38.5z"/>
	</g>
</g>
<g>
	<g>
		<path d="M153.4,29.2c2.3,0,2.3-3.5,0-3.5C151.1,25.7,151.1,29.2,153.4,29.2L153.4,29.2z"/>
	</g>
</g>
<g>
	<g>
		<path d="M141.5,29.2c2.3,0,2.3-3.5,0-3.5C139.2,25.7,139.2,29.2,141.5,29.2L141.5,29.2z"/>
	</g>
</g>
<g>
	<g>
		<path d="M141.5,38.5c2.3,0,2.3-3.5,0-3.5C139.2,35,139.2,38.5,141.5,38.5L141.5,38.5z"/>
	</g>
</g>
<g>
	<g>
		<path d="M166.6,48.8c2.3,0,2.3-3.5,0-3.5C164.4,45.3,164.4,48.8,166.6,48.8L166.6,48.8z"/>
	</g>
</g>
<g>
	<g>
		<path d="M166.6,58c2.3,0,2.3-3.5,0-3.5C164.4,54.6,164.4,58,166.6,58L166.6,58z"/>
	</g>
</g>
<g>
	<g>
		<path d="M153.4,58.1c2.3,0,2.3-3.5,0-3.5C151.1,54.6,151.1,58.1,153.4,58.1L153.4,58.1z"/>
	</g>
</g>
<g>
	<g>
		<path d="M153.4,48.8c2.3,0,2.3-3.5,0-3.5C151.1,45.3,151.1,48.8,153.4,48.8L153.4,48.8z"/>
	</g>
</g>
<g>
	<g>
		<path d="M141.5,48.8c2.3,0,2.3-3.5,0-3.5C139.2,45.3,139.2,48.8,141.5,48.8L141.5,48.8z"/>
	</g>
</g>
<g>
	<g>
		<path d="M141.5,58.1c2.3,0,2.3-3.5,0-3.5C139.2,54.6,139.2,58.1,141.5,58.1L141.5,58.1z"/>
	</g>
</g>
<g>
	<g>
		<path d="M51.6,28.9c2.3,0,2.3-3.5,0-3.5C49.3,25.4,49.3,28.9,51.6,28.9L51.6,28.9z"/>
	</g>
</g>
<g>
	<g>
		<path d="M51.6,38.2c2.3,0,2.3-3.5,0-3.5C49.3,34.7,49.3,38.2,51.6,38.2L51.6,38.2z"/>
	</g>
</g>
<g>
	<g>
		<path d="M38.3,38.2c2.3,0,2.3-3.5,0-3.5C36,34.7,36,38.2,38.3,38.2L38.3,38.2z"/>
	</g>
</g>
<g>
	<g>
		<path d="M38.3,28.9c2.3,0,2.3-3.5,0-3.5C36,25.4,36,28.9,38.3,28.9L38.3,28.9z"/>
	</g>
</g>
<g>
	<g>
		<path d="M26.4,28.9c2.3,0,2.3-3.5,0-3.5C24.1,25.5,24.1,28.9,26.4,28.9L26.4,28.9z"/>
	</g>
</g>
<g>
	<g>
		<path d="M26.4,38.2c2.3,0,2.3-3.5,0-3.5C24.1,34.7,24.1,38.2,26.4,38.2L26.4,38.2z"/>
	</g>
</g>
<g>
	<g>
		<path d="M51.6,48.5c2.3,0,2.3-3.5,0-3.5C49.3,45,49.3,48.5,51.6,48.5L51.6,48.5z"/>
	</g>
</g>
<g>
	<g>
		<path d="M51.6,57.8c2.3,0,2.3-3.5,0-3.5C49.3,54.3,49.3,57.8,51.6,57.8L51.6,57.8z"/>
	</g>
</g>
<g>
	<g>
		<path d="M38.3,57.8c2.3,0,2.3-3.5,0-3.5C36,54.3,36,57.8,38.3,57.8L38.3,57.8z"/>
	</g>
</g>
<g>
	<g>
		<path d="M38.3,48.5c2.3,0,2.3-3.5,0-3.5C36,45,36,48.5,38.3,48.5L38.3,48.5z"/>
	</g>
</g>
<g>
	<g>
		<path d="M26.4,48.5c2.3,0,2.3-3.5,0-3.5C24.1,45,24.1,48.5,26.4,48.5L26.4,48.5z"/>
	</g>
</g>
<g>
	<g>
		<path d="M26.4,57.8c2.3,0,2.3-3.5,0-3.5C24.1,54.3,24.1,57.8,26.4,57.8L26.4,57.8z"/>
	</g>
</g>
<rect x="65.2" y="23.8" class="st172" width="58.9" height="37.6"/>
<g>
	<path d="M78.9,46.9l-1.3,3.3l-3.2,0L80.6,34l2.3,0l5.8,16.3l-3.2,0l-1.2-3.3L78.9,46.9z M81.6,38.7L81.6,38.7l-1.8,5.7l3.7,0
		L81.6,38.7z"/>
	<path d="M103.2,41.9l0,0.4c0,4.5-2.3,8.4-7.1,8.4c-4.5,0-7.3-3.9-7.3-8.3c0-4.5,3-8.4,7.6-8.4c2.6,0,4.9,1.4,6.1,3.8l-2.7,1.5
		c-0.6-1.4-1.9-2.5-3.5-2.5c-2.9,0-4.3,3-4.4,5.6c0,2.6,1.4,5.5,4.3,5.6c1.9,0,3.5-1.7,3.5-3.6l-3.3,0l0-2.5L103.2,41.9z"/>
	<path d="M107.8,37.2l0,3.5l4.8,0l0,2.7l-4.8,0l0,4.3l5,0l0,2.7l-8,0l0.1-15.8l8,0l0,2.7L107.8,37.2z"/>
</g>
</svg>
